<svg xmlns="http://www.w3.org/2000/svg" width="1092" height="960" viewBox="0 0 1092 960">
<g>
<path d="M 571.04,744.96 L 567.59,748.44 L 560.76,755.15 L 550.74,764.73 L 571.54,744.44 M 605.39,708.62 L 604.61,709.48 L 606.40,707.47 M 356.22,631.56 L 360.14,637.12 L 368.15,648.32 L 372.39,653.99 L 381.01,665.37 L 385.52,671.10 L 394.69,682.57 L 399.45,688.31 L 409.09,699.79 L 408.66,699.30 L 398.41,687.10 L 393.37,681.03 L 383.84,669.08 L 379.17,663.13 L 370.35,651.38 L 366.02,645.53 L 357.88,633.98 L 353.90,628.22 L 351.07,623.90 M 629.92,680.00 L 627.13,683.42 L 621.18,690.49 L 618.16,694.05 L 617.30,695.03 L 619.92,691.93 L 631.72,677.72 M 663.03,636.28 L 657.97,643.53 L 647.15,658.10 L 643.51,662.73 L 646.87,658.39 L 650.01,654.19 L 656.21,645.80 L 659.20,641.62 L 664.58,634.01 M 672.92,621.81 L 668.74,627.93 L 673.54,620.80 L 675.32,618.06 M 194.20,622.84 L 198.04,618.26 L 200.17,615.92 M 686.43,600.31 L 685.98,601.04 L 686.76,599.75 M 237.53,584.29 L 230.19,589.49 L 226.57,592.12 L 220.29,597.10 L 221.10,596.40 L 225.13,593.23 L 229.17,590.11 L 231.17,588.64 L 235.16,585.78 L 237.11,584.48 L 240.14,582.60 M 528.94,577.60 L 521.80,578.37 L 518.26,578.56 L 511.20,578.81 L 507.74,578.73 L 500.85,578.45 L 500.29,578.39 L 500.51,578.40 L 504.07,578.51 L 507.71,578.58 L 515.72,578.41 L 519.73,578.27 L 527.50,577.70 L 529.37,577.54 L 529.71,577.50 M 252.92,574.73 L 251.65,575.46 L 252.44,574.97 L 255.07,573.53 M 570.53,566.40 L 563.96,569.08 L 560.57,570.25 L 553.72,572.47 L 552.75,572.74 L 558.54,570.87 L 562.17,569.64 L 569.31,566.81 L 577.68,562.99 M 414.00,542.10 L 416.55,544.42 L 422.11,548.83 L 424.96,550.99 L 431.07,555.04 L 434.18,557.02 L 440.73,560.68 L 444.05,562.45 L 450.94,565.67 L 454.43,567.22 L 461.57,569.95 L 462.43,570.26 L 457.17,568.41 L 454.49,567.34 L 449.19,565.13 L 446.67,563.95 L 441.72,561.53 L 439.41,560.25 L 434.91,557.64 L 432.85,556.28 L 430.89,555.20 L 429.42,554.62 L 428.56,554.39 L 426.73,553.98 L 425.64,553.83 L 423.32,553.58 L 421.92,553.52 L 418.97,553.43 L 417.21,553.44 L 413.49,553.51 L 411.29,553.59 L 406.66,553.80 L 403.95,553.96 L 401.18,554.13 L 399.69,554.22 L 396.64,554.42 L 395.00,554.54 L 384.60,555.35 L 377.96,555.96 L 374.75,556.30 L 368.41,557.03 L 365.34,557.43 L 359.26,558.27 L 356.29,558.74 L 344.59,560.74 L 338.87,561.95 L 327.49,564.54 L 321.76,566.07 L 318.14,567.04 L 317.86,566.50 L 316.85,564.44 L 314.99,560.65 L 314.10,558.83 L 312.60,555.80 L 312.26,555.10 L 311.67,553.91 L 311.40,553.35 L 310.96,552.46 L 310.76,552.05 L 310.49,551.51 L 310.30,551.13 L 310.27,551.09 L 309.98,551.09 L 309.79,551.11 L 309.50,551.17 L 315.03,549.54 L 321.40,547.99 L 334.31,545.07 L 341.05,543.85 L 354.73,541.58 L 361.89,540.68 L 369.09,539.83 L 372.78,539.46 L 380.20,538.75 L 384.00,538.46 L 393.68,537.80 L 399.96,537.47 L 403.08,537.36 L 408.62,537.20 M 264.73,568.37 L 262.05,569.71 L 262.99,569.20 L 264.90,568.29 M 719.11,534.74 L 716.39,541.42 L 714.99,544.77 L 712.00,551.55 L 710.48,554.94 L 707.22,561.80 L 705.56,565.24 L 705.16,566.03 L 706.73,562.78 L 708.74,558.47 L 709.79,556.16 L 714.06,546.61 L 716.00,542.09 L 717.88,537.66 L 718.70,535.69 L 719.24,534.39 M 302.46,553.26 L 300.95,553.76 L 297.56,554.93 L 294.08,556.14 L 286.59,558.91 L 284.75,559.61 L 281.27,560.97 L 276.74,562.82 L 279.47,561.57 L 285.19,559.33 L 296.78,555.03 L 302.81,553.14 L 302.93,553.11 M 738.40,496.99 L 730.29,501.35 L 727.06,511.92 L 726.09,515.12 L 723.92,521.60 L 722.81,524.85 L 722.52,525.62 L 722.58,525.27 L 722.54,525.23 L 722.26,525.27 L 721.85,525.38 L 721.55,525.47 L 720.07,525.96 L 719.02,526.33 L 716.72,527.16 L 715.34,527.67 L 712.46,528.75 L 710.90,529.36 L 697.80,534.17 L 689.09,537.14 L 684.73,538.51 L 676.00,541.16 L 671.61,542.38 L 662.81,544.73 L 658.36,545.80 L 649.43,547.87 L 644.89,548.80 L 635.78,550.59 L 631.14,551.39 L 621.79,552.92 L 617.01,553.59 L 607.38,554.87 L 602.44,555.42 L 598.29,555.90 L 595.97,556.19 L 594.99,556.34 L 593.11,556.64 L 592.29,556.81 L 590.71,557.16 L 589.98,557.37 L 587.15,558.32 L 585.59,559.05 L 585.16,559.25 L 587.39,558.08 L 588.44,557.52 L 589.93,556.70 L 590.24,556.53 L 590.67,556.27 L 591.00,556.05 L 591.03,556.01 L 591.29,555.79 L 591.45,555.66 L 591.95,555.27 L 592.49,554.84 L 594.15,553.56 L 595.06,552.86 L 597.28,551.16 L 601.02,548.34 L 602.33,547.35 L 604.87,545.38 L 606.11,544.41 L 608.32,542.62 L 609.36,541.77 L 611.00,540.37 L 611.36,540.05 L 611.93,539.53 L 612.52,538.94 L 614.50,536.70 L 609.50,537.38 L 607.50,537.65 L 613.55,536.72 L 627.18,534.46 L 634.02,533.09 L 647.73,530.20 L 654.71,528.50 L 674.43,523.10 L 687.48,518.91 L 693.91,516.55 L 706.70,511.65 L 712.92,508.97 L 725.26,503.46 L 731.21,500.50 L 741.90,494.99 M 577.63,540.83 L 572.43,541.23 L 561.94,541.78 L 556.65,542.02 L 545.70,542.23 L 540.14,542.29 L 528.37,542.17 L 525.36,542.12 L 519.13,541.95 L 515.98,541.86 L 511.11,541.68 L 512.98,541.74 L 521.42,541.98 L 525.53,542.05 L 533.66,542.16 L 537.61,542.15 L 545.46,542.12 L 549.29,542.04 L 564.36,541.61 L 571.60,541.17 L 584.51,540.24 M 603.96,538.13 L 593.31,539.36 L 588.02,539.94 L 586.88,540.04 L 592.88,539.40 L 605.88,537.87 M 753.72,488.23 L 751.04,489.76 L 755.46,487.14 M 763.50,482.10 L 763.35,482.19 L 763.71,481.96 M 790.49,461.63 L 792.17,460.09 L 790.49,461.63 M 614.98,446.99 L 614.99,447.37 L 615.00,448.30 L 615.00,449.86 L 614.88,448.29 L 614.90,447.47 L 614.93,446.69 L 614.96,446.51 M 614.03,443.09 L 614.11,443.26 L 613.97,443.00 L 613.93,442.92 M 919.00,431.12 L 919.04,432.42 L 919.00,431.12 L 919.00,429.93 L 919.14,426.97 L 919.00,429.93 M 780.35,423.00 L 780.24,423.00 L 779.31,423.24 L 780.24,423.00 M 472.00,416.95 L 472.31,418.05 L 472.00,416.95 L 472.00,416.52 L 471.58,415.24 L 472.00,416.52 M 545.00,412.28 L 545.00,411.92 L 544.80,410.85 L 545.00,411.92 M 385.00,482.70 L 384.86,483.93 L 384.57,484.46 L 384.86,483.93 Z" fill="rgba(10,75,116,1)"/>
<path d="M 703.99,568.45 L 702.06,572.33 L 697.89,580.22 L 695.76,584.18 L 691.21,592.20 L 688.89,596.23 L 683.97,604.36 L 681.47,608.44 L 676.21,616.67 L 673.54,620.80 L 667.95,629.10 L 665.11,633.26 L 659.20,641.62 L 656.21,645.80 L 650.01,654.19 L 646.87,658.39 L 640.38,666.79 L 633.82,675.19 L 619.92,691.93 L 612.85,700.28 L 598.04,716.80 L 590.52,725.02 L 574.91,741.15 L 550.74,764.73 L 545.99,769.19 L 536.67,777.76 L 534.40,779.84 L 530.10,783.73 L 528.00,785.62 L 524.14,789.05 L 522.29,790.70 L 519.03,793.54 L 518.26,794.21 L 516.85,795.41 L 516.17,795.99 L 514.97,797.00 L 514.40,797.48 L 513.41,798.27 L 512.95,798.64 L 512.21,799.22 L 511.87,799.47 L 511.38,799.80 L 510.96,800.00 L 510.92,800.00 L 510.57,799.76 L 510.35,799.61 L 509.67,799.08 L 509.30,798.78 L 508.33,798.00 L 507.82,797.58 L 506.60,796.57 L 505.33,795.51 L 502.20,792.86 L 500.57,791.46 L 496.94,788.33 L 495.88,787.41 L 493.38,785.16 L 492.08,783.97 L 489.13,781.25 L 487.61,779.83 L 484.29,776.69 L 482.58,775.08 L 478.95,771.60 L 477.10,769.82 L 473.23,766.06 L 471.27,764.15 L 467.22,760.19 L 463.15,756.18 L 454.77,747.84 L 450.59,743.66 L 442.40,735.38 L 440.40,733.34 L 436.51,729.36 L 434.60,727.40 L 430.95,723.62 L 429.16,721.77 L 425.82,718.27 L 424.20,716.55 L 421.23,713.39 L 419.80,711.86 L 417.28,709.10 L 414.06,705.50 L 409.09,699.79 L 399.45,688.31 L 394.69,682.57 L 385.52,671.10 L 385.09,670.55 L 386.17,671.69 L 386.65,672.19 L 387.10,672.64 L 387.24,672.78 L 387.47,673.00 L 387.49,673.00 L 387.52,672.71 L 387.54,672.26 L 387.55,671.93 L 387.56,670.36 L 387.55,669.35 L 387.50,665.71 L 459.00,643.83 L 473.66,639.35 L 483.26,636.41 L 487.91,634.99 L 497.06,632.19 L 501.39,630.87 L 509.86,628.28 L 513.76,627.09 L 517.59,625.92 L 519.41,625.37 L 522.98,624.28 L 524.65,623.77 L 527.93,622.77 L 529.44,622.30 L 532.39,621.41 L 533.73,621.00 L 536.32,620.21 L 537.47,619.85 L 539.68,619.18 L 540.63,618.89 L 542.42,618.35 L 543.15,618.13 L 544.50,617.72 L 545.00,617.56 L 546.75,617.03 L 548.16,616.60 L 548.98,616.35 L 550.70,615.83 L 551.66,615.54 L 553.66,614.93 L 554.76,614.60 L 559.41,613.18 L 562.07,612.36 L 567.62,610.67 L 570.68,609.74 L 576.97,607.82 L 580.34,606.79 L 587.20,604.69 L 590.79,603.60 L 605.50,599.10 L 613.08,596.78 L 628.26,592.14 L 635.57,589.91 L 642.81,587.69 L 646.27,586.63 L 653.08,584.55 L 656.27,583.57 L 662.50,581.67 L 665.33,580.80 L 670.80,579.12 L 673.20,578.39 L 675.53,577.67 L 676.60,577.34 L 678.68,576.71 L 679.62,576.42 L 681.42,575.86 L 682.21,575.62 L 683.72,575.16 L 684.35,574.96 L 689.41,573.47 L 692.43,572.63 L 693.66,572.32 L 694.85,572.02 L 695.36,571.91 L 696.31,571.69 L 696.68,571.62 L 697.36,571.51 L 697.58,571.49 L 697.95,571.47 L 698.01,571.50 L 698.41,572.48 L 698.41,573.55 L 698.25,574.13 L 698.08,575.09 L 698.08,575.54 L 698.15,575.68 L 698.33,575.90 L 698.49,575.93 L 698.85,575.94 L 699.10,575.86 L 699.49,575.56 L 699.85,575.14 L 700.07,574.84 L 701.06,573.38 L 701.68,572.35 L 702.99,570.11 L 703.71,568.77 L 705.17,566.01 M 329.63,589.12 L 330.80,591.14 L 333.17,595.22 L 334.41,597.32 L 339.55,605.86 L 342.25,610.19 L 347.73,618.84 L 350.49,623.02 L 354.74,629.34 L 357.88,633.91 L 358.78,635.19 L 356.22,631.56 L 348.87,620.64 L 345.29,615.22 L 338.68,604.67 L 335.47,599.45 L 329.66,589.35 L 327.67,585.62 M 376.00,487.13 L 376.12,488.24 L 376.36,488.70 L 376.62,488.81 L 377.25,488.94 L 377.75,488.91 L 378.91,488.80 L 379.75,488.67 L 392.69,486.89 L 401.56,485.93 L 406.16,485.57 L 415.48,484.91 L 420.34,484.70 L 430.23,484.34 L 435.43,484.28 L 446.01,484.22 L 451.61,484.30 L 463.00,484.54 L 469.05,484.78 L 475.16,485.03 L 478.31,485.18 L 484.67,485.50 L 487.96,485.69 L 494.59,486.09 L 498.01,486.31 L 504.93,486.78 L 508.50,487.04 L 518.83,487.69 L 526.16,488.05 L 530.00,488.19 L 537.76,488.44 L 541.74,488.53 L 549.74,488.69 L 553.77,488.72 L 569.92,488.77 L 577.67,488.63 L 585.32,488.47 L 588.98,488.34 L 596.15,488.07 L 599.50,487.89 L 610.05,487.35 L 613.41,487.20 L 615.00,487.12 L 618.11,486.99 L 619.55,486.93 L 622.34,486.81 L 623.58,486.77 L 625.96,486.68 L 626.97,486.65 L 628.84,486.59 L 629.56,486.58 L 630.85,486.56 L 631.25,486.56 L 633.48,486.52 L 634.79,486.44 L 635.31,486.37 L 636.25,486.22 L 636.55,486.12 L 637.00,485.92 L 637.00,485.81 L 637.22,485.37 L 637.56,485.16 L 637.80,485.10 L 638.93,484.95 L 639.59,485.03 L 640.94,485.27 L 641.50,485.51 L 642.47,486.07 L 642.61,486.44 L 643.84,487.64 L 645.24,488.33 L 646.03,488.51 L 647.84,489.05 L 648.28,489.43 L 648.47,489.77 L 648.86,490.55 L 649.04,491.15 L 649.43,492.52 L 649.64,493.48 L 650.08,495.62 L 650.34,497.05 L 650.61,498.54 L 650.76,499.38 L 651.07,501.14 L 651.24,502.13 L 651.60,504.18 L 651.80,505.32 L 652.21,507.69 L 652.43,509.00 L 653.66,516.69 L 653.97,518.91 L 654.08,519.80 L 654.26,521.39 L 654.29,521.85 L 654.50,525.19 L 661.00,524.65 L 665.01,524.26 L 667.49,523.98 L 668.66,523.81 L 673.22,523.06 L 675.49,522.52 L 679.19,521.57 L 674.43,523.10 L 654.71,528.50 L 647.73,530.20 L 634.02,533.09 L 627.18,534.46 L 613.55,536.72 L 606.71,537.77 L 592.88,539.40 L 585.91,540.14 L 571.60,541.17 L 564.36,541.61 L 549.29,542.04 L 545.46,542.12 L 537.61,542.15 L 533.66,542.16 L 525.53,542.05 L 521.42,541.98 L 512.98,541.74 L 508.71,541.60 L 499.90,541.22 L 495.46,541.01 L 486.26,540.50 L 472.00,539.57 L 469.41,539.39 L 464.47,539.06 L 462.03,538.90 L 457.39,538.61 L 452.82,538.33 L 444.47,537.89 L 440.41,537.68 L 432.91,537.40 L 429.24,537.28 L 422.37,537.16 L 418.99,537.12 L 412.54,537.15 L 409.34,537.18 L 403.08,537.36 L 399.96,537.47 L 393.68,537.80 L 384.00,538.46 L 380.20,538.75 L 372.78,539.46 L 369.09,539.83 L 361.89,540.68 L 354.73,541.58 L 341.05,543.85 L 334.31,545.07 L 321.40,547.99 L 315.03,549.54 L 302.81,553.14 L 296.78,555.03 L 285.19,559.33 L 279.47,561.57 L 268.44,566.60 L 262.99,569.20 L 252.44,574.97 L 237.11,584.48 L 235.16,585.78 L 231.17,588.64 L 229.17,590.11 L 225.13,593.23 L 221.10,596.40 L 213.27,603.18 L 211.36,604.89 L 207.71,608.31 L 205.93,610.02 L 202.59,613.38 L 200.97,615.04 L 198.04,618.26 L 194.20,622.84 L 193.62,623.57 L 192.57,624.83 L 192.07,625.42 L 191.23,626.31 L 190.85,626.71 L 190.33,627.14 L 190.12,627.29 L 190.00,627.17 L 190.00,626.87 L 190.29,625.64 L 190.47,624.93 L 191.08,623.03 L 191.41,622.02 L 192.26,619.64 L 192.70,618.41 L 193.72,615.75 L 194.76,613.04 L 197.04,607.59 L 197.60,606.29 L 198.68,603.90 L 200.15,600.86 L 201.77,597.74 L 205.33,591.63 L 207.17,588.59 L 211.16,582.67 L 213.21,579.74 L 217.61,574.01 L 219.87,571.18 L 224.67,565.66 L 227.12,562.93 L 232.31,557.63 L 234.95,555.01 L 240.52,549.94 L 243.34,547.44 L 249.26,542.61 L 252.27,540.22 L 258.53,535.64 L 261.71,533.38 L 268.30,529.05 L 271.64,526.93 L 278.55,522.87 L 282.04,520.87 L 289.25,517.09 L 292.89,515.24 L 300.39,511.75 L 304.18,510.04 L 311.95,506.85 L 315.87,505.29 L 323.90,502.40 L 327.95,501.00 L 336.23,498.43 L 348.90,494.95 L 351.05,494.41 L 355.41,493.34 L 357.57,492.82 L 361.61,491.86 L 363.54,491.41 L 366.79,490.67 L 367.53,490.51 L 368.78,490.24 L 370.25,489.94 L 371.41,489.72 L 373.11,489.32 L 373.86,489.12 L 374.86,488.69 L 375.29,488.47 L 375.75,487.93 L 376.00,486.93 M 722.51,525.68 L 722.45,525.94 L 722.20,526.74 L 722.05,527.18 L 721.63,528.33 L 721.41,528.94 L 720.84,530.40 L 720.55,531.16 L 719.86,532.87 L 719.50,533.75 L 718.70,535.69 L 717.88,537.66 L 716.00,542.09 L 714.06,546.61 L 712.45,550.21 L 714.59,545.33 L 716.38,541.12 L 718.11,536.98 L 718.88,535.12 L 720.33,531.56 L 720.89,530.12 L 721.43,528.74 L 721.64,528.16 L 722.04,527.07 L 722.19,526.65 L 722.43,525.89 L 722.50,525.65 L 722.57,525.27 L 722.58,525.27 M 706.70,511.65 L 694.79,516.21 L 706.52,511.68 L 711.71,509.50 M 725.26,503.46 L 722.53,504.68 L 727.85,502.17 M 742.94,494.45 L 741.51,495.19 L 743.25,494.28 M 376.15,486.01 L 376.17,485.94 L 376.21,485.87 M 376.29,485.71 L 376.30,485.69 L 376.50,485.56 M 759.49,484.75 L 758.51,485.33 L 760.41,484.12 L 762.99,482.44 M 776.95,472.70 L 775.18,473.99 L 777.30,472.44 M 785.94,465.55 L 783.79,467.36 L 782.83,468.11 L 786.81,464.81 M 376.15,486.02 L 376.00,486.66 L 376.00,486.52 Z" fill="rgba(14,126,186,1)"/>
<path d="M 722.57,525.27 L 722.50,525.65 L 722.43,525.89 L 722.19,526.65 L 722.04,527.07 L 721.64,528.16 L 721.43,528.74 L 720.89,530.12 L 720.33,531.56 L 718.88,535.12 L 718.11,536.98 L 716.38,541.12 L 714.59,545.33 L 710.79,553.98 L 709.87,556.05 L 708.15,559.79 L 705.93,564.48 L 705.18,565.99 L 703.71,568.77 L 702.99,570.11 L 701.68,572.35 L 701.06,573.38 L 700.07,574.84 L 699.85,575.14 L 699.49,575.56 L 699.10,575.86 L 698.85,575.94 L 698.49,575.93 L 698.33,575.90 L 698.15,575.68 L 698.08,575.54 L 698.08,575.09 L 698.25,574.13 L 698.41,573.55 L 698.41,572.48 L 698.01,571.50 L 697.95,571.47 L 697.58,571.49 L 697.36,571.51 L 696.68,571.62 L 696.31,571.69 L 695.36,571.91 L 694.85,572.02 L 693.66,572.32 L 692.43,572.63 L 689.41,573.47 L 684.35,574.96 L 683.72,575.16 L 682.21,575.62 L 681.42,575.86 L 679.62,576.42 L 678.68,576.71 L 676.60,577.34 L 675.53,577.67 L 673.20,578.39 L 670.80,579.12 L 665.33,580.80 L 662.50,581.67 L 656.27,583.57 L 653.08,584.55 L 646.27,586.63 L 642.81,587.69 L 635.57,589.91 L 628.26,592.14 L 613.08,596.78 L 605.50,599.10 L 590.79,603.60 L 587.20,604.69 L 580.34,606.79 L 576.97,607.82 L 570.68,609.74 L 567.62,610.67 L 562.07,612.36 L 559.41,613.18 L 554.76,614.60 L 553.66,614.93 L 551.66,615.54 L 550.70,615.83 L 548.98,616.35 L 548.16,616.60 L 546.75,617.03 L 545.00,617.56 L 544.50,617.72 L 543.15,618.13 L 542.42,618.35 L 540.63,618.89 L 539.68,619.18 L 537.47,619.85 L 536.32,620.21 L 533.73,621.00 L 532.39,621.41 L 529.44,622.30 L 527.93,622.77 L 524.65,623.77 L 522.98,624.28 L 519.41,625.37 L 517.59,625.92 L 513.76,627.09 L 509.86,628.28 L 501.39,630.87 L 497.06,632.19 L 487.91,634.99 L 483.26,636.41 L 473.66,639.35 L 459.00,643.83 L 387.50,665.71 L 387.55,669.35 L 387.56,670.36 L 387.55,671.93 L 387.54,672.26 L 387.52,672.71 L 387.49,673.00 L 387.47,673.00 L 387.24,672.78 L 387.10,672.64 L 386.65,672.19 L 386.17,671.69 L 384.81,670.25 L 384.52,669.93 L 383.76,669.05 L 383.36,668.58 L 382.40,667.41 L 381.90,666.78 L 380.77,665.35 L 380.19,664.60 L 378.91,662.93 L 377.59,661.21 L 374.60,657.20 L 373.06,655.13 L 369.75,650.60 L 366.40,646.00 L 359.55,636.29 L 357.88,633.91 L 354.74,629.34 L 350.49,623.02 L 347.73,618.84 L 342.25,610.19 L 339.55,605.86 L 334.41,597.32 L 333.17,595.22 L 330.80,591.14 L 329.63,589.12 L 327.46,585.25 L 326.41,583.35 L 324.48,579.78 L 321.91,574.82 L 318.01,567.07 L 321.76,566.07 L 327.49,564.54 L 338.87,561.95 L 344.59,560.74 L 356.29,558.74 L 359.26,558.27 L 365.34,557.43 L 368.41,557.03 L 374.75,556.30 L 377.96,555.96 L 384.60,555.35 L 395.00,554.54 L 396.64,554.42 L 399.69,554.22 L 401.18,554.13 L 403.95,553.96 L 406.66,553.80 L 411.29,553.59 L 413.49,553.51 L 417.21,553.44 L 418.97,553.43 L 421.92,553.52 L 423.32,553.58 L 425.64,553.83 L 426.73,553.98 L 428.56,554.39 L 429.42,554.62 L 430.89,555.20 L 432.85,556.28 L 434.91,557.64 L 439.41,560.25 L 441.72,561.53 L 446.67,563.95 L 449.19,565.13 L 454.49,567.34 L 457.17,568.41 L 462.74,570.37 L 465.54,571.32 L 471.29,573.01 L 474.18,573.82 L 480.02,575.20 L 482.95,575.86 L 488.80,576.91 L 497.50,578.10 L 500.85,578.45 L 507.74,578.73 L 511.20,578.81 L 518.26,578.56 L 521.80,578.37 L 528.94,577.60 L 532.51,577.15 L 539.64,575.87 L 543.20,575.17 L 550.23,573.41 L 553.72,572.47 L 560.57,570.25 L 563.96,569.08 L 570.53,566.40 L 579.97,561.89 L 581.11,561.29 L 583.05,560.29 L 583.97,559.82 L 585.59,559.05 L 587.15,558.32 L 589.98,557.37 L 590.71,557.16 L 592.29,556.81 L 593.11,556.64 L 594.99,556.34 L 595.97,556.19 L 598.29,555.90 L 602.44,555.42 L 607.38,554.87 L 617.01,553.59 L 621.79,552.92 L 631.14,551.39 L 635.78,550.59 L 644.89,548.80 L 649.43,547.87 L 658.36,545.80 L 662.81,544.73 L 671.61,542.38 L 676.00,541.16 L 684.73,538.51 L 689.09,537.14 L 697.80,534.17 L 710.90,529.36 L 712.46,528.75 L 715.34,527.67 L 716.72,527.16 L 719.02,526.33 L 720.07,525.96 L 721.55,525.47 L 721.85,525.38 L 722.26,525.27 L 722.54,525.23 M 965.94,315.25 L 967.62,315.56 L 968.39,315.76 L 969.49,316.47 L 969.96,316.87 L 970.49,318.00 L 970.68,318.61 L 970.65,320.17 L 970.57,321.01 L 970.01,323.03 L 968.59,326.58 L 967.83,328.25 L 966.14,331.44 L 965.26,333.02 L 963.30,336.08 L 962.27,337.61 L 959.94,340.63 L 958.72,342.14 L 955.95,345.21 L 954.50,346.76 L 951.20,349.96 L 949.48,351.58 L 945.58,355.00 L 943.54,356.75 L 938.95,360.47 L 931.20,366.50 L 918.05,376.50 L 918.02,389.86 L 918.02,391.33 L 918.03,393.82 L 918.03,394.99 L 918.06,396.91 L 918.08,397.80 L 918.14,399.22 L 918.17,399.88 L 918.27,400.86 L 918.33,401.31 L 918.47,401.92 L 918.55,402.19 L 918.75,402.50 L 919.59,402.60 L 921.03,402.05 L 923.72,401.43 L 925.01,401.20 L 927.25,401.21 L 928.30,401.29 L 929.90,401.92 L 930.25,402.12 L 930.81,402.62 L 931.38,403.55 L 931.49,403.85 L 931.55,404.59 L 931.56,404.99 L 931.39,405.92 L 931.18,406.88 L 930.12,409.31 L 929.48,410.59 L 927.63,413.56 L 924.01,418.48 L 923.44,419.20 L 922.49,420.43 L 922.04,421.01 L 921.31,422.03 L 920.63,423.00 L 919.80,424.60 L 919.46,425.38 L 919.14,426.97 L 919.00,429.93 L 919.00,431.12 L 919.05,432.72 L 919.09,433.40 L 919.29,434.13 L 919.42,434.41 L 919.88,434.47 L 920.94,434.03 L 921.79,433.58 L 924.13,433.02 L 925.36,432.80 L 927.94,432.71 L 929.20,432.72 L 931.33,433.09 L 931.81,433.21 L 932.56,433.54 L 933.30,434.16 L 933.53,434.52 L 933.79,435.39 L 933.88,435.85 L 933.85,436.90 L 933.80,437.45 L 933.49,438.67 L 933.30,439.31 L 932.70,440.69 L 932.37,441.41 L 931.51,442.95 L 931.04,443.74 L 929.90,445.43 L 929.30,446.29 L 927.89,448.11 L 925.49,451.00 L 918.95,458.50 L 920.28,491.69 L 913.11,497.48 L 912.12,498.28 L 910.28,499.69 L 909.40,500.35 L 907.89,501.42 L 907.19,501.89 L 906.18,502.49 L 905.41,502.74 L 905.39,502.72 L 905.29,502.45 L 905.24,502.28 L 905.07,501.72 L 904.98,501.40 L 904.74,500.56 L 904.61,500.10 L 904.31,498.99 L 903.99,497.82 L 903.17,494.76 L 902.73,493.11 L 901.70,489.19 L 901.16,487.13 L 899.96,482.48 L 899.34,480.07 L 897.99,474.81 L 897.29,472.12 L 895.83,466.37 L 893.54,457.35 L 892.77,454.27 L 891.24,448.26 L 890.49,445.29 L 889.05,439.60 L 888.35,436.81 L 887.02,431.59 L 886.38,429.05 L 885.20,424.42 L 884.64,422.20 L 883.65,418.30 L 883.18,416.46 L 882.40,413.43 L 882.23,412.73 L 881.92,411.52 L 881.77,410.95 L 881.53,410.00 L 881.41,409.56 L 881.24,408.90 L 881.06,408.23 L 879.91,403.96 L 850.50,423.73 L 821.08,443.50 L 821.04,458.68 L 821.04,460.24 L 821.01,462.93 L 821.00,464.21 L 820.96,466.38 L 820.93,467.41 L 820.85,469.13 L 820.81,469.93 L 820.70,471.26 L 820.64,471.87 L 820.49,472.86 L 820.41,473.32 L 820.21,474.03 L 819.41,475.44 L 818.73,476.13 L 816.99,477.62 L 816.09,478.36 L 814.23,479.75 L 813.33,480.39 L 811.78,481.36 L 811.44,481.56 L 810.88,481.83 L 810.29,482.00 L 810.17,482.00 L 809.90,481.81 L 809.76,481.67 L 809.41,481.14 L 809.22,480.83 L 808.75,479.87 L 808.49,479.33 L 807.86,477.86 L 807.52,477.05 L 806.70,474.97 L 806.26,473.85 L 805.20,471.07 L 804.64,469.59 L 803.31,466.04 L 800.97,459.73 L 798.84,453.97 L 792.17,460.09 L 789.14,462.87 L 782.56,468.33 L 779.19,471.05 L 771.95,476.36 L 768.25,478.99 L 760.41,484.12 L 756.41,486.66 L 748.02,491.58 L 743.75,494.01 L 734.85,498.69 L 730.34,501.00 L 720.99,505.41 L 716.27,507.57 L 706.52,511.68 L 691.50,517.48 L 689.83,518.09 L 686.82,519.14 L 685.36,519.64 L 682.70,520.51 L 680.10,521.33 L 675.49,522.52 L 673.22,523.06 L 668.66,523.81 L 667.49,523.98 L 665.01,524.26 L 661.00,524.65 L 654.50,525.19 L 654.29,521.85 L 654.26,521.39 L 654.08,519.80 L 653.97,518.91 L 653.66,516.69 L 652.43,509.00 L 652.21,507.69 L 651.80,505.32 L 651.60,504.18 L 651.24,502.13 L 651.07,501.14 L 650.76,499.38 L 650.61,498.54 L 650.34,497.05 L 650.08,495.62 L 649.64,493.48 L 649.43,492.52 L 649.04,491.15 L 648.86,490.55 L 648.47,489.77 L 648.28,489.43 L 647.84,489.05 L 646.03,488.51 L 645.24,488.33 L 643.84,487.64 L 642.61,486.44 L 642.47,486.07 L 641.50,485.51 L 640.94,485.27 L 639.60,485.03 L 639.81,485.00 L 640.87,485.00 L 643.09,484.95 L 643.96,484.79 L 644.17,484.58 L 644.43,484.07 L 644.40,483.62 L 644.33,483.10 L 644.83,484.18 L 644.95,484.30 L 645.79,484.40 L 646.31,484.43 L 647.88,484.36 L 648.75,484.31 L 650.97,484.08 L 652.16,483.95 L 654.95,483.59 L 656.41,483.39 L 659.70,482.90 L 661.39,482.64 L 665.08,482.04 L 666.96,481.73 L 670.97,481.04 L 673.01,480.68 L 677.26,479.91 L 681.56,479.12 L 690.53,477.36 L 695.02,476.47 L 703.90,474.59 L 708.26,473.64 L 716.38,471.76 L 718.33,471.30 L 721.98,470.39 L 727.00,469.07 L 730.05,468.23 L 736.71,466.25 L 740.10,465.22 L 747.14,462.96 L 750.66,461.81 L 757.65,459.43 L 761.11,458.24 L 767.65,455.89 L 770.82,454.73 L 776.50,452.55 L 777.84,452.02 L 780.30,451.03 L 781.49,450.55 L 783.59,449.65 L 784.59,449.21 L 786.28,448.43 L 787.07,448.06 L 788.29,447.41 L 788.85,447.10 L 789.56,446.61 L 790.00,446.06 L 790.00,446.01 L 789.80,445.77 L 789.66,445.63 L 789.21,445.24 L 788.70,444.81 L 787.06,443.57 L 786.16,442.90 L 783.88,441.29 L 780.00,438.65 L 778.62,437.73 L 776.12,435.96 L 774.93,435.10 L 772.95,433.58 L 772.04,432.86 L 770.81,431.75 L 770.56,431.51 L 770.23,431.13 L 770.03,430.74 L 770.04,430.55 L 770.40,429.96 L 770.63,429.64 L 771.35,428.87 L 772.15,428.07 L 774.38,426.28 L 775.53,425.41 L 777.79,423.99 L 778.31,423.69 L 779.21,423.27 L 780.24,423.00 L 780.35,423.00 L 780.81,423.06 L 781.08,423.10 L 781.83,423.24 L 782.65,423.39 L 785.02,423.88 L 786.30,424.15 L 789.34,424.84 L 794.34,426.00 L 796.06,426.41 L 799.34,427.16 L 800.92,427.52 L 803.68,428.12 L 804.97,428.39 L 806.90,428.76 L 807.31,428.84 L 807.94,428.94 L 808.52,429.00 L 808.63,429.00 L 809.38,428.51 L 809.83,428.19 L 811.20,427.11 L 811.95,426.50 L 813.87,424.90 L 814.88,424.03 L 817.27,421.97 L 818.52,420.88 L 821.30,418.42 L 822.74,417.15 L 825.85,414.35 L 827.44,412.92 L 830.79,409.87 L 836.02,405.06 L 861.89,381.11 L 854.69,377.25 L 854.45,377.12 L 853.76,376.75 L 853.39,376.55 L 852.47,376.07 L 851.49,375.55 L 848.88,374.17 L 847.48,373.44 L 844.12,371.67 L 842.36,370.75 L 838.37,368.66 L 836.31,367.58 L 831.83,365.23 L 829.53,364.03 L 824.66,361.49 L 809.24,353.44 L 806.95,352.25 L 802.77,350.07 L 800.74,349.01 L 797.07,347.09 L 795.30,346.16 L 792.11,344.49 L 790.58,343.68 L 787.84,342.23 L 786.52,341.53 L 784.20,340.29 L 783.09,339.69 L 781.16,338.64 L 780.24,338.13 L 778.67,337.25 L 777.92,336.82 L 776.67,336.09 L 776.09,335.74 L 775.13,335.14 L 774.69,334.86 L 774.00,334.38 L 773.38,333.92 L 772.79,333.27 L 772.58,332.98 L 772.65,332.55 L 773.22,332.00 L 773.53,331.79 L 774.52,331.08 L 775.05,330.68 L 776.37,329.68 L 780.78,326.20 L 786.10,321.90 L 802.24,326.03 L 818.38,330.16 L 828.07,325.51 L 829.00,325.07 L 830.67,324.29 L 831.47,323.93 L 832.91,323.30 L 834.30,322.71 L 836.53,321.92 L 837.57,321.59 L 839.31,321.26 L 841.63,321.18 L 842.48,321.25 L 843.68,321.44 L 844.21,321.55 L 844.90,321.92 L 845.19,322.14 L 845.53,322.82 L 845.82,324.31 L 845.87,324.69 L 845.78,325.72 L 845.71,326.26 L 845.42,327.49 L 844.01,331.20 L 843.71,331.78 L 843.24,332.78 L 843.03,333.25 L 842.77,334.06 L 842.66,334.44 L 842.61,335.07 L 842.61,335.37 L 842.79,335.86 L 842.92,336.09 L 843.34,336.48 L 843.58,336.66 L 844.27,336.95 L 844.64,337.10 L 845.60,337.34 L 847.36,337.67 L 848.10,337.79 L 849.48,337.82 L 850.17,337.79 L 851.64,337.48 L 852.42,337.27 L 854.25,336.54 L 857.69,334.90 L 858.98,334.25 L 861.17,333.27 L 862.21,332.83 L 864.11,332.23 L 865.04,331.98 L 866.90,331.68 L 869.91,331.52 L 870.59,331.52 L 871.70,331.52 L 872.22,331.53 L 873.06,331.57 L 873.84,331.62 L 874.77,331.89 L 875.15,332.07 L 875.52,332.72 L 875.82,334.30 L 875.87,334.69 L 875.79,335.66 L 875.72,336.17 L 875.45,337.30 L 874.08,340.58 L 873.71,341.21 L 873.20,342.22 L 872.98,342.68 L 872.78,343.37 L 872.71,343.68 L 872.80,344.10 L 873.26,344.48 L 873.35,344.51 L 873.74,344.62 L 873.98,344.69 L 874.65,344.87 L 875.37,345.07 L 877.50,345.64 L 878.65,345.95 L 881.40,346.68 L 885.94,347.87 L 897.38,350.87 L 900.44,348.70 L 900.65,348.55 L 901.33,348.06 L 901.71,347.79 L 902.69,347.08 L 903.22,346.70 L 904.46,345.79 L 905.11,345.32 L 906.57,344.26 L 908.07,343.17 L 911.52,340.65 L 917.00,336.63 L 918.97,335.18 L 922.76,332.53 L 924.63,331.24 L 928.24,328.90 L 930.02,327.77 L 933.46,325.73 L 935.17,324.74 L 938.45,323.00 L 940.08,322.16 L 943.23,320.70 L 944.79,320.01 L 947.82,318.83 L 949.32,318.27 L 952.24,317.36 L 956.53,316.30 L 958.24,315.95 L 961.17,315.50 L 962.56,315.32 L 964.86,315.24 M 642.80,478.88 L 643.13,479.08 L 643.51,479.68 L 643.56,479.86 L 643.20,479.20 L 642.87,478.95 L 642.23,478.63 M 640.11,478.26 L 641.44,478.44 L 642.04,478.54 L 642.05,478.55 L 641.49,478.45 L 640.12,478.26 L 639.13,478.19 L 634.84,477.88 L 639.17,478.19 M 396.00,454.01 L 395.74,456.53 L 396.00,454.01 L 396.00,452.70 L 396.29,450.37 L 396.00,452.70 M 615.38,453.19 L 615.29,452.82 L 615.00,451.10 L 615.00,450.00 L 615.00,449.86 L 615.03,450.26 L 615.13,451.22 L 615.44,452.85 L 615.52,453.20 L 615.71,453.69 L 616.00,454.00 L 615.61,453.68 M 583.03,446.85 L 583.04,447.21 L 583.04,448.84 L 583.00,449.55 L 583.00,448.47 L 583.02,446.86 L 583.02,446.80 M 614.34,443.69 L 614.89,444.84 L 614.99,445.09 L 615.13,445.46 L 615.17,445.75 L 615.08,445.88 L 614.97,446.40 L 614.96,446.51 L 614.92,445.67 L 614.84,445.21 L 614.63,444.36 L 614.45,443.94 L 614.11,443.26 M 583.51,444.05 L 583.55,443.94 L 583.86,443.34 M 613.93,442.92 L 613.70,442.50 L 612.83,440.52 L 612.36,439.09 L 612.91,440.66 M 584.41,442.31 L 584.18,442.73 L 584.30,442.50 L 584.43,442.27 M 388.18,478.29 L 390.70,478.00 L 390.70,478.00 Z" fill="rgba(17,164,213,1)"/>
<path d="M 383.16,262.45 L 383.33,263.17 L 383.40,263.69 L 383.55,264.83 L 383.61,265.52 L 383.72,266.96 L 383.75,267.75 L 383.89,270.57 L 384.01,272.81 L 384.08,274.01 L 384.38,278.94 L 384.53,281.00 L 384.65,282.95 L 384.75,284.64 L 384.81,285.64 L 384.92,287.75 L 384.98,288.94 L 385.11,291.39 L 385.17,292.73 L 385.44,298.30 L 385.58,301.30 L 385.85,307.38 L 385.98,310.39 L 386.89,332.27 L 383.49,337.58 L 379.53,344.12 L 376.97,348.69 L 375.75,351.06 L 370.99,360.71 L 368.91,365.64 L 366.88,370.57 L 365.96,373.01 L 364.19,377.90 L 363.41,380.29 L 361.92,385.03 L 361.29,387.33 L 360.12,391.85 L 359.67,394.01 L 359.33,395.82 L 359.09,397.27 L 358.97,398.10 L 358.46,401.67 L 358.21,403.70 L 357.24,412.38 L 356.92,416.50 L 356.36,429.09 L 356.44,437.24 L 356.71,441.22 L 357.40,449.10 L 357.97,452.95 L 359.27,460.60 L 360.14,464.34 L 360.88,467.85 L 361.24,469.97 L 361.35,470.84 L 361.52,472.46 L 361.53,473.01 L 361.47,473.91 L 361.36,474.03 L 360.86,474.28 L 360.22,474.52 L 359.76,474.67 L 358.76,475.00 L 358.13,475.19 L 356.81,475.58 L 356.05,475.80 L 352.73,476.74 L 350.77,477.26 L 346.68,478.33 L 344.48,478.89 L 332.90,481.99 L 325.41,484.18 L 321.90,485.30 L 315.05,487.55 L 311.98,488.67 L 308.98,489.78 L 307.59,490.32 L 304.89,491.40 L 303.67,491.93 L 301.09,493.02 L 300.15,493.39 L 299.30,493.73 L 299.01,493.84 L 298.54,494.00 L 298.50,494.00 L 298.18,493.39 L 297.88,492.42 L 297.69,491.69 L 297.28,490.09 L 297.05,489.10 L 296.58,487.00 L 296.32,485.81 L 295.26,480.71 L 294.73,477.92 L 293.69,472.25 L 293.25,469.57 L 292.85,466.64 L 292.60,464.45 L 292.49,463.25 L 292.10,458.20 L 291.96,455.36 L 291.71,449.49 L 291.64,446.37 L 291.54,440.03 L 291.55,436.79 L 291.60,430.30 L 291.68,427.11 L 291.87,420.81 L 292.02,417.84 L 292.36,412.06 L 292.59,409.47 L 292.82,406.95 L 292.95,405.78 L 293.22,403.52 L 293.37,402.50 L 295.63,389.36 L 297.44,380.79 L 298.50,376.62 L 300.72,368.34 L 301.97,364.32 L 304.58,356.36 L 306.03,352.51 L 309.02,344.90 L 310.65,341.24 L 314.01,334.01 L 315.82,330.54 L 319.54,323.71 L 321.52,320.46 L 325.59,314.06 L 327.75,311.03 L 330.97,306.78 L 333.49,303.65 L 334.90,302.00 L 340.81,295.20 L 343.92,291.87 L 347.03,288.58 L 348.54,287.04 L 351.53,284.03 L 352.92,282.69 L 355.63,280.14 L 356.82,279.10 L 359.09,277.17 L 360.00,276.50 L 362.52,274.72 L 364.60,273.31 L 365.77,272.54 L 370.72,269.30 L 373.18,267.74 L 375.61,266.21 L 376.72,265.53 L 378.85,264.22 L 379.73,263.70 L 381.35,262.75 L 381.90,262.46 L 382.40,262.20 L 382.57,262.12 L 382.85,262.00 L 382.91,262.00 M 643.20,479.20 L 643.20,479.20 L 642.93,479.00 M 642.87,478.95 L 642.87,478.96 L 642.77,478.91 M 649.94,256.64 L 654.80,259.93 L 663.95,267.02 L 676.80,278.38 L 679.07,280.58 L 683.43,285.11 L 685.58,287.39 L 689.69,292.07 L 691.72,294.44 L 695.57,299.29 L 697.47,301.74 L 701.08,306.76 L 702.85,309.29 L 706.21,314.48 L 707.85,317.09 L 710.96,322.45 L 712.48,325.15 L 715.34,330.67 L 716.73,333.46 L 719.34,339.16 L 720.61,342.03 L 722.97,347.89 L 724.12,350.85 L 726.23,356.89 L 727.25,359.94 L 729.11,366.15 L 730.01,369.28 L 731.63,375.67 L 732.40,378.89 L 733.77,385.45 L 734.42,388.76 L 735.54,395.50 L 736.07,398.89 L 736.94,405.81 L 737.98,416.40 L 738.26,419.99 L 738.65,427.27 L 738.81,430.86 L 738.95,437.58 L 738.97,439.20 L 738.95,442.19 L 738.94,443.64 L 738.86,446.25 L 738.81,447.49 L 738.67,449.61 L 738.37,452.16 L 737.77,455.81 L 726.26,458.98 L 724.89,459.36 L 721.86,460.15 L 720.29,460.56 L 716.93,461.39 L 713.49,462.24 L 705.94,463.98 L 702.10,464.86 L 694.18,466.58 L 690.22,467.43 L 682.50,469.01 L 680.62,469.39 L 676.98,470.11 L 675.19,470.46 L 671.80,471.10 L 670.14,471.40 L 667.08,471.95 L 665.59,472.21 L 662.93,472.66 L 661.65,472.86 L 659.45,473.19 L 658.42,473.33 L 656.76,473.52 L 656.01,473.60 L 654.97,473.64 L 654.18,473.51 L 654.13,473.46 L 654.20,472.67 L 654.26,472.18 L 654.52,470.66 L 654.67,469.82 L 655.09,467.77 L 655.86,464.32 L 656.66,460.88 L 657.90,454.14 L 658.46,450.79 L 659.21,444.14 L 659.53,440.82 L 659.80,434.15 L 659.70,424.00 L 659.49,419.27 L 658.44,409.99 L 657.81,405.38 L 655.93,396.39 L 654.89,391.93 L 652.24,383.25 L 650.81,378.96 L 647.41,370.65 L 645.62,366.54 L 641.51,358.63 L 639.72,355.35 L 640.94,357.32 L 643.00,361.00 L 644.56,363.75 L 645.43,365.21 L 645.74,365.71 L 646.28,366.54 L 646.41,366.68 L 646.55,366.77 L 646.45,366.50 L 645.86,364.30 L 645.53,362.56 L 645.46,361.82 L 645.08,359.55 L 644.71,358.19 L 644.52,357.82 L 644.41,357.51 L 644.51,357.52 L 644.64,357.62 L 644.94,357.90 L 645.15,358.13 L 645.61,358.66 L 645.90,359.00 L 647.19,360.82 L 648.19,362.44 L 648.73,363.41 L 649.84,365.45 L 650.42,366.59 L 651.60,368.94 L 652.19,370.19 L 654.56,375.34 L 655.63,377.93 L 656.67,380.50 L 657.13,381.73 L 658.02,384.14 L 658.38,385.25 L 659.49,388.95 L 660.23,391.72 L 660.60,393.23 L 662.03,399.54 L 662.68,402.90 L 663.90,409.68 L 664.38,412.95 L 664.82,416.19 L 665.00,417.72 L 665.33,420.72 L 665.44,422.10 L 665.60,425.70 L 665.61,428.50 L 665.57,430.05 L 665.32,436.56 L 665.05,439.99 L 664.43,446.86 L 664.02,449.98 L 663.60,453.02 L 663.37,454.37 L 662.90,456.97 L 662.65,458.05 L 662.15,460.31 L 661.92,461.58 L 661.85,462.11 L 661.74,463.10 L 661.74,463.50 L 661.78,464.24 L 661.85,464.53 L 662.29,465.47 L 662.75,465.70 L 663.84,466.00 L 664.64,466.00 L 665.74,465.90 L 666.86,465.74 L 667.58,465.62 L 669.15,465.35 L 670.07,465.18 L 672.02,464.81 L 673.12,464.59 L 675.39,464.14 L 676.63,463.88 L 679.17,463.36 L 680.52,463.07 L 686.11,461.88 L 689.07,461.22 L 695.06,459.89 L 698.04,459.20 L 703.95,457.83 L 706.71,457.17 L 712.06,455.87 L 714.36,455.29 L 716.59,454.71 L 717.57,454.45 L 719.46,453.94 L 720.26,453.71 L 731.50,450.50 L 731.82,438.00 L 731.63,422.52 L 730.95,412.08 L 730.33,406.85 L 728.93,396.39 L 727.97,391.21 L 725.88,380.86 L 724.59,375.79 L 721.86,365.70 L 720.26,360.80 L 716.91,351.11 L 715.02,346.45 L 711.10,337.29 L 708.93,332.95 L 704.46,324.45 L 702.04,320.50 L 697.35,313.39 L 693.74,308.38 L 691.73,305.79 L 687.61,300.56 L 685.41,297.91 L 680.91,292.62 L 678.57,290.00 L 673.84,284.79 L 671.44,282.28 L 666.61,277.32 L 664.20,274.98 L 659.41,270.41 L 657.08,268.33 L 652.46,264.31 L 650.27,262.57 L 648.21,260.91 L 647.07,259.95 L 646.60,259.54 L 645.73,258.77 L 645.39,258.43 L 644.77,257.80 L 644.54,257.52 L 643.85,256.53 L 643.78,256.13 L 643.81,255.36 L 644.01,254.97 L 644.31,253.90 L 644.11,253.22 L 643.76,252.83 L 643.02,252.15 M 515.01,357.63 L 515.29,358.06 L 515.85,359.45 L 516.51,362.07 L 516.65,362.89 L 516.99,364.16 L 517.18,364.74 L 517.71,365.64 L 518.01,366.06 L 518.83,366.75 L 520.51,367.71 L 521.42,368.14 L 522.72,369.16 L 522.98,369.41 L 523.29,369.87 L 523.38,370.45 L 523.30,370.66 L 523.34,371.40 L 523.40,371.81 L 523.67,372.83 L 524.00,373.90 L 525.08,376.38 L 525.65,377.59 L 526.89,379.60 L 527.18,380.02 L 527.72,380.62 L 528.39,381.00 L 528.65,381.00 L 529.29,381.20 L 529.62,381.33 L 530.34,381.74 L 531.08,382.19 L 532.51,383.41 L 533.16,384.02 L 534.00,385.17 L 534.14,385.42 L 534.21,385.82 L 533.92,386.19 L 533.70,386.27 L 533.57,386.68 L 533.55,386.93 L 533.84,387.70 L 534.04,388.14 L 534.76,389.30 L 536.35,391.50 L 536.86,392.17 L 537.75,393.51 L 538.16,394.16 L 538.81,395.37 L 539.10,395.94 L 539.44,396.87 L 539.52,397.82 L 539.37,398.21 L 539.65,399.23 L 540.73,400.60 L 541.28,401.01 L 541.69,401.59 L 541.73,401.70 L 541.64,401.86 L 541.24,401.97 L 541.03,401.97 L 540.86,402.24 L 540.81,402.42 L 540.95,403.02 L 541.05,403.36 L 541.49,404.27 L 542.49,405.98 L 543.18,407.07 L 544.26,409.37 L 544.49,409.91 L 544.80,410.85 L 545.00,411.92 L 545.00,412.46 L 545.33,413.51 L 546.11,414.57 L 546.50,414.81 L 546.69,415.26 L 546.03,415.98 L 545.90,416.06 L 545.72,416.62 L 545.64,416.96 L 545.58,418.03 L 545.57,418.64 L 545.64,420.23 L 545.68,421.09 L 545.87,423.20 L 545.98,424.33 L 546.30,426.97 L 546.47,428.35 L 546.91,431.52 L 547.14,433.17 L 547.71,436.86 L 548.69,443.00 L 549.27,446.50 L 550.13,443.50 L 550.37,442.67 L 550.89,440.28 L 551.49,436.74 L 551.59,435.97 L 552.01,434.03 L 552.25,433.00 L 552.88,430.69 L 553.56,428.32 L 555.30,423.28 L 555.74,422.06 L 556.63,419.78 L 557.07,418.69 L 557.90,416.81 L 558.31,415.94 L 559.02,414.65 L 559.87,413.58 L 560.00,413.50 L 560.28,413.07 L 560.42,412.81 L 560.71,412.08 L 561.48,409.26 L 561.67,408.23 L 562.21,406.31 L 562.35,405.88 L 562.62,405.19 L 562.99,404.50 L 563.22,404.22 L 563.69,403.06 L 564.23,401.00 L 564.33,400.42 L 564.48,399.69 L 564.55,399.39 L 564.70,399.19 L 564.78,399.15 L 564.98,399.47 L 565.41,400.50 L 567.03,404.50 L 567.27,405.05 L 567.82,406.85 L 568.51,409.68 L 568.68,410.56 L 569.37,412.28 L 570.56,414.05 L 570.96,414.38 L 571.58,415.31 L 572.00,416.67 L 572.00,417.06 L 572.43,418.51 L 573.46,420.91 L 573.86,421.69 L 574.62,423.60 L 575.37,426.12 L 575.43,426.44 L 575.67,427.33 L 575.81,427.80 L 576.15,428.86 L 577.38,432.12 L 577.80,433.12 L 578.32,434.83 L 578.41,435.21 L 578.48,435.77 L 578.41,436.26 L 578.34,436.33 L 578.38,437.09 L 578.43,437.56 L 578.67,438.94 L 578.80,439.69 L 579.18,441.48 L 579.39,442.40 L 579.85,444.37 L 580.09,445.35 L 580.59,447.28 L 580.84,448.21 L 581.32,449.86 L 581.55,450.64 L 581.96,451.80 L 582.42,452.75 L 582.48,452.82 L 582.60,452.62 L 582.66,452.48 L 582.76,451.97 L 582.86,451.39 L 582.99,449.70 L 583.04,448.84 L 583.04,447.21 L 583.03,446.85 L 582.97,446.28 L 582.83,445.75 L 582.81,445.72 L 582.87,445.46 L 582.92,445.30 L 583.11,444.84 L 584.03,443.00 L 584.41,442.31 L 585.09,440.66 L 585.72,438.55 L 585.81,438.02 L 586.35,436.72 L 587.41,435.05 L 587.78,434.63 L 588.57,433.30 L 589.45,431.25 L 589.64,430.63 L 590.33,429.66 L 591.50,429.00 L 591.79,429.00 L 592.43,428.52 L 592.75,428.21 L 593.35,427.28 L 593.64,426.77 L 594.08,425.60 L 594.45,423.79 L 594.46,423.60 L 594.97,422.91 L 596.17,421.79 L 596.62,421.44 L 597.47,420.29 L 598.26,418.50 L 598.35,418.05 L 598.52,417.50 L 598.60,417.29 L 598.79,417.25 L 598.89,417.29 L 599.17,417.77 L 599.77,419.11 L 600.06,419.83 L 601.03,421.15 L 602.57,422.39 L 603.04,422.57 L 603.60,423.03 L 603.68,423.66 L 603.47,423.87 L 603.55,424.75 L 603.67,425.25 L 604.27,426.46 L 604.62,427.08 L 605.56,428.30 L 607.16,429.81 L 607.67,430.17 L 608.46,431.06 L 609.00,432.23 L 609.00,432.53 L 609.43,433.49 L 610.48,434.97 L 610.88,435.42 L 611.61,436.70 L 612.28,438.55 L 612.36,439.09 L 612.83,440.52 L 613.70,442.50 L 614.03,443.09 L 614.45,443.94 L 614.63,444.36 L 614.84,445.21 L 614.92,445.67 L 614.98,446.99 L 614.99,447.37 L 615.00,448.30 L 615.00,450.00 L 615.00,451.10 L 615.29,452.82 L 615.38,453.19 L 615.61,453.68 L 616.00,454.00 L 616.14,454.00 L 616.39,453.74 L 616.51,453.57 L 616.71,453.04 L 617.00,450.72 L 617.00,449.84 L 617.36,448.11 L 617.61,447.25 L 618.47,445.53 L 618.96,444.67 L 620.33,442.93 L 622.98,440.30 L 625.50,438.08 L 629.19,442.15 L 629.94,442.97 L 631.06,444.41 L 631.57,445.12 L 632.30,446.52 L 632.62,447.24 L 633.07,448.86 L 633.57,451.85 L 633.75,453.41 L 634.21,456.12 L 634.33,456.72 L 634.54,457.64 L 634.81,458.46 L 634.89,458.59 L 635.01,459.56 L 635.07,460.14 L 635.13,461.85 L 635.16,462.77 L 635.17,464.99 L 635.11,468.65 L 635.00,472.41 L 635.00,467.25 L 630.25,466.71 L 627.70,466.37 L 625.50,466.06 L 624.25,465.86 L 618.98,465.03 L 616.50,464.60 L 612.91,463.99 L 610.71,463.63 L 609.78,463.49 L 608.05,463.23 L 607.45,463.15 L 606.42,463.02 L 606.25,463.02 L 605.68,463.43 L 605.39,464.15 L 605.29,464.75 L 605.12,466.12 L 605.07,467.08 L 605.00,469.16 L 605.00,467.97 L 604.93,465.79 L 604.88,464.74 L 604.71,462.94 L 604.61,462.09 L 604.33,460.65 L 604.17,459.97 L 603.76,458.87 L 603.53,458.35 L 602.98,457.55 L 602.69,457.19 L 601.99,456.66 L 601.62,456.43 L 600.76,456.16 L 599.27,456.00 L 598.63,456.00 L 597.53,456.12 L 597.01,456.20 L 596.13,456.53 L 595.72,456.72 L 595.04,457.28 L 594.72,457.60 L 594.22,458.46 L 593.99,458.93 L 593.64,460.12 L 593.48,460.76 L 593.26,462.32 L 593.17,463.16 L 593.06,465.15 L 593.00,468.65 L 593.00,460.45 L 562.25,455.17 L 550.14,453.05 L 546.43,452.39 L 544.72,452.07 L 541.39,451.46 L 539.90,451.18 L 537.04,450.64 L 535.81,450.41 L 533.51,449.96 L 532.60,449.77 L 530.95,449.42 L 530.40,449.29 L 529.48,449.07 L 529.33,449.01 L 528.31,448.68 L 527.75,448.63 L 527.52,448.72 L 527.10,449.00 L 526.93,449.28 L 526.63,449.97 L 526.52,450.49 L 526.32,451.68 L 526.25,452.49 L 526.13,454.27 L 526.09,455.41 L 526.03,457.87 L 526.02,459.40 L 526.00,462.64 L 526.00,439.80 L 522.60,436.40 L 521.64,435.44 L 519.57,434.12 L 518.51,433.56 L 516.27,433.03 L 515.13,432.86 L 512.75,433.14 L 509.09,434.46 L 508.43,434.79 L 507.33,435.54 L 506.80,435.94 L 505.94,436.90 L 505.53,437.42 L 504.87,438.70 L 504.56,439.39 L 504.09,441.12 L 503.87,442.04 L 503.55,444.32 L 503.41,445.54 L 503.22,448.49 L 503.14,450.06 L 503.05,453.79 L 503.00,460.40 L 503.00,444.00 L 499.75,443.96 L 497.98,443.84 L 496.43,443.65 L 495.55,443.52 L 491.79,442.89 L 490.00,442.50 L 487.10,441.87 L 485.52,441.55 L 484.90,441.44 L 483.74,441.25 L 483.30,441.22 L 482.50,441.18 L 482.20,441.22 L 481.69,441.34 L 481.52,441.46 L 481.22,441.75 L 481.14,441.96 L 480.93,442.96 L 480.90,443.75 L 480.80,446.50 L 480.01,444.06 L 480.18,443.92 L 480.35,443.69 L 480.70,442.63 L 480.89,441.99 L 481.29,440.11 L 481.49,439.07 L 481.95,436.35 L 482.69,431.34 L 482.88,429.97 L 483.21,427.54 L 483.36,426.38 L 483.61,424.36 L 483.72,423.39 L 483.89,421.73 L 483.96,420.94 L 484.06,419.63 L 484.09,419.01 L 484.11,418.01 L 484.11,417.55 L 484.06,416.84 L 483.64,415.67 L 483.22,415.37 L 483.04,414.92 L 483.75,414.34 L 484.09,414.20 L 484.63,413.35 L 485.01,411.67 L 485.01,411.37 L 485.17,410.59 L 485.27,410.18 L 485.59,409.26 L 486.99,406.50 L 487.54,405.67 L 488.23,403.87 L 488.36,403.44 L 488.48,402.67 L 488.42,401.75 L 488.27,401.27 L 488.34,400.51 L 488.93,400.00 L 489.23,400.00 L 489.69,399.37 L 490.00,397.85 L 490.00,397.56 L 490.29,396.66 L 490.48,396.17 L 491.09,395.01 L 493.71,391.17 L 494.29,390.47 L 495.19,389.24 L 495.59,388.67 L 496.12,387.74 L 496.33,387.31 L 496.47,386.72 L 496.21,386.24 L 495.78,386.09 L 495.28,385.65 L 495.09,385.41 L 495.04,384.90 L 495.07,384.66 L 495.46,384.27 L 496.50,384.00 L 496.91,384.00 L 497.56,383.71 L 498.00,383.02 L 498.00,382.75 L 498.71,382.15 L 500.40,381.44 L 500.83,381.33 L 501.62,380.87 L 502.00,380.60 L 502.74,379.79 L 503.10,379.33 L 503.82,378.10 L 504.92,375.74 L 505.26,374.92 L 505.75,373.52 L 505.97,372.87 L 506.22,371.80 L 506.31,371.32 L 506.31,370.62 L 506.01,370.01 L 505.87,369.92 L 505.89,369.65 L 505.95,369.51 L 506.32,369.16 L 506.55,368.98 L 507.22,368.58 L 508.50,368.00 L 509.17,367.74 L 510.23,367.17 L 510.72,366.87 L 511.48,366.16 L 511.82,365.78 L 512.36,364.84 L 513.00,363.06 L 513.27,362.08 L 513.70,360.16 L 513.79,359.72 L 513.91,358.98 L 513.99,358.19 L 514.00,357.84 L 514.08,357.39 L 514.13,357.21 L 514.30,357.07 L 514.49,357.00 M 363.32,436.52 L 363.46,439.52 L 363.96,445.50 L 364.25,448.48 L 365.05,454.30 L 365.49,457.19 L 366.43,461.92 L 365.89,459.72 L 364.56,452.33 L 364.13,448.56 L 363.40,440.96 L 363.27,437.04 L 363.20,432.57 M 447.73,451.98 L 448.04,450.93 L 448.21,450.35 L 448.60,448.86 L 448.77,448.23 L 448.76,448.25 L 448.32,449.98 L 448.13,450.66 L 447.77,451.87 L 447.64,452.22 L 447.42,452.76 L 447.42,452.75 L 447.61,452.29 M 465.21,400.50 L 465.50,401.32 L 466.18,402.91 L 467.02,404.50 L 467.12,404.64 L 467.37,405.22 L 467.49,405.55 L 467.75,406.43 L 468.46,409.67 L 468.65,410.82 L 469.37,412.78 L 469.56,413.21 L 469.97,413.85 L 470.57,414.39 L 470.97,414.54 L 471.58,415.24 L 472.00,416.52 L 472.00,416.95 L 472.43,418.46 L 473.46,420.91 L 473.86,421.69 L 474.62,423.65 L 475.37,426.28 L 475.50,426.98 L 476.02,428.67 L 476.93,430.86 L 477.08,431.14 L 477.38,431.99 L 477.54,432.45 L 477.82,433.57 L 478.45,437.21 L 478.59,438.54 L 478.86,440.63 L 478.99,441.58 L 479.01,441.67 L 478.64,441.26 L 478.35,441.07 L 477.72,440.71 L 477.27,440.54 L 476.29,440.22 L 475.63,440.06 L 474.19,439.73 L 473.26,439.54 L 471.26,439.17 L 470.02,438.95 L 467.34,438.49 L 465.72,438.22 L 460.58,437.41 L 457.51,437.00 L 456.26,436.87 L 455.07,436.75 L 454.56,436.71 L 453.60,436.64 L 453.23,436.63 L 452.56,436.62 L 452.34,436.64 L 451.98,436.69 L 451.94,436.75 L 451.53,437.65 L 451.16,438.79 L 450.94,439.56 L 450.47,441.22 L 450.23,442.19 L 450.09,442.75 L 450.58,440.56 L 450.79,439.61 L 451.16,437.83 L 451.60,435.50 L 451.67,435.09 L 452.00,433.78 L 452.19,433.07 L 452.70,431.32 L 454.63,425.50 L 455.33,423.57 L 456.58,419.97 L 456.86,419.15 L 457.31,417.83 L 457.73,416.50 L 457.90,415.95 L 458.52,414.87 L 459.57,413.75 L 459.74,413.65 L 460.11,413.14 L 460.30,412.85 L 460.65,412.05 L 461.50,409.00 L 461.68,407.91 L 462.24,406.02 L 462.39,405.60 L 462.68,404.98 L 463.09,404.45 L 463.21,404.37 L 463.45,403.98 L 463.56,403.75 L 463.75,403.11 L 464.08,400.69 L 464.16,397.50 M 430.37,417.16 L 430.65,417.63 L 431.32,418.99 L 431.64,419.68 L 432.67,421.27 L 434.25,423.24 L 434.73,423.73 L 435.49,424.89 L 436.00,426.38 L 436.00,426.58 L 436.20,427.05 L 436.33,427.30 L 436.74,427.85 L 438.53,429.43 L 439.23,429.89 L 440.17,430.85 L 440.35,431.07 L 440.55,431.47 L 440.54,431.93 L 440.40,432.16 L 440.58,432.86 L 441.41,433.92 L 441.61,434.09 L 442.06,434.74 L 442.30,435.11 L 442.81,436.12 L 443.32,437.19 L 444.38,440.03 L 444.46,440.24 L 444.27,439.73 L 443.16,436.99 L 442.62,436.00 L 442.08,435.08 L 441.83,434.76 L 441.34,434.21 L 441.12,434.10 L 439.98,433.72 L 438.80,433.44 L 438.07,433.30 L 434.79,432.76 L 433.00,432.57 L 427.77,431.66 L 426.27,431.27 L 425.68,431.06 L 424.63,430.65 L 424.33,430.46 L 422.93,429.70 L 422.55,429.70 L 422.35,429.82 L 422.11,430.02 L 422.25,429.81 L 422.62,429.43 L 423.61,429.00 L 423.81,429.00 L 424.22,428.76 L 424.43,428.61 L 424.81,428.12 L 425.66,425.96 L 425.82,425.13 L 426.63,423.53 L 428.13,421.93 L 428.65,421.65 L 429.47,420.57 L 430.07,418.71 L 430.08,418.18 L 430.13,417.51 L 430.16,417.25 L 430.29,417.14 M 627.25,430.37 L 627.87,430.54 L 629.21,430.80 L 630.75,430.99 L 631.09,430.99 L 631.63,431.24 L 632.00,431.83 L 632.00,432.06 L 631.63,432.42 L 630.75,432.68 L 630.41,432.68 L 629.21,432.90 L 627.25,433.41 L 626.78,433.56 L 626.11,433.69 L 625.81,433.72 L 625.42,433.59 L 625.26,433.48 L 625.09,433.03 L 625.02,432.76 L 625.00,431.95 L 625.00,431.51 L 625.09,430.89 L 625.16,430.62 L 625.44,430.31 L 625.61,430.19 L 626.13,430.16 M 431.80,400.16 L 432.11,400.26 L 433.06,400.59 L 433.58,400.77 L 434.85,401.22 L 437.00,402.00 L 438.50,402.55 L 441.40,403.41 L 442.06,403.59 L 443.16,403.84 L 444.29,404.00 L 444.80,404.00 L 445.40,404.30 L 445.47,405.05 L 445.29,405.34 L 444.53,405.72 L 443.16,405.87 L 442.77,405.82 L 441.42,405.97 L 440.67,406.08 L 438.82,406.51 L 432.75,408.50 L 432.37,408.65 L 431.84,408.71 L 431.60,408.69 L 431.31,408.28 L 431.18,408.01 L 431.06,406.99 L 431.01,406.39 L 431.00,404.61 L 431.00,403.34 L 431.08,401.35 L 431.10,400.94 L 431.16,400.36 L 431.26,400.00 L 431.30,400.00 M 599.80,400.16 L 600.11,400.26 L 601.06,400.59 L 601.58,400.77 L 602.85,401.22 L 605.00,402.00 L 606.50,402.55 L 609.60,403.42 L 610.33,403.61 L 611.58,403.86 L 612.99,404.03 L 613.53,404.04 L 614.24,404.08 L 614.53,404.11 L 614.76,404.23 L 614.81,404.31 L 614.58,404.54 L 613.76,405.08 L 613.28,405.36 L 612.16,405.73 L 610.76,405.89 L 610.41,405.83 L 609.43,405.91 L 608.00,406.25 L 607.59,406.41 L 606.35,406.79 L 604.50,407.30 L 603.95,407.43 L 602.57,407.85 L 600.75,408.49 L 600.37,408.65 L 599.84,408.71 L 599.60,408.69 L 599.31,408.28 L 599.18,408.01 L 599.06,406.99 L 599.01,406.39 L 599.00,404.61 L 599.00,403.34 L 599.08,401.35 L 599.10,400.94 L 599.16,400.36 L 599.26,400.00 L 599.30,400.00 M 366.17,399.20 L 366.59,397.05 L 367.43,393.78 L 367.48,393.61 M 466.75,377.52 L 467.23,377.72 L 468.87,378.33 L 471.50,379.27 L 472.32,379.55 L 474.21,380.23 L 476.50,381.08 L 476.77,381.18 L 477.59,381.43 L 478.03,381.56 L 479.08,381.82 L 482.47,382.51 L 483.28,382.65 L 484.39,382.89 L 484.86,383.00 L 485.34,383.23 L 485.51,383.35 L 485.41,383.63 L 484.70,384.15 L 484.22,384.41 L 482.97,384.75 L 481.23,384.83 L 480.76,384.75 L 479.13,384.95 L 476.50,385.63 L 475.36,386.04 L 472.99,386.86 L 471.83,387.25 L 469.67,387.94 L 468.65,388.25 L 467.05,388.71 L 466.70,388.80 L 466.18,388.92 L 465.68,389.00 L 465.59,389.00 L 465.42,388.52 L 465.33,388.21 L 465.20,387.21 L 465.14,386.65 L 465.05,385.26 L 465.02,384.53 L 465.00,382.89 L 465.00,382.21 L 465.01,381.08 L 465.02,380.54 L 465.05,379.67 L 465.10,378.86 L 465.29,377.93 L 465.41,377.55 L 465.82,377.32 M 566.75,377.52 L 567.23,377.72 L 568.87,378.33 L 571.50,379.27 L 572.32,379.55 L 574.21,380.23 L 576.50,381.08 L 576.77,381.18 L 577.59,381.43 L 578.03,381.56 L 579.08,381.82 L 582.47,382.51 L 583.28,382.65 L 584.39,382.89 L 584.86,383.00 L 585.34,383.23 L 585.51,383.35 L 585.41,383.63 L 584.70,384.15 L 584.22,384.41 L 582.97,384.75 L 581.23,384.83 L 580.76,384.75 L 579.13,384.95 L 576.50,385.63 L 575.36,386.04 L 572.99,386.86 L 571.83,387.25 L 569.67,387.94 L 568.65,388.25 L 567.05,388.71 L 566.70,388.80 L 566.18,388.92 L 565.68,389.00 L 565.59,389.00 L 565.42,388.52 L 565.33,388.21 L 565.20,387.21 L 565.14,386.65 L 565.05,385.26 L 565.02,384.53 L 565.00,382.89 L 565.00,382.21 L 565.01,381.08 L 565.02,380.54 L 565.05,379.67 L 565.10,378.86 L 565.29,377.93 L 565.41,377.55 L 565.82,377.32 M 375.41,370.61 L 375.57,370.23 L 376.78,367.65 L 376.94,367.30 M 636.62,350.39 L 637.48,351.77 L 634.72,347.46 M 387.15,349.16 L 388.05,347.76 L 388.49,347.14 M 634.42,346.99 L 634.55,347.19 L 634.35,346.90 M 392.44,341.62 L 393.05,340.78 L 394.73,338.65 M 515.40,324.00 L 515.91,324.16 L 516.20,324.26 L 517.00,324.59 L 520.00,326.00 L 521.08,326.55 L 523.44,327.41 L 524.00,327.60 L 525.01,327.85 L 526.21,328.01 L 526.53,328.01 L 527.34,328.17 L 527.76,328.27 L 528.71,328.59 L 531.50,330.00 L 532.32,330.55 L 534.65,331.43 L 538.00,332.09 L 538.96,332.12 L 541.18,332.37 L 543.90,332.87 L 546.30,333.54 L 543.55,334.80 L 542.79,335.14 L 540.67,335.51 L 537.62,335.46 L 537.03,335.35 L 536.00,335.29 L 535.50,335.29 L 534.57,335.46 L 534.11,335.57 L 533.21,336.00 L 531.82,336.93 L 531.05,337.53 L 528.93,338.42 L 525.65,339.00 L 524.68,339.00 L 522.97,339.29 L 522.60,339.38 L 522.02,339.61 L 521.50,340.00 L 521.33,340.27 L 520.22,340.71 L 518.01,341.00 L 515.15,341.00 L 514.82,332.50 L 514.78,331.33 L 514.76,329.20 L 514.76,328.18 L 514.83,326.49 L 514.87,325.72 L 515.01,324.67 L 515.29,324.00 M 627.43,337.46 L 628.74,339.20 L 627.00,336.95 M 398.87,333.62 L 397.99,334.64 L 398.45,334.08 L 400.35,331.93 L 402.65,329.40 M 619.95,328.71 L 622.16,331.23 L 617.97,326.71 M 459.67,290.91 L 457.22,291.83 L 452.39,293.87 L 449.99,294.92 L 445.27,297.22 L 442.92,298.41 L 438.32,300.97 L 436.03,302.29 L 431.54,305.11 L 429.32,306.55 L 424.96,309.63 L 422.80,311.20 L 418.57,314.53 L 416.48,316.23 L 412.40,319.81 L 406.46,325.45 L 404.03,327.89 L 404.20,327.69 L 406.22,325.65 L 410.31,321.63 L 412.43,319.71 L 416.73,315.93 L 418.96,314.13 L 423.46,310.60 L 425.78,308.94 L 430.46,305.67 L 432.87,304.15 L 437.72,301.16 L 440.21,299.78 L 445.22,297.09 L 447.78,295.86 L 452.93,293.49 L 455.55,292.42 L 460.83,290.36 L 463.52,289.46 L 464.33,289.23 M 606.22,315.79 L 611.92,320.70 L 614.09,322.81 L 608.32,317.60 L 606.16,315.74 M 603.32,313.39 L 604.42,314.29 L 599.36,310.49 M 559.32,289.51 L 559.57,289.61 L 559.27,289.50 M 487.50,283.51 L 485.65,283.85 L 487.37,283.50 L 489.21,283.26 M 531.01,282.88 L 535.79,283.68 L 535.85,283.69 L 522.77,282.13 M 499.90,282.08 L 501.92,281.88 L 503.23,281.84 M 519.07,281.84 L 514.19,281.69 L 516.50,281.67 M 565.11,220.60 L 571.47,222.07 L 583.82,225.58 L 589.93,227.44 L 601.73,231.71 L 607.56,233.94 L 610.02,235.04 L 607.56,234.05 L 599.75,231.02 L 595.73,229.61 L 587.62,226.86 L 583.48,225.61 L 575.16,223.18 L 570.96,222.10 L 562.93,220.14 M 552.27,217.87 L 558.25,219.14 L 549.87,217.48 M 643.27,479.33 L 643.61,479.97 L 644.09,481.75 L 643.61,479.98 M 417.14,439.81 L 416.55,441.11 L 417.14,439.81 Z" fill="rgba(220,58,36,1)"/>
<path d="M 296.32,485.81 L 296.58,487.00 L 297.05,489.10 L 297.28,490.09 L 297.69,491.69 L 297.88,492.42 L 298.18,493.39 L 298.32,493.65 L 298.28,493.62 L 298.04,493.15 L 297.84,492.59 L 297.73,492.20 L 297.25,490.35 L 296.97,489.06 L 296.38,486.27 L 296.07,484.61 L 296.02,484.35 M 303.61,491.95 L 303.59,491.96 L 303.67,491.93 M 315.03,487.56 L 311.95,488.68 L 308.95,489.79 L 307.55,490.34 L 304.84,491.42 L 304.89,491.40 L 307.59,490.32 L 308.98,489.78 L 311.98,488.67 L 315.05,487.55 L 320.94,485.62 M 525.70,488.01 L 529.51,488.15 L 537.25,488.41 L 541.24,488.50 L 549.30,488.66 L 553.38,488.71 L 561.65,488.75 L 553.77,488.72 L 549.74,488.69 L 541.74,488.53 L 537.76,488.44 L 530.00,488.19 L 526.16,488.05 L 518.83,487.69 L 508.50,487.04 L 518.49,487.67 M 528.31,448.68 L 529.33,449.01 L 529.48,449.07 L 530.40,449.29 L 530.95,449.42 L 532.60,449.77 L 533.51,449.96 L 535.81,450.41 L 537.04,450.64 L 539.90,451.18 L 541.39,451.46 L 544.72,452.07 L 546.43,452.39 L 550.14,453.05 L 562.25,455.17 L 593.00,460.45 L 593.00,478.00 L 605.00,478.00 L 605.00,469.16 L 605.07,467.08 L 605.12,466.12 L 605.29,464.75 L 605.39,464.15 L 605.68,463.43 L 606.25,463.02 L 606.42,463.02 L 607.45,463.15 L 608.05,463.23 L 609.78,463.49 L 610.71,463.63 L 612.91,463.99 L 616.50,464.60 L 618.98,465.03 L 624.25,465.86 L 625.50,466.06 L 627.70,466.37 L 630.25,466.71 L 635.00,467.25 L 635.00,477.89 L 639.21,478.19 L 640.18,478.26 L 641.52,478.45 L 642.11,478.56 L 642.87,478.96 L 643.20,479.20 L 643.61,479.98 L 644.09,481.75 L 644.25,482.56 L 644.40,483.62 L 644.43,484.07 L 644.17,484.58 L 643.96,484.79 L 643.09,484.95 L 640.87,485.00 L 639.81,485.00 L 638.14,485.24 L 637.79,485.31 L 637.31,485.50 L 637.00,485.81 L 637.00,485.92 L 636.55,486.12 L 636.25,486.22 L 635.31,486.37 L 634.79,486.44 L 633.48,486.52 L 631.25,486.56 L 630.85,486.56 L 629.56,486.58 L 628.84,486.59 L 626.97,486.65 L 625.96,486.68 L 623.58,486.77 L 622.34,486.81 L 619.55,486.93 L 618.56,486.97 L 620.46,486.84 L 621.45,486.76 L 623.29,486.62 L 624.01,486.55 L 625.29,486.43 L 625.70,486.38 L 626.35,486.28 L 626.41,486.24 L 626.42,485.93 L 626.04,485.66 L 625.70,485.51 L 624.89,485.19 L 624.36,485.01 L 623.21,484.65 L 622.53,484.47 L 619.55,483.72 L 617.82,483.37 L 614.28,482.71 L 612.50,482.46 L 610.22,482.05 L 608.56,481.66 L 607.73,481.42 L 606.07,480.93 L 605.31,480.67 L 603.85,480.14 L 603.27,479.87 L 598.77,478.51 L 595.45,478.09 L 593.77,478.14 L 592.08,478.08 L 590.47,477.94 L 589.44,477.83 L 587.27,477.57 L 586.00,477.41 L 583.35,477.06 L 581.88,476.85 L 578.85,476.42 L 577.22,476.17 L 573.91,475.67 L 572.17,475.40 L 565.07,474.27 L 561.44,473.66 L 554.20,472.43 L 550.78,471.81 L 547.41,471.20 L 545.83,470.91 L 542.73,470.33 L 541.31,470.05 L 538.56,469.51 L 537.36,469.26 L 535.07,468.77 L 534.12,468.55 L 532.37,468.14 L 531.74,467.96 L 530.62,467.63 L 530.34,467.51 L 529.06,467.00 L 528.36,466.80 L 528.06,466.78 L 527.52,466.78 L 527.30,466.86 L 526.90,467.10 L 526.75,467.31 L 526.47,467.81 L 526.38,468.16 L 526.20,468.95 L 526.15,469.46 L 526.05,470.57 L 526.03,471.26 L 526.00,472.71 L 526.00,462.64 L 526.02,459.40 L 526.03,457.87 L 526.09,455.41 L 526.13,454.27 L 526.25,452.49 L 526.32,451.68 L 526.52,450.49 L 526.63,449.97 L 526.93,449.28 L 527.10,449.00 L 527.52,448.72 L 527.75,448.63 M 321.90,485.30 L 321.90,485.30 L 321.98,485.27 M 623.43,468.25 L 622.83,468.40 L 622.02,469.18 L 621.66,469.65 L 621.25,471.12 L 621.02,474.25 L 621.01,475.18 L 621.07,476.41 L 621.14,476.93 L 621.52,477.52 L 621.78,477.76 L 622.72,477.94 L 625.05,478.00 L 629.11,478.00 L 628.80,473.25 L 628.73,472.15 L 628.56,470.64 L 628.46,469.98 L 628.11,469.17 L 627.89,468.83 L 627.20,468.47 L 625.61,468.17 L 624.74,468.07 M 422.93,429.70 L 424.33,430.46 L 424.63,430.65 L 425.68,431.06 L 426.27,431.27 L 427.77,431.66 L 433.00,432.57 L 434.79,432.76 L 438.07,433.30 L 438.80,433.44 L 439.98,433.72 L 441.12,434.10 L 441.34,434.21 L 441.83,434.76 L 442.08,435.08 L 442.62,436.00 L 443.16,436.99 L 444.27,439.73 L 444.80,441.17 L 445.72,444.36 L 446.64,448.95 L 446.76,449.90 L 447.03,451.48 L 447.10,451.82 L 447.23,452.32 L 447.38,452.72 L 447.42,452.76 L 447.64,452.22 L 447.77,451.87 L 448.13,450.66 L 448.32,449.98 L 448.76,448.25 L 449.48,445.26 L 449.73,444.20 L 450.23,442.19 L 450.47,441.22 L 450.94,439.56 L 451.16,438.79 L 451.53,437.65 L 451.94,436.75 L 451.98,436.69 L 452.34,436.64 L 452.56,436.62 L 453.23,436.63 L 453.60,436.64 L 454.56,436.71 L 455.07,436.75 L 456.26,436.87 L 457.51,437.00 L 460.58,437.41 L 465.72,438.22 L 467.34,438.49 L 470.02,438.95 L 471.26,439.17 L 473.26,439.54 L 474.19,439.73 L 475.63,440.06 L 476.29,440.22 L 477.27,440.54 L 477.72,440.71 L 478.35,441.07 L 478.64,441.26 L 479.03,441.69 L 479.82,443.47 L 480.80,446.50 L 480.90,443.75 L 480.93,442.96 L 481.14,441.96 L 481.22,441.75 L 481.52,441.46 L 481.69,441.34 L 482.20,441.22 L 482.50,441.18 L 483.30,441.22 L 483.74,441.25 L 484.90,441.44 L 485.52,441.55 L 487.10,441.87 L 490.00,442.50 L 491.79,442.89 L 495.55,443.52 L 496.43,443.65 L 497.98,443.84 L 499.75,443.96 L 503.00,444.00 L 503.00,470.03 L 502.94,466.30 L 502.82,464.50 L 502.73,463.92 L 502.50,462.94 L 502.34,462.72 L 501.98,462.45 L 501.75,462.53 L 500.98,462.54 L 499.97,462.45 L 499.25,462.36 L 497.67,462.16 L 496.68,462.02 L 494.59,461.72 L 493.38,461.54 L 490.85,461.15 L 489.45,460.92 L 486.56,460.46 L 485.00,460.20 L 478.51,459.10 L 475.00,458.47 L 463.88,456.51 L 456.15,455.17 L 452.44,454.52 L 448.76,453.89 L 447.02,453.59 L 443.60,453.00 L 442.03,452.74 L 438.98,452.22 L 437.63,451.99 L 435.07,451.56 L 434.00,451.39 L 427.81,450.29 L 424.02,449.53 L 422.42,449.18 L 420.88,448.83 L 420.21,448.66 L 418.93,448.34 L 418.41,448.19 L 417.45,447.91 L 417.10,447.79 L 416.50,447.55 L 416.36,447.46 L 415.22,446.78 L 415.00,446.69 L 415.29,445.19 L 415.47,444.39 L 415.89,442.92 L 416.55,441.11 L 417.28,439.52 L 418.45,436.95 L 419.00,435.75 L 419.87,433.88 L 420.28,433.02 L 420.93,431.76 L 421.23,431.20 L 421.72,430.46 L 421.95,430.14 L 422.35,429.82 L 422.55,429.70 M 514.07,214.56 L 517.01,214.61 L 522.86,214.81 L 525.75,214.93 L 531.32,215.27 L 534.04,215.46 L 539.05,215.94 L 545.67,216.80 L 549.87,217.48 L 558.31,219.15 L 562.53,220.04 L 570.96,222.10 L 575.16,223.18 L 583.48,225.61 L 587.62,226.86 L 595.73,229.61 L 599.75,231.02 L 607.56,234.05 L 611.42,235.61 L 618.84,238.90 L 622.49,240.58 L 629.42,244.10 L 639.14,249.59 L 639.77,249.97 L 640.82,250.62 L 641.31,250.94 L 642.12,251.49 L 642.88,252.01 L 643.76,252.83 L 644.11,253.22 L 644.31,253.90 L 644.01,254.97 L 643.81,255.36 L 643.78,256.13 L 643.85,256.53 L 644.54,257.52 L 644.77,257.80 L 645.39,258.43 L 645.73,258.77 L 646.60,259.54 L 647.07,259.95 L 648.21,260.91 L 650.27,262.57 L 652.46,264.31 L 657.08,268.33 L 659.41,270.41 L 664.20,274.98 L 666.61,277.32 L 671.44,282.28 L 673.84,284.79 L 678.57,290.00 L 680.91,292.62 L 682.44,294.42 L 681.08,292.88 L 678.87,290.56 L 674.39,285.98 L 672.06,283.77 L 667.34,279.39 L 664.89,277.28 L 659.93,273.11 L 657.37,271.11 L 652.19,267.17 L 649.53,265.28 L 644.15,261.57 L 641.39,259.81 L 635.82,256.34 L 632.98,254.70 L 627.24,251.49 L 624.31,249.98 L 618.41,247.03 L 615.41,245.66 L 609.37,242.98 L 606.30,241.75 L 600.12,239.36 L 597.00,238.27 L 590.71,236.18 L 587.53,235.24 L 581.14,233.45 L 577.92,232.68 L 569.26,230.70 L 566.68,230.15 L 565.62,229.94 L 563.69,229.56 L 563.09,229.47 L 558.68,228.77 L 559.33,248.13 L 559.63,256.14 L 559.86,261.30 L 559.97,263.60 L 560.09,265.86 L 560.15,266.88 L 560.26,268.85 L 560.32,269.70 L 560.42,271.33 L 560.47,271.98 L 560.57,273.18 L 560.61,273.60 L 561.25,279.70 L 571.31,284.60 L 579.34,288.74 L 584.54,291.64 L 587.06,293.17 L 592.05,296.26 L 594.46,297.88 L 599.24,301.16 L 601.54,302.87 L 606.10,306.33 L 608.29,308.13 L 612.63,311.78 L 614.71,313.67 L 618.82,317.49 L 620.79,319.46 L 624.68,323.45 L 626.53,325.51 L 630.18,329.67 L 631.92,331.81 L 635.34,336.14 L 636.96,338.36 L 640.14,342.84 L 641.63,345.14 L 644.57,349.79 L 645.95,352.16 L 648.64,356.96 L 649.89,359.41 L 652.33,364.35 L 653.46,366.88 L 655.65,371.96 L 656.65,374.56 L 658.58,379.79 L 659.45,382.45 L 661.34,388.49 L 662.41,392.25 L 662.86,394.06 L 664.46,401.10 L 664.97,404.66 L 665.45,408.26 L 665.62,410.15 L 665.94,413.99 L 666.05,416.05 L 666.23,420.28 L 666.27,422.60 L 666.34,427.36 L 666.34,430.00 L 666.31,434.79 L 666.27,437.77 L 666.24,439.16 L 666.17,441.86 L 666.12,443.11 L 666.01,445.55 L 665.95,446.67 L 665.66,450.92 L 665.47,452.69 L 665.05,456.01 L 664.79,457.36 L 663.25,465.22 L 667.38,464.55 L 669.56,464.22 L 671.42,463.95 L 672.47,463.81 L 676.88,463.21 L 678.92,462.95 L 682.85,462.34 L 686.13,461.74 L 688.01,461.36 L 691.91,460.57 L 694.02,460.12 L 694.31,460.06 L 689.07,461.22 L 686.11,461.88 L 680.52,463.07 L 679.17,463.36 L 676.63,463.88 L 675.39,464.14 L 673.12,464.59 L 672.02,464.81 L 670.07,465.18 L 669.15,465.35 L 667.58,465.62 L 666.86,465.74 L 665.74,465.90 L 664.64,466.00 L 663.84,466.00 L 662.75,465.70 L 662.29,465.47 L 661.85,464.53 L 661.78,464.24 L 661.74,463.50 L 661.74,463.10 L 661.85,462.11 L 661.92,461.58 L 662.15,460.31 L 662.65,458.05 L 662.90,456.97 L 663.37,454.37 L 663.60,453.02 L 664.02,449.98 L 664.43,446.86 L 665.05,439.99 L 665.32,436.56 L 665.57,430.05 L 665.61,428.50 L 665.60,425.70 L 665.44,422.10 L 665.33,420.72 L 665.00,417.72 L 664.82,416.19 L 664.38,412.95 L 663.90,409.68 L 662.68,402.90 L 662.03,399.54 L 660.60,393.23 L 660.23,391.72 L 659.49,388.95 L 658.38,385.25 L 658.02,384.14 L 657.13,381.73 L 656.67,380.50 L 655.63,377.93 L 654.56,375.34 L 652.19,370.19 L 651.60,368.94 L 650.42,366.59 L 649.84,365.45 L 648.73,363.41 L 648.19,362.44 L 647.19,360.82 L 645.90,359.00 L 645.61,358.66 L 645.15,358.13 L 644.94,357.90 L 644.64,357.62 L 644.51,357.52 L 644.41,357.51 L 644.52,357.82 L 644.71,358.19 L 645.08,359.55 L 645.46,361.82 L 645.53,362.56 L 645.86,364.30 L 646.45,366.50 L 646.55,366.77 L 646.41,366.68 L 646.28,366.54 L 645.74,365.71 L 645.43,365.21 L 644.56,363.75 L 643.00,361.00 L 640.94,357.32 L 636.62,350.39 L 634.42,346.99 L 629.79,340.59 L 627.43,337.46 L 622.47,331.59 L 619.95,328.71 L 614.63,323.33 L 611.92,320.70 L 606.22,315.79 L 603.32,313.39 L 597.22,308.93 L 594.12,306.75 L 587.59,302.71 L 577.28,297.10 L 572.90,294.92 L 563.87,291.24 L 559.32,289.51 L 550.00,286.76 L 545.32,285.50 L 535.79,283.68 L 531.01,282.88 L 521.34,282.00 L 516.50,281.67 L 506.78,281.73 L 501.92,281.88 L 492.21,282.88 L 487.37,283.50 L 477.75,285.45 L 463.52,289.46 L 460.83,290.36 L 455.55,292.42 L 453.70,293.17 L 453.97,293.06 L 459.22,290.90 L 461.89,289.93 L 464.74,288.84 L 466.04,288.25 L 466.41,288.01 L 466.96,287.58 L 466.96,287.41 L 466.81,287.11 L 466.49,286.99 L 465.46,286.82 L 464.54,286.80 L 464.01,286.82 L 461.72,287.04 L 460.59,287.30 L 452.81,289.41 L 447.66,291.13 L 445.12,292.15 L 440.05,294.29 L 437.55,295.50 L 432.58,298.02 L 430.14,299.42 L 425.29,302.31 L 422.92,303.89 L 418.20,307.13 L 415.91,308.87 L 411.35,312.44 L 409.14,314.34 L 404.77,318.22 L 402.66,320.26 L 398.49,324.43 L 396.48,326.61 L 392.53,331.04 L 390.65,333.35 L 386.94,338.03 L 385.18,340.46 L 381.73,345.36 L 380.12,347.90 L 376.95,353.01 L 375.48,355.64 L 372.63,360.95 L 371.32,363.66 L 368.78,369.14 L 367.64,371.93 L 365.45,377.55 L 364.49,380.41 L 361.47,390.63 L 359.80,397.58 L 359.15,401.11 L 357.95,408.19 L 357.52,411.76 L 356.83,418.61 L 356.92,416.50 L 357.24,412.38 L 358.21,403.70 L 358.46,401.67 L 358.97,398.10 L 359.09,397.27 L 359.33,395.82 L 359.67,394.01 L 360.12,391.85 L 361.29,387.33 L 361.92,385.03 L 363.41,380.29 L 364.19,377.90 L 365.96,373.01 L 366.88,370.57 L 368.91,365.64 L 370.99,360.71 L 375.75,351.06 L 376.97,348.69 L 379.53,344.12 L 383.49,337.58 L 386.89,332.27 L 385.98,310.39 L 385.85,307.38 L 385.58,301.30 L 385.44,298.30 L 385.17,292.73 L 385.11,291.39 L 384.98,288.94 L 384.92,287.75 L 384.81,285.64 L 384.75,284.64 L 384.65,282.95 L 384.53,281.00 L 384.38,278.94 L 384.08,274.01 L 384.01,272.81 L 383.89,270.57 L 383.75,267.75 L 383.72,266.96 L 383.61,265.52 L 383.55,264.83 L 383.40,263.69 L 383.33,263.17 L 383.16,262.45 L 382.91,262.00 L 382.85,262.00 L 382.57,262.12 L 382.40,262.20 L 381.90,262.46 L 381.35,262.75 L 379.73,263.70 L 378.85,264.22 L 376.72,265.53 L 375.61,266.21 L 373.18,267.74 L 370.72,269.30 L 365.77,272.54 L 364.60,273.31 L 362.52,274.72 L 360.00,276.50 L 359.09,277.17 L 356.82,279.10 L 355.63,280.14 L 352.92,282.69 L 351.53,284.03 L 348.54,287.04 L 347.03,288.58 L 343.92,291.87 L 340.81,295.20 L 334.90,302.00 L 333.49,303.65 L 330.97,306.78 L 327.75,311.03 L 327.27,311.70 L 331.18,306.18 L 333.52,303.17 L 338.30,297.21 L 340.84,294.34 L 346.00,288.66 L 348.73,285.92 L 354.28,280.51 L 357.19,277.91 L 363.12,272.77 L 366.23,270.30 L 372.54,265.43 L 375.84,263.10 L 382.53,258.51 L 386.02,256.31 L 393.10,251.99 L 396.78,249.93 L 404.23,245.88 L 408.10,243.96 L 415.94,240.18 L 420.00,238.40 L 423.88,236.77 L 427.07,235.48 L 428.87,234.77 L 436.52,231.81 L 440.44,230.35 L 444.33,228.90 L 446.15,228.24 L 449.69,226.96 L 451.23,226.43 L 454.13,225.42 L 455.24,225.06 L 456.29,224.72 L 456.71,224.60 L 457.48,224.38 L 457.75,224.31 L 459.34,223.65 L 460.00,223.08 L 460.00,222.82 L 460.26,222.32 L 460.65,222.28 L 460.90,222.44 L 461.43,222.50 L 461.93,222.38 L 462.22,222.25 L 463.50,221.57 L 464.15,221.03 L 465.04,220.24 L 465.43,219.82 L 465.52,219.66 L 465.62,219.38 L 465.55,219.30 L 465.32,219.16 L 465.08,219.15 L 464.50,219.15 L 464.48,219.15 L 466.48,218.72 L 483.50,215.81 L 485.30,215.55 L 489.67,215.15 L 491.95,214.97 L 497.08,214.73 L 499.71,214.62 L 505.34,214.53 L 508.20,214.51 M 359.34,460.90 L 359.27,460.60 L 358.71,457.33 M 292.02,417.84 L 291.87,420.81 L 291.68,427.11 L 291.60,430.30 L 291.55,436.79 L 291.54,440.03 L 291.64,446.37 L 291.71,449.49 L 291.96,455.36 L 292.10,458.20 L 292.16,458.97 L 292.08,458.33 L 291.95,456.85 L 291.34,447.52 L 291.16,440.96 L 291.18,437.55 L 291.28,430.66 L 291.43,427.14 L 291.80,420.08 L 292.09,416.53 L 292.13,416.05 M 413.19,455.55 L 413.24,455.75 L 413.37,455.83 L 413.18,456.50 L 413.14,455.34 M 357.97,452.97 L 357.97,452.95 L 357.97,452.92 M 414.78,448.84 L 414.77,449.67 L 414.72,450.14 L 414.43,452.14 L 414.22,452.87 L 414.55,449.93 L 414.65,448.49 L 414.71,448.18 M 731.82,438.00 L 731.50,450.50 L 727.18,451.73 L 731.50,450.42 L 731.82,437.97 M 357.60,450.46 L 357.40,449.10 L 357.00,444.49 M 407.36,440.79 L 408.23,441.61 L 409.71,443.49 L 410.40,444.46 L 411.48,446.56 L 411.56,446.73 L 411.49,446.63 L 411.06,446.45 L 410.13,446.25 L 409.53,446.40 L 407.75,446.56 L 406.32,446.46 L 405.50,446.30 L 403.79,445.91 L 402.85,445.62 L 400.91,444.97 L 399.87,444.54 L 399.13,444.48 L 398.65,444.68 L 398.47,444.85 L 398.85,444.24 L 401.29,441.35 L 404.48,438.09 M 356.71,441.24 L 356.71,441.22 L 356.71,441.21 M 356.41,433.20 L 356.62,439.89 L 356.44,437.24 L 356.39,431.88 M 405.54,430.24 L 407.25,430.54 L 408.10,430.72 L 409.35,431.04 L 409.91,431.20 L 410.62,431.49 L 410.91,431.64 L 411.12,431.92 L 410.92,432.36 L 410.86,432.41 L 410.50,432.54 L 410.28,432.62 L 409.67,432.79 L 407.25,433.33 L 406.55,433.47 L 405.56,433.58 L 405.12,433.61 L 404.57,433.48 L 404.34,433.38 L 404.11,432.95 L 404.03,432.69 L 404.00,431.90 L 404.00,431.45 L 404.11,430.84 L 404.19,430.58 L 404.56,430.32 L 404.79,430.22 M 356.37,429.40 L 356.36,429.09 L 356.43,427.49 M 310.65,341.24 L 309.02,344.90 L 306.03,352.51 L 304.58,356.36 L 301.97,364.32 L 300.72,368.34 L 298.50,376.62 L 297.44,380.79 L 295.63,389.36 L 294.20,397.69 L 294.53,395.54 L 295.65,388.81 L 296.29,385.60 L 297.63,379.28 L 298.38,376.32 L 301.67,364.66 L 304.16,357.08 L 305.54,353.40 L 308.41,346.09 L 309.99,342.54 L 313.24,335.50 L 313.92,334.20 M 704.46,324.45 L 708.93,332.95 L 711.10,337.29 L 715.02,346.45 L 716.91,351.11 L 720.26,360.80 L 721.86,365.70 L 724.59,375.79 L 725.88,380.86 L 726.76,385.22 L 725.88,380.86 L 724.59,375.78 L 721.86,365.69 L 720.26,360.79 L 716.91,351.10 L 715.02,346.45 L 711.09,337.28 L 708.93,332.95 L 704.46,324.45 L 702.04,320.50 M 400.35,331.93 L 398.45,334.08 L 394.83,338.53 L 393.05,340.78 L 389.69,345.42 L 388.05,347.76 L 384.96,352.58 L 383.45,355.01 L 380.65,360.00 L 379.28,362.51 L 376.78,367.65 L 375.57,370.23 L 373.38,375.50 L 370.46,383.54 L 373.33,375.62 L 375.47,370.43 L 376.66,367.88 L 379.10,362.83 L 380.43,360.36 L 383.16,355.45 L 384.63,353.06 L 387.64,348.32 L 389.25,346.01 L 392.52,341.43 L 394.26,339.22 L 397.78,334.83 L 399.64,332.71 L 403.40,328.52 L 404.06,327.84 M 317.61,327.25 L 318.65,325.32 L 318.79,325.08 M 405.03,326.86 L 405.37,326.50 L 405.67,326.21 M 406.87,325.02 L 409.37,322.52 L 409.85,322.08 M 414.60,317.80 L 415.66,316.86 L 415.89,316.67 M 323.89,316.74 L 324.62,315.55 L 324.90,315.14 M 443.62,297.95 L 443.71,297.90 L 443.76,297.88 M 449.53,295.05 L 451.36,294.18 L 452.43,293.72 M 367.76,260.00 L 365.07,262.00 L 368.60,259.38 L 373.08,256.41 M 376.87,253.90 L 377.15,253.71 L 377.28,253.63 M 385.21,248.84 L 378.33,252.95 L 381.47,250.95 L 387.46,247.53 M 396.33,242.76 L 389.17,246.55 L 390.45,245.82 L 395.00,243.32 L 399.46,241.15 M 407.88,237.20 L 400.95,240.43 L 404.41,238.74 L 409.16,236.52 L 411.45,235.58 M 416.34,233.58 L 419.00,232.49 L 419.54,232.28 M 395.70,456.95 L 395.49,457.70 L 395.37,457.97 L 395.11,458.43 L 395.37,457.96 L 395.49,457.69 L 395.70,456.93 L 396.00,454.01 L 396.00,454.09 Z" fill="rgba(226,91,36,1)"/>
<path d="M 290.62,492.25 L 289.15,486.11 L 286.97,473.67 L 286.00,467.43 L 284.80,454.81 L 284.33,448.48 L 284.12,435.73 L 284.92,416.50 L 285.37,410.98 L 286.67,400.32 L 287.39,395.05 L 289.25,384.85 L 290.26,379.80 L 292.69,370.04 L 293.98,365.21 L 296.99,355.86 L 298.58,351.23 L 302.18,342.25 L 304.06,337.81 L 308.26,329.18 L 310.44,324.91 L 315.26,316.60 L 323.18,304.48 L 323.65,303.80 L 324.78,302.31 L 325.36,301.55 L 326.69,299.90 L 328.06,298.22 L 331.30,294.49 L 332.98,292.58 L 336.69,288.57 L 338.58,286.55 L 342.56,282.45 L 344.55,280.42 L 348.58,276.46 L 350.58,274.52 L 354.45,270.92 L 356.35,269.18 L 359.86,266.13 L 360.71,265.41 L 362.30,264.12 L 364.50,262.42 L 367.76,260.00 L 374.58,255.40 L 378.03,253.13 L 385.21,248.84 L 388.83,246.73 L 396.33,242.76 L 400.11,240.82 L 407.88,237.20 L 411.80,235.43 L 419.81,232.17 L 423.84,230.59 L 432.06,227.71 L 436.20,226.32 L 444.58,223.83 L 457.31,220.57 L 458.40,220.32 L 460.23,219.91 L 461.08,219.73 L 462.46,219.46 L 463.10,219.34 L 464.07,219.20 L 464.50,219.15 L 465.08,219.15 L 465.32,219.16 L 465.55,219.30 L 465.62,219.38 L 465.52,219.66 L 465.43,219.82 L 465.04,220.24 L 464.15,221.03 L 463.50,221.57 L 462.22,222.25 L 461.93,222.38 L 461.43,222.50 L 460.90,222.44 L 460.65,222.28 L 460.26,222.32 L 460.00,222.82 L 460.00,223.08 L 459.34,223.65 L 457.75,224.31 L 457.48,224.38 L 456.71,224.60 L 456.29,224.72 L 455.24,225.06 L 454.13,225.42 L 451.23,226.43 L 449.69,226.96 L 446.15,228.24 L 444.33,228.90 L 440.44,230.35 L 436.52,231.81 L 428.87,234.77 L 427.07,235.48 L 423.88,236.77 L 420.00,238.40 L 415.94,240.18 L 408.10,243.96 L 404.23,245.88 L 396.78,249.93 L 393.10,251.99 L 386.02,256.31 L 382.53,258.51 L 375.84,263.10 L 372.54,265.43 L 366.23,270.30 L 363.12,272.77 L 357.19,277.91 L 354.28,280.51 L 348.73,285.92 L 346.00,288.66 L 340.84,294.34 L 338.30,297.21 L 333.52,303.17 L 331.18,306.18 L 326.78,312.40 L 324.62,315.55 L 320.61,322.04 L 318.65,325.32 L 315.01,332.09 L 313.24,335.50 L 309.99,342.54 L 308.41,346.09 L 305.54,353.40 L 304.16,357.08 L 301.67,364.66 L 298.38,376.32 L 297.63,379.28 L 296.29,385.60 L 295.65,388.81 L 294.53,395.54 L 294.00,398.94 L 293.13,405.92 L 292.72,409.43 L 292.09,416.53 L 291.80,420.08 L 291.43,427.14 L 291.28,430.66 L 291.18,437.55 L 291.16,440.96 L 291.34,447.52 L 291.95,456.85 L 292.08,458.33 L 292.49,461.79 L 292.71,463.57 L 293.24,467.44 L 293.80,471.35 L 295.10,479.25 L 295.43,481.14 L 296.07,484.61 L 296.38,486.27 L 296.97,489.06 L 297.25,490.35 L 297.73,492.20 L 297.84,492.59 L 298.04,493.15 L 298.28,493.62 L 298.34,493.68 L 298.84,493.62 L 299.14,493.57 L 300.03,493.31 L 300.51,493.16 L 301.68,492.73 L 303.61,491.95 L 304.84,491.42 L 307.55,490.34 L 308.95,489.79 L 311.95,488.68 L 315.03,487.56 L 321.88,485.31 L 325.40,484.18 L 332.89,481.99 L 344.48,478.89 L 346.68,478.33 L 350.77,477.26 L 352.73,476.74 L 356.05,475.80 L 356.81,475.58 L 358.13,475.19 L 358.76,475.00 L 359.76,474.67 L 360.22,474.52 L 360.86,474.28 L 361.36,474.03 L 361.47,473.91 L 361.53,473.01 L 361.52,472.46 L 361.35,470.84 L 361.24,469.97 L 360.88,467.85 L 360.14,464.34 L 359.36,461.03 L 358.17,454.22 L 357.63,450.80 L 356.93,443.81 L 356.64,440.30 L 356.41,433.20 L 356.36,429.65 L 356.61,422.49 L 356.80,418.91 L 357.52,411.76 L 357.95,408.19 L 359.15,401.11 L 359.80,397.58 L 361.47,390.63 L 364.49,380.41 L 365.45,377.55 L 367.64,371.93 L 368.78,369.14 L 371.32,363.66 L 372.63,360.95 L 375.48,355.64 L 376.95,353.01 L 380.12,347.90 L 381.73,345.36 L 385.18,340.46 L 386.94,338.03 L 390.65,333.35 L 392.53,331.04 L 396.48,326.61 L 398.49,324.43 L 402.66,320.26 L 404.77,318.22 L 409.14,314.34 L 411.35,312.44 L 415.91,308.87 L 418.20,307.13 L 422.92,303.89 L 425.29,302.31 L 430.14,299.42 L 432.58,298.02 L 437.55,295.50 L 440.05,294.29 L 445.12,292.15 L 447.66,291.13 L 452.81,289.41 L 460.59,287.30 L 461.72,287.04 L 464.01,286.82 L 464.54,286.80 L 465.46,286.82 L 466.49,286.99 L 466.81,287.11 L 466.96,287.41 L 466.96,287.58 L 466.41,288.01 L 466.04,288.25 L 464.74,288.84 L 461.89,289.93 L 459.22,290.90 L 453.97,293.06 L 451.36,294.18 L 446.25,296.63 L 443.71,297.90 L 438.76,300.64 L 436.30,302.05 L 431.52,305.06 L 429.14,306.60 L 424.54,309.88 L 422.26,311.55 L 417.84,315.07 L 415.66,316.86 L 411.45,320.62 L 409.37,322.52 L 405.37,326.50 L 403.40,328.52 L 399.64,332.71 L 397.78,334.83 L 394.26,339.22 L 392.52,341.43 L 389.25,346.01 L 387.64,348.32 L 384.63,353.06 L 383.16,355.45 L 380.43,360.36 L 379.10,362.83 L 376.66,367.88 L 375.47,370.43 L 373.33,375.62 L 370.46,383.54 L 369.28,387.15 L 367.43,393.78 L 366.59,397.05 L 365.34,403.47 L 364.78,406.71 L 364.02,413.55 L 363.85,415.32 L 363.59,419.05 L 363.30,425.00 L 363.14,429.12 L 363.27,437.04 L 363.40,440.96 L 364.13,448.56 L 364.56,452.33 L 365.89,459.72 L 368.57,470.65 L 368.91,471.83 L 369.51,474.02 L 369.79,475.07 L 370.23,476.84 L 370.43,477.65 L 370.66,478.80 L 370.72,479.61 L 370.67,479.66 L 369.98,479.87 L 369.54,479.98 L 368.21,480.29 L 367.48,480.46 L 365.68,480.84 L 362.66,481.44 L 360.31,481.89 L 355.39,482.95 L 352.90,483.51 L 347.77,484.77 L 342.60,486.07 L 332.06,489.13 L 326.83,490.72 L 316.75,494.16 L 314.30,495.03 L 309.62,496.81 L 303.04,499.48 L 301.91,499.97 L 299.78,500.85 L 298.76,501.27 L 296.99,501.97 L 296.18,502.29 L 294.97,502.72 L 294.00,503.00 L 293.94,503.00 L 293.78,502.78 L 293.69,502.64 L 293.48,502.15 L 293.25,501.61 L 292.66,499.84 L 292.36,498.87 L 291.67,496.42 L 291.33,495.14 M 376.00,487.13 L 376.00,486.66 L 376.15,486.01 L 376.27,485.73 L 376.78,485.37 L 377.10,485.22 L 378.14,485.07 L 380.50,485.00 L 381.51,485.00 L 382.90,484.93 L 383.51,484.88 L 384.26,484.62 L 384.57,484.46 L 384.86,483.93 L 385.00,482.70 L 385.00,481.90 L 385.35,480.62 L 385.58,480.03 L 386.40,479.15 L 386.87,478.76 L 388.18,478.29 L 390.70,478.00 L 394.00,478.00 L 394.12,469.75 L 394.13,468.62 L 394.15,466.45 L 394.16,465.41 L 394.16,463.58 L 394.16,462.72 L 394.14,461.43 L 394.09,460.33 L 394.05,460.00 L 394.29,459.31 L 394.97,458.52 L 395.11,458.43 L 395.37,457.97 L 395.49,457.70 L 395.70,456.95 L 396.00,454.09 L 396.00,452.66 L 396.32,450.07 L 396.53,448.84 L 397.19,446.86 L 397.55,445.98 L 398.42,444.89 L 398.65,444.68 L 399.13,444.49 L 399.87,444.54 L 400.91,444.97 L 402.85,445.62 L 403.79,445.91 L 405.50,446.30 L 406.32,446.46 L 407.75,446.56 L 409.53,446.40 L 410.13,446.25 L 411.06,446.45 L 411.49,446.63 L 412.12,447.56 L 412.41,448.12 L 412.77,449.87 L 413.08,453.50 L 413.18,456.50 L 414.16,453.08 L 414.43,452.14 L 414.72,450.14 L 414.77,449.67 L 414.78,448.84 L 414.68,447.88 L 414.57,447.48 L 414.49,446.97 L 414.48,446.76 L 414.64,446.61 L 414.76,446.58 L 415.22,446.78 L 416.36,447.46 L 416.50,447.55 L 417.10,447.79 L 417.45,447.91 L 418.41,448.19 L 418.93,448.34 L 420.21,448.66 L 420.88,448.83 L 422.42,449.18 L 424.02,449.53 L 427.81,450.29 L 434.00,451.39 L 435.07,451.56 L 437.63,451.99 L 438.98,452.22 L 442.03,452.74 L 443.60,453.00 L 447.02,453.59 L 448.76,453.89 L 452.44,454.52 L 456.15,455.17 L 463.88,456.51 L 475.00,458.47 L 478.51,459.10 L 485.00,460.20 L 486.56,460.46 L 489.45,460.92 L 490.85,461.15 L 493.38,461.54 L 494.59,461.72 L 496.68,462.02 L 497.67,462.16 L 499.25,462.36 L 499.97,462.45 L 500.98,462.54 L 501.75,462.53 L 501.98,462.45 L 502.34,462.72 L 502.50,462.94 L 502.73,463.92 L 502.82,464.50 L 502.94,466.30 L 503.00,470.03 L 503.00,478.00 L 514.50,478.00 L 526.00,478.00 L 526.00,473.58 L 526.00,472.71 L 526.03,471.26 L 526.05,470.57 L 526.15,469.46 L 526.20,468.95 L 526.38,468.16 L 526.47,467.81 L 526.75,467.31 L 526.90,467.10 L 527.30,466.86 L 527.52,466.78 L 528.06,466.78 L 528.36,466.80 L 529.06,467.00 L 530.34,467.51 L 530.62,467.63 L 531.74,467.96 L 532.37,468.14 L 534.12,468.55 L 535.07,468.77 L 537.36,469.26 L 538.56,469.51 L 541.31,470.05 L 542.73,470.33 L 545.83,470.91 L 547.41,471.20 L 550.78,471.81 L 554.20,472.43 L 561.44,473.66 L 565.07,474.27 L 572.17,475.40 L 573.91,475.67 L 577.22,476.17 L 578.85,476.42 L 581.88,476.85 L 583.35,477.06 L 586.00,477.41 L 587.27,477.57 L 589.44,477.83 L 590.47,477.94 L 592.08,478.08 L 593.77,478.14 L 595.45,478.09 L 598.77,478.51 L 603.27,479.87 L 603.85,480.14 L 605.31,480.67 L 606.07,480.93 L 607.73,481.42 L 608.56,481.66 L 610.22,482.05 L 612.50,482.46 L 614.28,482.71 L 617.82,483.37 L 619.55,483.72 L 622.53,484.47 L 623.21,484.65 L 624.36,485.01 L 624.89,485.19 L 625.70,485.51 L 626.04,485.66 L 626.42,485.93 L 626.41,486.24 L 626.35,486.28 L 625.70,486.38 L 625.29,486.43 L 624.01,486.55 L 623.29,486.62 L 621.45,486.76 L 620.46,486.84 L 618.13,487.00 L 616.91,487.08 L 614.17,487.25 L 612.75,487.34 L 609.67,487.51 L 599.50,488.04 L 596.17,488.20 L 588.97,488.44 L 585.29,488.54 L 577.56,488.68 L 569.73,488.79 L 553.38,488.71 L 549.30,488.66 L 541.24,488.50 L 537.25,488.41 L 529.51,488.15 L 525.70,488.01 L 518.49,487.67 L 508.50,487.04 L 504.93,486.78 L 498.01,486.31 L 494.59,486.09 L 487.96,485.69 L 484.67,485.50 L 478.31,485.18 L 475.16,485.03 L 469.05,484.78 L 463.00,484.54 L 451.61,484.30 L 446.01,484.22 L 435.43,484.28 L 430.23,484.34 L 420.34,484.70 L 415.48,484.91 L 406.16,485.57 L 401.56,485.93 L 392.69,486.89 L 379.75,488.67 L 378.91,488.80 L 377.75,488.91 L 377.25,488.94 L 376.62,488.81 L 376.36,488.70 L 376.12,488.24 L 376.03,487.97 M 409.00,474.12 L 409.00,473.03 L 408.67,471.28 L 408.45,470.48 L 407.68,469.32 L 407.24,468.82 L 406.05,468.28 L 403.81,468.17 L 403.31,468.24 L 402.60,468.51 L 402.28,468.68 L 401.85,469.28 L 401.67,469.64 L 401.43,470.77 L 401.20,473.25 L 400.89,478.00 L 404.95,478.00 L 405.96,478.00 L 407.28,477.94 L 407.85,477.88 L 408.49,477.51 L 408.74,477.27 L 408.93,476.36 L 409.00,475.81 M 437.00,469.22 L 437.00,467.97 L 436.93,465.79 L 436.88,464.74 L 436.71,462.94 L 436.61,462.09 L 436.33,460.65 L 436.17,459.97 L 435.76,458.87 L 435.53,458.35 L 434.98,457.55 L 434.69,457.19 L 433.99,456.66 L 433.62,456.43 L 432.76,456.16 L 431.27,456.00 L 430.63,456.00 L 429.53,456.12 L 429.01,456.20 L 428.13,456.53 L 427.72,456.72 L 427.04,457.28 L 426.72,457.60 L 426.22,458.46 L 425.99,458.93 L 425.64,460.12 L 425.48,460.76 L 425.26,462.32 L 425.17,463.16 L 425.06,465.15 L 425.00,468.65 L 425.00,478.00 L 431.00,478.00 L 437.00,478.00 L 437.00,469.22 M 664.79,457.36 L 665.05,456.01 L 665.47,452.69 L 665.66,450.92 L 665.95,446.67 L 666.01,445.55 L 666.12,443.11 L 666.17,441.86 L 666.24,439.16 L 666.27,437.77 L 666.31,434.79 L 666.34,430.00 L 666.34,427.36 L 666.27,422.60 L 666.23,420.28 L 666.05,416.05 L 665.94,413.99 L 665.62,410.15 L 665.45,408.26 L 664.97,404.66 L 664.46,401.10 L 662.86,394.06 L 662.41,392.25 L 661.34,388.49 L 659.45,382.45 L 658.58,379.79 L 656.65,374.56 L 655.65,371.96 L 653.46,366.88 L 652.33,364.35 L 649.89,359.41 L 648.64,356.96 L 645.95,352.16 L 644.57,349.79 L 641.63,345.14 L 640.14,342.84 L 636.96,338.36 L 635.34,336.14 L 631.92,331.81 L 630.18,329.67 L 626.53,325.51 L 624.68,323.45 L 620.79,319.46 L 618.82,317.49 L 614.71,313.67 L 612.63,311.78 L 608.29,308.13 L 606.10,306.33 L 601.54,302.87 L 599.24,301.16 L 594.46,297.88 L 592.05,296.26 L 587.06,293.17 L 584.54,291.64 L 579.34,288.74 L 571.31,284.60 L 561.25,279.70 L 560.61,273.60 L 560.57,273.18 L 560.47,271.98 L 560.42,271.33 L 560.32,269.70 L 560.26,268.85 L 560.15,266.88 L 560.09,265.86 L 559.97,263.60 L 559.86,261.30 L 559.63,256.14 L 559.33,248.13 L 558.68,228.77 L 563.09,229.47 L 563.69,229.56 L 565.62,229.94 L 566.68,230.15 L 569.26,230.70 L 577.92,232.68 L 581.14,233.45 L 587.53,235.24 L 590.71,236.18 L 597.00,238.27 L 600.12,239.36 L 606.30,241.75 L 609.37,242.98 L 615.41,245.66 L 618.41,247.03 L 624.31,249.98 L 627.24,251.49 L 632.98,254.70 L 635.82,256.34 L 641.39,259.81 L 644.15,261.57 L 649.53,265.28 L 652.19,267.17 L 657.37,271.11 L 659.93,273.11 L 664.89,277.28 L 667.34,279.39 L 672.06,283.77 L 674.39,285.98 L 678.87,290.56 L 681.08,292.88 L 685.30,297.65 L 687.37,300.06 L 691.32,305.01 L 693.25,307.51 L 696.90,312.63 L 702.04,320.50 L 704.46,324.45 L 708.93,332.95 L 711.09,337.28 L 715.02,346.45 L 716.91,351.10 L 720.26,360.79 L 721.86,365.69 L 724.59,375.78 L 725.88,380.86 L 727.97,391.20 L 728.93,396.38 L 730.33,406.84 L 730.95,412.06 L 731.63,422.49 L 731.82,437.96 L 731.50,450.42 L 724.00,452.70 L 722.62,453.12 L 719.24,454.06 L 717.47,454.55 L 713.50,455.57 L 709.42,456.60 L 700.52,458.68 L 698.31,459.18 L 694.02,460.12 L 691.91,460.57 L 688.01,461.36 L 686.13,461.74 L 682.85,462.34 L 678.92,462.95 L 676.88,463.21 L 672.47,463.81 L 671.42,463.95 L 669.56,464.22 L 667.38,464.55 L 663.25,465.22 L 664.79,457.36 Z" fill="rgba(240,138,32,1)"/>
</g>
</svg>