<svg xmlns="http://www.w3.org/2000/svg" width="2473" height="424" viewBox="0 0 2473 424">
<g>
<path d="M 1891.53,8.05 L 1893.98,8.10 L 1899.01,8.53 L 1901.54,8.80 L 1906.68,9.63 L 1909.25,10.10 L 1914.44,11.34 L 1917.04,12.01 L 1922.23,13.64 L 1924.82,14.51 L 1929.94,16.52 L 1937.50,19.95 L 1940.00,21.20 L 1944.74,23.83 L 1947.06,25.17 L 1951.43,27.98 L 1953.56,29.41 L 1957.52,32.36 L 1959.44,33.85 L 1962.96,36.92 L 1964.65,38.46 L 1967.69,41.60 L 1969.15,43.18 L 1971.68,46.38 L 1972.88,47.98 L 1974.86,51.19 L 1977.19,56.00 L 1977.67,57.24 L 1978.40,60.31 L 1978.73,61.93 L 1979.14,65.69 L 1979.30,67.64 L 1979.39,71.98 L 1979.39,74.21 L 1979.17,79.03 L 1979.02,81.49 L 1978.50,86.70 L 1978.20,89.33 L 1977.37,94.81 L 1976.92,97.58 L 1975.81,103.24 L 1973.81,111.81 L 1973.53,112.89 L 1973.03,114.84 L 1972.78,115.78 L 1972.35,117.48 L 1971.93,119.11 L 1971.31,121.70 L 1971.03,122.91 L 1970.69,124.80 L 1970.56,125.67 L 1970.50,127.06 L 1970.51,127.71 L 1970.74,128.81 L 1970.89,129.34 L 1971.42,130.34 L 1971.72,130.85 L 1972.54,131.97 L 1974.10,134.00 L 1975.85,136.29 L 1979.45,141.44 L 1981.25,144.08 L 1984.84,149.72 L 1986.62,152.57 L 1990.04,158.39 L 1991.71,161.30 L 1994.81,167.03 L 1996.30,169.86 L 1998.92,175.19 L 2000.15,177.79 L 2002.14,182.44 L 2002.59,183.55 L 2003.35,185.58 L 2003.70,186.57 L 2004.25,188.34 L 2004.49,189.18 L 2004.81,190.64 L 2005.00,192.44 L 2005.00,192.87 L 2004.89,193.36 L 2004.81,193.54 L 2004.44,193.51 L 2004.21,193.43 L 2003.45,192.85 L 2001.75,191.29 L 2001.27,190.83 L 2000.13,189.85 L 1999.52,189.34 L 1998.14,188.27 L 1996.71,187.17 L 1993.26,184.79 L 1991.46,183.58 L 1987.44,181.06 L 1985.39,179.79 L 1981.05,177.27 L 1978.86,176.01 L 1974.42,173.61 L 1972.21,172.44 L 1967.91,170.30 L 1965.80,169.28 L 1961.87,167.53 L 1956.63,165.49 L 1951.83,163.86 L 1937.66,177.72 L 1935.72,179.63 L 1931.71,183.45 L 1929.72,185.33 L 1925.96,188.79 L 1925.05,189.62 L 1923.36,191.14 L 1922.54,191.87 L 1921.07,193.16 L 1920.36,193.77 L 1919.15,194.79 L 1917.70,195.95 L 1916.66,196.73 L 1915.11,198.00 L 1914.42,198.59 L 1913.54,199.50 L 1913.18,199.92 L 1912.92,200.53 L 1913.20,201.15 L 1913.29,201.21 L 1914.13,201.32 L 1914.66,201.37 L 1916.31,201.47 L 1917.22,201.52 L 1919.58,201.61 L 1920.84,201.65 L 1923.81,201.73 L 1925.37,201.77 L 1928.86,201.83 L 1930.66,201.86 L 1934.58,201.90 L 1936.59,201.92 L 1940.84,201.94 L 1947.50,201.96 L 1949.50,201.95 L 1953.15,201.95 L 1954.91,201.95 L 1958.13,201.96 L 1959.69,201.96 L 1962.51,201.97 L 1963.87,201.97 L 1966.34,201.99 L 1967.53,202.00 L 1969.68,202.03 L 1970.72,202.05 L 1972.59,202.09 L 1974.40,202.14 L 1977.34,202.28 L 1978.72,202.36 L 1981.03,202.58 L 1982.14,202.70 L 1984.13,203.02 L 1985.12,203.20 L 1987.09,203.63 L 1990.37,204.44 L 1992.36,204.94 L 1996.17,206.13 L 1998.05,206.76 L 2001.64,208.18 L 2003.40,208.92 L 2006.76,210.59 L 2008.41,211.45 L 2011.54,213.35 L 2013.08,214.34 L 2015.99,216.48 L 2017.42,217.58 L 2020.11,219.97 L 2021.43,221.20 L 2023.91,223.84 L 2027.39,228.07 L 2028.63,229.72 L 2030.86,233.09 L 2031.94,234.79 L 2033.85,238.29 L 2034.76,240.06 L 2036.37,243.74 L 2037.13,245.61 L 2038.44,249.51 L 2039.05,251.49 L 2040.08,255.65 L 2040.56,257.77 L 2041.32,262.23 L 2041.67,264.51 L 2042.18,269.33 L 2042.67,277.00 L 2042.78,279.73 L 2042.74,284.97 L 2042.68,287.55 L 2042.31,292.50 L 2042.09,294.94 L 2041.37,299.63 L 2040.97,301.94 L 2039.91,306.38 L 2039.33,308.57 L 2037.91,312.79 L 2037.16,314.88 L 2035.37,318.90 L 2034.44,320.89 L 2032.29,324.74 L 2028.64,330.35 L 2026.72,333.04 L 2022.84,337.67 L 2020.87,339.87 L 2016.70,343.59 L 2014.55,345.34 L 2009.83,348.24 L 2008.61,348.91 L 2006.01,350.12 L 2004.68,350.71 L 2001.86,351.74 L 2000.42,352.24 L 1997.34,353.11 L 1995.77,353.53 L 1992.40,354.24 L 1990.68,354.58 L 1987.00,355.15 L 1985.11,355.42 L 1981.08,355.86 L 1979.01,356.07 L 1974.59,356.38 L 1972.33,356.53 L 1967.49,356.74 L 1965.02,356.83 L 1959.74,356.94 L 1951.28,357.00 L 1929.00,357.00 L 1929.00,413.04 L 1888.96,412.50 L 1888.99,313.25 L 1888.99,306.43 L 1888.99,293.31 L 1888.99,290.09 L 1888.98,283.82 L 1888.98,280.72 L 1888.97,274.71 L 1888.97,271.75 L 1888.96,266.04 L 1888.95,263.23 L 1888.94,257.86 L 1888.94,255.22 L 1888.92,250.21 L 1888.92,247.76 L 1888.90,243.15 L 1888.89,240.91 L 1888.88,236.74 L 1888.87,234.71 L 1888.85,231.01 L 1888.84,229.22 L 1888.82,226.02 L 1888.81,224.49 L 1888.79,221.83 L 1888.78,220.57 L 1888.75,218.48 L 1888.74,217.51 L 1888.72,216.03 L 1888.71,215.36 L 1888.68,214.51 L 1888.65,214.00 L 1888.62,214.00 L 1888.36,214.08 L 1888.19,214.13 L 1887.68,214.31 L 1887.10,214.51 L 1885.32,215.15 L 1884.34,215.50 L 1881.93,216.39 L 1877.85,217.91 L 1876.42,218.45 L 1873.23,219.55 L 1871.61,220.10 L 1868.35,221.12 L 1866.74,221.61 L 1863.78,222.44 L 1860.12,223.34 L 1859.12,223.55 L 1857.27,223.95 L 1856.39,224.15 L 1854.90,224.50 L 1854.22,224.67 L 1853.27,224.93 L 1852.62,225.18 L 1852.59,225.22 L 1852.21,225.75 L 1851.97,226.08 L 1851.23,227.09 L 1850.83,227.64 L 1849.85,228.98 L 1848.19,231.24 L 1847.02,232.81 L 1845.03,236.15 L 1844.59,236.94 L 1843.93,238.32 L 1843.37,239.91 L 1843.27,240.40 L 1843.03,241.16 L 1842.89,241.50 L 1842.58,241.98 L 1842.42,242.18 L 1842.04,242.37 L 1841.41,242.33 L 1841.01,242.17 L 1840.26,242.50 L 1839.90,242.78 L 1839.21,244.09 L 1839.03,244.48 L 1838.68,245.48 L 1838.51,246.01 L 1838.15,247.30 L 1837.97,247.98 L 1837.59,249.58 L 1837.00,252.34 L 1836.67,253.97 L 1835.56,257.09 L 1835.27,257.80 L 1834.65,258.98 L 1833.76,260.24 L 1833.28,260.72 L 1832.60,261.32 L 1832.30,261.56 L 1831.83,261.73 L 1831.61,261.75 L 1831.20,261.49 L 1830.49,260.65 L 1830.16,260.20 L 1829.47,259.49 L 1828.73,259.00 L 1828.69,259.00 L 1828.46,259.21 L 1828.32,259.35 L 1827.91,259.83 L 1827.46,260.36 L 1826.09,262.08 L 1825.35,263.03 L 1823.54,265.42 L 1820.53,269.50 L 1819.32,271.16 L 1817.34,274.02 L 1816.43,275.37 L 1815.09,277.56 L 1814.50,278.57 L 1813.84,280.01 L 1813.72,280.32 L 1813.61,280.79 L 1813.65,281.25 L 1813.68,281.29 L 1813.87,281.56 L 1813.99,281.73 L 1814.35,282.23 L 1814.55,282.51 L 1815.08,283.24 L 1815.37,283.63 L 1816.05,284.57 L 1816.77,285.56 L 1818.64,288.12 L 1819.64,289.48 L 1822.01,292.71 L 1823.25,294.39 L 1826.04,298.19 L 1827.48,300.15 L 1830.62,304.42 L 1832.23,306.61 L 1835.65,311.24 L 1841.01,318.50 L 1842.83,320.97 L 1846.36,325.76 L 1848.10,328.11 L 1851.39,332.58 L 1853.00,334.76 L 1855.97,338.81 L 1857.41,340.77 L 1860.00,344.29 L 1861.24,345.98 L 1863.37,348.88 L 1864.37,350.25 L 1865.96,352.42 L 1866.32,352.92 L 1866.93,353.75 L 1867.21,354.14 L 1867.66,354.76 L 1867.86,355.05 L 1868.14,355.44 L 1868.35,355.75 L 1868.43,355.87 L 1868.31,356.09 L 1868.19,356.19 L 1867.65,356.36 L 1867.32,356.44 L 1866.28,356.58 L 1865.70,356.64 L 1864.10,356.74 L 1863.23,356.79 L 1861.02,356.86 L 1859.82,356.90 L 1856.92,356.94 L 1855.38,356.96 L 1851.72,356.99 L 1845.31,357.00 L 1821.50,357.00 L 1816.58,350.25 L 1815.90,349.32 L 1814.26,347.08 L 1813.41,345.91 L 1811.59,343.43 L 1810.68,342.18 L 1808.90,339.75 L 1806.51,336.50 L 1805.80,335.54 L 1804.04,333.13 L 1803.13,331.88 L 1801.14,329.13 L 1800.14,327.75 L 1798.15,325.01 L 1795.45,321.25 L 1794.63,320.12 L 1793.09,318.05 L 1792.35,317.06 L 1791.06,315.42 L 1790.46,314.68 L 1789.56,313.65 L 1788.82,313.00 L 1788.79,313.00 L 1788.56,313.26 L 1788.41,313.43 L 1787.93,314.02 L 1787.66,314.35 L 1786.95,315.26 L 1786.56,315.74 L 1785.64,316.94 L 1785.15,317.58 L 1784.02,319.05 L 1783.43,319.82 L 1782.11,321.56 L 1781.43,322.46 L 1779.94,324.44 L 1779.17,325.46 L 1777.51,327.67 L 1775.81,329.94 L 1771.97,335.07 L 1769.98,337.73 L 1765.65,343.56 L 1763.43,346.54 L 1758.71,352.92 L 1751.30,362.95 L 1714.50,412.91 L 1690.75,412.95 L 1687.48,412.96 L 1681.53,412.93 L 1680.11,412.92 L 1677.49,412.90 L 1676.23,412.88 L 1673.98,412.84 L 1672.90,412.82 L 1671.07,412.78 L 1670.21,412.75 L 1668.87,412.70 L 1668.27,412.67 L 1667.48,412.61 L 1667.17,412.58 L 1667.00,412.52 L 1667.00,412.48 L 1667.42,411.85 L 1667.70,411.45 L 1668.63,410.14 L 1669.16,409.40 L 1670.54,407.49 L 1671.29,406.46 L 1673.07,404.02 L 1674.01,402.74 L 1676.13,399.85 L 1677.23,398.35 L 1679.64,395.09 L 1680.88,393.42 L 1683.51,389.85 L 1687.66,384.27 L 1688.94,382.55 L 1691.33,379.34 L 1692.51,377.76 L 1694.71,374.80 L 1695.79,373.35 L 1697.82,370.62 L 1698.82,369.27 L 1700.70,366.74 L 1702.56,364.25 L 1705.91,359.73 L 1707.54,357.54 L 1710.57,353.44 L 1713.56,349.41 L 1719.32,341.62 L 1720.80,339.62 L 1723.91,335.39 L 1729.00,328.50 L 1731.10,325.64 L 1735.02,320.33 L 1736.94,317.73 L 1740.47,312.94 L 1742.19,310.62 L 1745.34,306.37 L 1746.86,304.31 L 1749.61,300.60 L 1750.94,298.81 L 1753.29,295.65 L 1754.41,294.14 L 1756.36,291.54 L 1757.28,290.31 L 1758.82,288.26 L 1760.66,285.83 L 1761.26,285.06 L 1762.35,283.59 L 1762.87,282.88 L 1763.73,281.66 L 1764.12,281.09 L 1764.66,280.25 L 1765.00,279.57 L 1765.00,279.49 L 1764.55,278.73 L 1764.26,278.27 L 1763.33,276.88 L 1762.81,276.13 L 1761.52,274.29 L 1759.31,271.24 L 1758.70,270.41 L 1757.28,268.49 L 1756.54,267.48 L 1754.90,265.25 L 1754.05,264.10 L 1752.22,261.63 L 1751.28,260.36 L 1749.30,257.69 L 1747.30,254.98 L 1743.03,249.22 L 1740.89,246.32 L 1736.59,240.53 L 1734.46,237.66 L 1730.46,232.28 L 1729.50,230.98 L 1727.68,228.54 L 1726.79,227.35 L 1725.17,225.16 L 1724.38,224.11 L 1722.98,222.23 L 1722.32,221.34 L 1721.20,219.84 L 1720.67,219.14 L 1719.87,218.07 L 1719.06,217.00 L 1718.69,216.52 L 1717.68,215.19 L 1717.15,214.48 L 1715.92,212.84 L 1712.15,207.75 L 1707.94,202.00 L 1731.93,202.00 L 1755.92,202.00 L 1770.63,222.75 L 1772.65,225.60 L 1776.47,230.99 L 1777.40,232.28 L 1779.13,234.72 L 1779.98,235.91 L 1781.53,238.07 L 1782.27,239.12 L 1783.59,240.95 L 1784.21,241.82 L 1785.24,243.26 L 1785.72,243.92 L 1786.43,244.90 L 1787.08,245.78 L 1788.84,248.06 L 1804.58,226.28 L 1806.74,223.29 L 1811.09,217.28 L 1813.23,214.33 L 1817.17,208.88 L 1818.12,207.58 L 1819.85,205.19 L 1820.68,204.04 L 1822.16,202.01 L 1822.86,201.05 L 1824.02,199.45 L 1825.35,197.62 L 1830.38,190.75 L 1828.55,183.67 L 1828.32,182.77 L 1827.89,180.79 L 1827.68,179.76 L 1827.29,177.47 L 1827.10,176.28 L 1826.74,173.63 L 1826.56,172.24 L 1826.22,169.16 L 1826.06,167.55 L 1825.74,163.97 L 1825.58,162.12 L 1825.27,157.99 L 1825.12,155.86 L 1824.93,152.83 L 1825.27,156.05 L 1825.60,158.51 L 1827.07,168.53 L 1828.03,173.36 L 1828.80,177.22 L 1829.24,179.51 L 1829.42,180.44 L 1829.74,182.13 L 1829.84,182.68 L 1830.00,183.55 L 1830.00,183.61 L 1830.12,183.81 L 1830.31,183.88 L 1830.77,184.00 L 1831.07,184.00 L 1831.67,183.49 L 1831.76,182.73 L 1831.62,182.25 L 1831.30,180.99 L 1831.08,179.94 L 1830.96,179.31 L 1830.49,176.54 L 1830.24,174.84 L 1829.73,171.26 L 1829.48,169.24 L 1828.97,165.08 L 1828.73,162.88 L 1828.05,156.27 L 1828.13,156.76 L 1828.21,157.26 L 1828.42,158.45 L 1828.63,159.69 L 1829.18,162.77 L 1829.46,164.38 L 1830.10,167.90 L 1831.08,173.24 L 1833.46,185.98 L 1835.84,182.95 L 1836.17,182.53 L 1837.17,181.20 L 1837.72,180.47 L 1839.04,178.69 L 1840.41,176.83 L 1843.40,172.71 L 1843.75,172.21 L 1844.60,171.04 L 1845.04,170.42 L 1846.03,169.05 L 1847.04,167.64 L 1849.36,164.43 L 1850.54,162.79 L 1852.96,159.42 L 1856.41,154.64 L 1857.41,153.25 L 1859.06,150.91 L 1859.83,149.80 L 1861.02,147.99 L 1861.56,147.14 L 1862.31,145.77 L 1862.63,145.14 L 1862.96,144.18 L 1863.07,143.74 L 1862.98,143.10 L 1862.89,142.82 L 1862.41,142.44 L 1862.13,142.28 L 1861.27,142.11 L 1859.59,142.02 L 1859.32,142.01 L 1858.54,141.92 L 1858.12,141.85 L 1857.04,141.63 L 1856.45,141.51 L 1855.05,141.16 L 1854.31,140.97 L 1852.59,140.50 L 1851.69,140.24 L 1849.63,139.64 L 1848.56,139.32 L 1846.17,138.58 L 1844.93,138.19 L 1842.19,137.32 L 1837.68,135.86 L 1836.47,135.46 L 1834.18,134.78 L 1833.08,134.47 L 1831.18,133.99 L 1830.29,133.78 L 1828.99,133.55 L 1827.93,133.54 L 1827.79,133.63 L 1827.57,134.39 L 1827.46,134.86 L 1827.31,136.27 L 1827.24,137.03 L 1827.15,138.92 L 1827.12,139.91 L 1827.10,142.12 L 1827.10,144.38 L 1827.16,145.76 L 1827.11,145.11 L 1826.98,143.12 L 1826.76,139.25 L 1826.70,137.58 L 1826.53,135.07 L 1826.35,133.67 L 1826.22,133.12 L 1825.95,132.14 L 1825.79,131.82 L 1825.44,131.31 L 1825.25,131.25 L 1824.80,131.36 L 1824.55,131.71 L 1824.45,132.01 L 1824.27,132.70 L 1824.20,133.15 L 1824.07,134.14 L 1824.03,134.74 L 1823.97,136.12 L 1823.70,131.05 L 1817.60,127.88 L 1813.66,125.84 L 1806.50,121.52 L 1803.04,119.32 L 1796.83,114.68 L 1793.85,112.33 L 1788.62,107.40 L 1781.90,99.69 L 1781.09,98.61 L 1779.61,96.55 L 1778.90,95.56 L 1777.73,93.80 L 1777.20,92.97 L 1776.47,91.71 L 1776.00,90.60 L 1776.00,90.43 L 1776.45,89.91 L 1776.75,89.62 L 1777.69,88.95 L 1778.21,88.61 L 1779.52,87.87 L 1781.75,86.78 L 1784.06,85.76 L 1788.38,83.86 L 1790.49,82.94 L 1794.45,81.22 L 1796.38,80.38 L 1800.02,78.81 L 1801.81,78.05 L 1805.18,76.63 L 1808.50,75.23 L 1814.55,72.76 L 1823.16,69.37 L 1835.83,64.50 L 1839.11,57.00 L 1839.67,55.71 L 1841.11,52.66 L 1841.88,51.07 L 1843.63,47.59 L 1845.44,44.04 L 1849.52,36.53 L 1850.53,34.69 L 1852.54,31.16 L 1853.53,29.44 L 1855.39,26.31 L 1856.29,24.82 L 1857.89,22.29 L 1859.87,19.41 L 1860.51,18.57 L 1861.72,17.09 L 1862.33,16.39 L 1863.52,15.16 L 1864.72,13.99 L 1867.26,12.25 L 1868.58,11.47 L 1871.69,10.32 L 1872.53,10.06 L 1874.37,9.61 L 1877.46,9.01 L 1879.68,8.63 L 1884.32,8.20 L 1886.67,8.04 M 95.83,145.68 L 98.38,145.68 L 103.03,145.70 L 105.28,145.72 L 109.37,145.75 L 111.36,145.78 L 114.95,145.84 L 116.69,145.88 L 119.85,145.96 L 121.38,146.01 L 124.15,146.13 L 125.50,146.19 L 127.94,146.34 L 129.13,146.42 L 131.31,146.61 L 133.44,146.80 L 137.13,147.30 L 147.46,149.46 L 149.91,150.09 L 154.59,151.55 L 156.90,152.31 L 161.28,154.07 L 163.43,154.98 L 167.52,157.04 L 169.53,158.10 L 173.33,160.46 L 175.19,161.68 L 178.70,164.34 L 180.42,165.72 L 183.65,168.70 L 185.23,170.23 L 188.18,173.53 L 189.62,175.23 L 192.30,178.86 L 193.60,180.71 L 196.01,184.68 L 197.18,186.70 L 199.31,191.00 L 200.35,193.19 L 202.23,197.84 L 203.13,200.20 L 204.75,205.19 L 205.52,207.73 L 206.88,213.08 L 207.53,215.80 L 208.64,221.50 L 209.17,224.40 L 210.03,230.48 L 211.05,240.00 L 211.40,244.10 L 211.67,252.23 L 211.73,256.27 L 211.43,264.21 L 211.21,268.15 L 210.36,275.80 L 209.87,279.59 L 208.50,286.88 L 207.75,290.47 L 205.86,297.30 L 204.86,300.65 L 202.48,306.94 L 201.24,310.01 L 198.39,315.67 L 193.61,323.35 L 192.11,325.43 L 188.89,329.32 L 187.24,331.22 L 183.75,334.71 L 181.97,336.41 L 178.20,339.52 L 176.28,341.03 L 172.24,343.74 L 170.19,345.04 L 165.89,347.36 L 163.70,348.47 L 159.14,350.38 L 156.83,351.29 L 152.01,352.80 L 144.50,354.61 L 143.52,354.80 L 141.43,355.12 L 140.33,355.28 L 137.74,355.54 L 136.36,355.66 L 132.96,355.87 L 132.04,355.92 L 130.00,356.00 L 128.94,356.05 L 126.58,356.13 L 125.36,356.16 L 122.64,356.23 L 121.23,356.27 L 118.11,356.33 L 116.50,356.36 L 112.94,356.41 L 111.10,356.44 L 107.06,356.49 L 104.98,356.51 L 100.42,356.56 L 98.07,356.58 L 92.94,356.62 L 90.30,356.64 L 84.57,356.68 L 75.25,356.75 L 15.00,357.13 L 15.00,146.02 L 68.25,145.76 L 71.87,145.74 L 78.53,145.71 L 81.76,145.70 L 87.69,145.69 L 90.57,145.68 M 711.00,233.90 L 666.75,234.20 L 664.23,234.22 L 659.60,234.25 L 657.35,234.27 L 653.24,234.30 L 651.25,234.32 L 647.63,234.36 L 645.87,234.37 L 642.70,234.41 L 641.17,234.44 L 638.41,234.48 L 637.08,234.50 L 634.70,234.56 L 633.56,234.58 L 631.53,234.64 L 630.55,234.67 L 628.84,234.74 L 627.19,234.82 L 624.68,235.00 L 623.53,235.09 L 621.82,235.33 L 621.03,235.46 L 619.83,235.77 L 618.31,236.33 L 617.02,236.90 L 614.99,238.22 L 614.05,238.92 L 612.66,240.63 L 612.03,241.55 L 611.15,243.81 L 610.31,248.01 L 610.18,249.16 L 610.07,250.81 L 610.06,251.56 L 610.33,252.71 L 610.51,253.26 L 611.28,254.35 L 613.16,256.36 L 613.63,256.83 L 614.81,257.78 L 615.42,258.25 L 616.75,259.11 L 617.42,259.52 L 618.74,260.19 L 620.55,260.89 L 620.84,260.97 L 621.85,261.13 L 622.41,261.20 L 623.93,261.34 L 624.74,261.41 L 626.72,261.53 L 627.76,261.59 L 630.16,261.69 L 631.40,261.74 L 634.17,261.82 L 635.60,261.86 L 638.70,261.92 L 649.00,262.00 L 652.21,262.00 L 657.83,262.05 L 660.52,262.07 L 665.22,262.18 L 667.47,262.24 L 671.38,262.42 L 673.25,262.52 L 676.53,262.80 L 678.10,262.95 L 680.88,263.32 L 682.22,263.53 L 684.65,264.02 L 691.31,266.01 L 693.59,266.87 L 697.69,268.79 L 699.67,269.78 L 703.16,272.01 L 704.83,273.16 L 707.74,275.73 L 709.12,277.06 L 711.47,280.01 L 712.58,281.53 L 714.40,284.89 L 715.25,286.63 L 716.57,290.44 L 717.17,292.40 L 718.01,296.70 L 718.75,303.73 L 718.91,306.54 L 718.82,311.66 L 718.71,314.15 L 718.03,318.82 L 717.61,321.13 L 716.30,325.63 L 713.57,332.50 L 712.46,334.88 L 709.84,339.18 L 708.47,341.25 L 705.34,344.90 L 703.72,346.64 L 700.11,349.60 L 694.21,353.22 L 687.55,356.50 L 629.27,356.79 L 571.00,357.08 L 571.00,325.07 L 618.75,324.79 L 621.66,324.77 L 626.96,324.74 L 629.52,324.72 L 634.17,324.69 L 636.42,324.67 L 640.47,324.64 L 642.43,324.62 L 645.93,324.58 L 647.61,324.56 L 650.61,324.52 L 652.05,324.50 L 654.58,324.44 L 655.80,324.42 L 657.92,324.36 L 658.94,324.32 L 660.70,324.25 L 661.54,324.21 L 662.99,324.12 L 663.68,324.07 L 664.85,323.96 L 665.97,323.85 L 667.61,323.57 L 668.35,323.42 L 669.53,323.04 L 671.18,322.34 L 672.57,321.70 L 674.74,320.17 L 675.74,319.36 L 677.17,317.41 L 677.80,316.38 L 678.56,313.91 L 679.00,309.50 L 679.00,307.82 L 678.59,305.08 L 678.30,303.80 L 677.22,301.73 L 676.59,300.75 L 674.71,299.14 L 670.85,297.03 L 669.61,296.50 L 667.25,295.77 L 666.59,295.61 L 665.02,295.35 L 664.17,295.23 L 662.05,295.03 L 660.90,294.94 L 658.01,294.80 L 657.23,294.76 L 655.48,294.70 L 654.57,294.67 L 652.55,294.61 L 651.51,294.58 L 649.19,294.53 L 647.99,294.50 L 645.35,294.45 L 643.98,294.43 L 640.98,294.37 L 636.05,294.29 L 633.11,294.24 L 627.92,294.14 L 625.44,294.09 L 621.08,293.97 L 619.00,293.91 L 615.36,293.77 L 613.61,293.70 L 610.56,293.53 L 609.10,293.44 L 606.53,293.23 L 605.29,293.12 L 603.07,292.87 L 597.16,291.92 L 594.71,291.42 L 590.41,290.27 L 588.36,289.67 L 584.81,288.24 L 583.13,287.47 L 580.26,285.67 L 578.90,284.71 L 576.63,282.44 L 575.56,281.24 L 573.80,278.42 L 572.97,276.93 L 571.65,273.47 L 571.03,271.65 L 570.07,267.45 L 568.93,260.25 L 568.67,258.10 L 568.41,253.87 L 568.32,251.76 L 568.38,247.65 L 568.46,245.61 L 568.85,241.67 L 569.08,239.72 L 569.78,236.00 L 570.17,234.16 L 571.17,230.70 L 571.71,229.01 L 573.01,225.85 L 573.69,224.32 L 575.27,221.52 L 577.94,217.78 L 578.43,217.20 L 579.63,216.01 L 580.26,215.42 L 581.73,214.22 L 583.26,213.02 L 586.94,210.69 L 588.86,209.55 L 593.09,207.48 L 599.69,204.87 L 600.53,204.59 L 602.05,204.14 L 602.82,203.92 L 604.54,203.58 L 605.47,203.41 L 607.83,203.16 L 608.48,203.10 L 609.97,203.00 L 610.76,202.95 L 612.56,202.86 L 613.50,202.82 L 615.66,202.75 L 616.79,202.71 L 619.36,202.65 L 620.71,202.62 L 623.75,202.57 L 625.34,202.54 L 628.90,202.50 L 630.75,202.48 L 634.90,202.43 L 637.04,202.41 L 641.82,202.38 L 644.28,202.36 L 649.74,202.32 L 658.75,202.25 L 711.00,201.90 M 911.00,202.00 L 935.75,202.01 L 938.32,202.01 L 942.79,202.03 L 944.93,202.05 L 948.65,202.10 L 950.43,202.13 L 953.52,202.21 L 955.00,202.26 L 957.60,202.39 L 958.84,202.46 L 961.07,202.64 L 962.15,202.74 L 964.15,202.98 L 969.87,203.96 L 972.09,204.42 L 976.28,205.54 L 978.34,206.14 L 982.20,207.53 L 984.09,208.26 L 987.61,209.91 L 989.32,210.77 L 992.48,212.68 L 994.01,213.66 L 996.78,215.80 L 998.12,216.90 L 1000.51,219.28 L 1001.65,220.49 L 1003.62,223.08 L 1006.11,227.21 L 1006.80,228.59 L 1007.96,231.13 L 1008.50,232.40 L 1009.38,235.08 L 1009.78,236.49 L 1010.42,239.83 L 1010.56,240.73 L 1010.81,242.73 L 1010.93,243.77 L 1011.13,246.12 L 1011.23,247.33 L 1011.39,250.07 L 1011.47,251.50 L 1011.59,254.70 L 1011.65,256.36 L 1011.75,260.09 L 1011.79,262.02 L 1011.86,266.33 L 1011.89,268.56 L 1011.93,273.52 L 1011.95,276.09 L 1011.98,281.76 L 1011.99,284.69 L 1012.00,291.13 L 1012.02,301.74 L 1012.07,356.50 L 991.58,356.77 L 971.10,357.04 L 970.80,303.77 L 970.78,300.47 L 970.75,294.47 L 970.73,291.56 L 970.70,286.31 L 970.68,283.78 L 970.65,279.22 L 970.63,277.03 L 970.59,273.11 L 970.57,271.23 L 970.53,267.91 L 970.51,266.31 L 970.45,263.52 L 970.43,262.18 L 970.36,259.87 L 970.33,258.77 L 970.26,256.88 L 970.22,255.99 L 970.13,254.47 L 970.08,253.76 L 969.97,252.56 L 969.86,251.43 L 969.57,249.90 L 969.42,249.22 L 969.03,248.26 L 968.31,246.98 L 967.58,245.80 L 966.09,243.80 L 965.33,242.86 L 963.66,241.28 L 962.79,240.55 L 960.77,239.36 L 959.70,238.81 L 957.15,237.95 L 955.80,237.56 L 952.55,236.99 L 950.83,236.73 L 946.72,236.39 L 945.62,236.32 L 943.25,236.20 L 942.03,236.15 L 939.38,236.08 L 938.02,236.05 L 935.07,236.02 L 930.29,236.00 L 911.00,236.00 L 911.00,357.00 L 870.00,357.00 L 870.00,146.00 L 911.00,146.00 M 549.70,213.75 L 549.52,214.15 L 549.02,215.29 L 548.74,215.91 L 548.06,217.45 L 547.70,218.27 L 546.84,220.19 L 546.40,221.20 L 545.39,223.48 L 544.86,224.66 L 543.70,227.27 L 543.11,228.62 L 541.82,231.53 L 541.15,233.03 L 539.74,236.22 L 539.02,237.85 L 537.49,241.29 L 535.94,244.79 L 532.54,252.43 L 530.81,256.34 L 527.13,264.64 L 525.26,268.85 L 521.37,277.60 L 515.42,291.00 L 486.34,356.50 L 464.12,356.77 L 441.91,357.04 L 439.59,351.77 L 439.28,351.04 L 438.41,349.05 L 437.96,347.99 L 436.91,345.55 L 433.69,338.00 L 433.45,337.42 L 432.85,336.00 L 432.53,335.25 L 431.82,333.56 L 431.08,331.80 L 429.36,327.74 L 428.48,325.65 L 426.64,321.30 L 423.98,315.00 L 423.13,313.01 L 421.28,308.62 L 420.35,306.40 L 418.47,301.97 L 417.56,299.79 L 415.89,295.83 L 415.49,294.90 L 414.78,293.20 L 413.86,291.00 L 413.31,289.69 L 412.00,286.60 L 411.33,285.01 L 409.91,281.65 L 409.20,279.97 L 407.84,276.74 L 406.04,272.50 L 404.55,269.00 L 401.52,261.88 L 400.02,258.35 L 397.11,251.49 L 395.69,248.13 L 393.08,241.97 L 392.45,240.50 L 391.29,237.75 L 389.70,234.00 L 389.21,232.83 L 387.92,229.79 L 387.24,228.19 L 385.72,224.62 L 384.95,222.81 L 383.39,219.14 L 381.20,214.00 L 376.29,202.50 L 398.83,202.23 L 401.93,202.19 L 407.64,202.19 L 409.00,202.19 L 411.53,202.21 L 412.76,202.23 L 414.97,202.27 L 416.02,202.29 L 417.84,202.35 L 418.69,202.38 L 420.05,202.45 L 420.67,202.49 L 421.51,202.58 L 422.12,202.73 L 422.15,202.76 L 422.31,203.08 L 422.41,203.29 L 422.70,203.97 L 422.86,204.35 L 423.28,205.35 L 423.51,205.89 L 424.05,207.21 L 424.34,207.91 L 424.99,209.52 L 425.33,210.36 L 426.09,212.24 L 426.88,214.19 L 428.73,218.84 L 429.70,221.28 L 431.89,226.79 L 433.02,229.64 L 435.47,235.86 L 436.72,239.05 L 439.39,245.84 L 443.55,256.50 L 444.97,260.14 L 447.72,267.16 L 449.06,270.62 L 451.62,277.15 L 452.87,280.34 L 455.18,286.23 L 456.30,289.08 L 458.30,294.19 L 459.27,296.63 L 460.91,300.81 L 461.30,301.78 L 461.99,303.54 L 462.33,304.38 L 462.91,305.86 L 463.19,306.56 L 463.66,307.73 L 463.88,308.27 L 464.22,309.12 L 464.38,309.51 L 464.59,310.02 L 464.75,310.38 L 464.82,310.50 L 465.14,310.26 L 465.33,310.07 L 465.83,309.28 L 466.09,308.82 L 466.70,307.59 L 467.67,305.38 L 468.33,303.76 L 469.93,299.91 L 470.32,298.96 L 471.06,297.21 L 472.00,295.00 L 472.26,294.38 L 473.07,292.46 L 473.50,291.42 L 474.55,288.88 L 478.00,280.50 L 479.12,277.75 L 481.44,272.12 L 481.99,270.80 L 482.93,268.54 L 484.00,266.00 L 484.26,265.38 L 485.07,263.46 L 485.51,262.42 L 486.57,259.88 L 490.03,251.50 L 490.60,250.12 L 491.91,246.95 L 492.58,245.32 L 493.98,241.94 L 494.67,240.26 L 495.99,237.09 L 497.69,233.00 L 498.33,231.45 L 499.51,228.63 L 500.08,227.26 L 501.12,224.75 L 501.63,223.53 L 502.56,221.28 L 503.01,220.19 L 503.85,218.17 L 504.67,216.19 L 506.11,212.70 L 508.14,207.77 L 510.50,202.03 L 532.69,202.02 L 554.88,202.00 M 2417.00,202.00 L 2460.00,202.00 L 2460.00,233.00 L 2438.45,233.00 L 2416.89,233.00 L 2417.20,271.75 L 2417.21,274.09 L 2417.25,278.35 L 2417.27,280.42 L 2417.30,284.17 L 2417.32,285.98 L 2417.35,289.25 L 2417.37,290.83 L 2417.41,293.67 L 2417.43,295.03 L 2417.48,297.46 L 2417.50,298.63 L 2417.55,300.69 L 2417.58,301.69 L 2417.65,303.42 L 2417.68,304.25 L 2417.75,305.70 L 2417.83,307.09 L 2418.04,309.14 L 2418.15,310.07 L 2418.43,311.45 L 2418.58,312.08 L 2418.96,313.09 L 2419.64,314.50 L 2420.23,315.60 L 2421.70,317.81 L 2422.07,318.32 L 2422.75,319.20 L 2423.64,320.15 L 2424.05,320.51 L 2425.13,321.19 L 2425.71,321.52 L 2427.14,322.15 L 2427.90,322.45 L 2429.64,323.01 L 2430.56,323.29 L 2432.60,323.78 L 2433.66,324.02 L 2435.98,324.45 L 2437.17,324.65 L 2439.73,324.99 L 2448.25,325.71 L 2460.00,326.29 L 2460.00,357.00 L 2437.25,356.90 L 2435.36,356.89 L 2431.83,356.85 L 2430.10,356.83 L 2426.92,356.77 L 2425.37,356.74 L 2422.52,356.65 L 2421.14,356.60 L 2418.64,356.48 L 2417.43,356.42 L 2415.27,356.28 L 2414.24,356.21 L 2412.42,356.04 L 2411.56,355.95 L 2410.09,355.76 L 2409.40,355.66 L 2408.28,355.44 L 2406.82,355.12 L 2404.03,354.29 L 2402.66,353.85 L 2400.04,352.79 L 2398.76,352.23 L 2396.33,350.93 L 2395.14,350.25 L 2392.89,348.71 L 2391.79,347.92 L 2389.74,346.15 L 2388.74,345.24 L 2386.87,343.24 L 2385.97,342.22 L 2384.30,339.99 L 2382.04,336.41 L 2381.30,335.10 L 2380.08,332.73 L 2379.50,331.56 L 2378.57,329.14 L 2378.13,327.89 L 2377.44,325.02 L 2377.13,323.50 L 2376.64,319.79 L 2376.53,318.79 L 2376.34,316.57 L 2376.24,315.42 L 2376.09,312.85 L 2376.01,311.51 L 2375.88,308.55 L 2375.82,307.01 L 2375.72,303.59 L 2375.67,301.83 L 2375.58,297.92 L 2375.54,295.89 L 2375.47,291.44 L 2375.43,289.13 L 2375.37,284.08 L 2375.27,275.78 L 2374.80,233.06 L 2347.50,232.50 L 2347.22,217.25 L 2346.95,202.00 L 2375.00,202.00 L 2375.00,146.00 L 2417.00,146.00 M 2266.75,202.23 L 2269.13,202.25 L 2273.51,202.29 L 2275.65,202.31 L 2279.58,202.34 L 2281.49,202.36 L 2284.99,202.40 L 2286.69,202.42 L 2289.80,202.47 L 2291.30,202.49 L 2294.03,202.54 L 2295.35,202.56 L 2297.74,202.61 L 2298.90,202.64 L 2300.97,202.70 L 2301.97,202.74 L 2303.77,202.81 L 2305.49,202.88 L 2308.22,203.05 L 2309.48,203.15 L 2311.44,203.37 L 2312.35,203.49 L 2313.78,203.77 L 2315.59,204.27 L 2317.08,204.78 L 2319.87,205.99 L 2321.22,206.63 L 2323.65,208.08 L 2324.82,208.83 L 2326.79,210.45 L 2329.15,213.00 L 2329.62,213.65 L 2330.50,215.27 L 2330.92,216.14 L 2331.70,218.20 L 2332.07,219.28 L 2332.75,221.78 L 2333.07,223.08 L 2333.65,226.00 L 2333.93,227.52 L 2334.40,230.87 L 2334.62,232.60 L 2335.00,236.37 L 2335.17,238.31 L 2335.44,242.51 L 2335.73,249.27 L 2336.27,267.04 L 2297.50,266.50 L 2296.89,255.00 L 2296.79,253.17 L 2296.57,249.96 L 2296.46,248.43 L 2296.19,245.79 L 2296.05,244.53 L 2295.72,242.38 L 2295.55,241.36 L 2295.14,239.66 L 2294.93,238.86 L 2294.43,237.55 L 2294.16,236.94 L 2293.55,235.96 L 2293.24,235.51 L 2292.51,234.81 L 2291.26,234.01 L 2291.06,233.92 L 2290.46,233.73 L 2290.12,233.64 L 2289.27,233.45 L 2288.35,233.27 L 2285.92,232.94 L 2284.62,232.78 L 2281.61,232.51 L 2276.75,232.22 L 2265.00,231.75 L 2265.00,357.00 L 2223.00,357.00 L 2223.00,201.90 M 2197.00,234.00 L 2105.00,234.00 L 2105.00,263.00 L 2197.00,263.00 L 2197.00,295.00 L 2105.00,295.00 L 2105.00,325.00 L 2197.00,325.00 L 2197.00,357.00 L 2059.00,357.00 L 2059.00,202.00 L 2197.00,202.00 M 1690.00,182.00 L 1566.00,182.00 L 1566.00,231.00 L 1690.00,231.00 L 1690.00,267.00 L 1565.97,267.00 L 1566.23,293.75 L 1566.50,320.50 L 1628.25,320.76 L 1690.00,321.02 L 1690.00,357.00 L 1516.00,357.00 L 1516.00,146.00 L 1690.00,146.00 M 1283.75,202.25 L 1287.13,202.27 L 1293.26,202.32 L 1296.23,202.34 L 1301.62,202.39 L 1304.22,202.42 L 1308.91,202.48 L 1311.17,202.51 L 1315.24,202.59 L 1317.20,202.63 L 1320.71,202.73 L 1322.40,202.78 L 1325.42,202.92 L 1326.87,202.99 L 1329.47,203.16 L 1330.72,203.25 L 1332.95,203.47 L 1334.03,203.58 L 1335.98,203.85 L 1336.92,203.99 L 1338.64,204.32 L 1340.32,204.67 L 1343.28,205.57 L 1344.74,206.06 L 1347.66,207.29 L 1352.59,209.57 L 1354.82,210.62 L 1358.72,213.01 L 1360.59,214.26 L 1363.80,217.08 L 1365.32,218.55 L 1367.90,221.86 L 1371.11,227.42 L 1371.80,228.90 L 1372.95,231.64 L 1373.49,233.01 L 1374.36,235.90 L 1374.77,237.41 L 1375.40,240.94 L 1375.55,241.88 L 1375.80,243.97 L 1375.92,245.06 L 1376.13,247.47 L 1376.23,248.73 L 1376.39,251.53 L 1376.47,252.98 L 1376.59,256.23 L 1376.65,257.92 L 1376.75,261.67 L 1376.79,263.62 L 1376.86,267.94 L 1376.89,270.17 L 1376.93,275.12 L 1376.95,277.68 L 1376.97,283.31 L 1376.98,286.22 L 1376.99,292.61 L 1377.00,303.09 L 1377.00,357.00 L 1336.00,357.00 L 1335.98,306.75 L 1335.98,303.28 L 1335.98,296.93 L 1335.97,293.85 L 1335.95,288.24 L 1335.94,285.52 L 1335.91,280.60 L 1335.89,278.22 L 1335.84,273.93 L 1335.81,271.87 L 1335.73,268.17 L 1335.69,266.38 L 1335.58,263.22 L 1335.52,261.69 L 1335.38,259.01 L 1335.31,257.72 L 1335.13,255.47 L 1335.04,254.39 L 1334.82,252.52 L 1334.71,251.63 L 1334.44,250.08 L 1334.16,248.61 L 1333.45,246.44 L 1333.06,245.44 L 1332.10,243.92 L 1330.35,241.91 L 1329.76,241.33 L 1328.44,240.31 L 1327.75,239.83 L 1326.15,239.01 L 1325.30,238.63 L 1323.32,237.98 L 1322.27,237.68 L 1319.80,237.20 L 1318.49,236.98 L 1315.44,236.64 L 1313.83,236.48 L 1310.08,236.27 L 1308.12,236.17 L 1303.59,236.06 L 1295.79,236.00 L 1276.00,236.00 L 1276.00,357.00 L 1235.00,357.00 L 1235.00,201.89 M 1102.75,202.24 L 1105.81,202.26 L 1111.40,202.30 L 1114.11,202.31 L 1119.05,202.35 L 1121.44,202.37 L 1125.77,202.41 L 1127.86,202.43 L 1131.64,202.47 L 1133.46,202.49 L 1136.72,202.54 L 1138.30,202.57 L 1141.10,202.62 L 1142.45,202.65 L 1144.84,202.72 L 1145.99,202.75 L 1148.01,202.83 L 1148.98,202.87 L 1150.69,202.96 L 1151.51,203.00 L 1152.95,203.11 L 1154.33,203.22 L 1156.49,203.49 L 1157.50,203.64 L 1159.21,204.00 L 1161.69,204.66 L 1162.68,204.94 L 1164.86,205.69 L 1165.97,206.08 L 1168.18,206.95 L 1169.27,207.39 L 1171.26,208.29 L 1173.69,209.54 L 1174.58,210.06 L 1176.40,211.32 L 1177.32,211.98 L 1179.18,213.48 L 1181.03,215.04 L 1184.61,218.67 L 1186.34,220.54 L 1189.37,224.46 L 1190.08,225.43 L 1191.31,227.37 L 1192.86,230.17 L 1193.58,231.67 L 1194.78,234.43 L 1195.35,235.80 L 1196.26,238.67 L 1196.68,240.17 L 1197.35,243.64 L 1197.50,244.57 L 1197.76,246.62 L 1197.89,247.68 L 1198.10,250.04 L 1198.20,251.27 L 1198.37,254.01 L 1198.45,255.43 L 1198.58,258.60 L 1198.64,260.25 L 1198.74,263.92 L 1198.79,265.82 L 1198.85,270.05 L 1198.89,272.23 L 1198.93,277.07 L 1198.95,279.57 L 1198.97,285.09 L 1198.98,287.94 L 1198.99,294.19 L 1199.00,304.46 L 1199.00,357.00 L 1139.75,356.90 L 1136.84,356.89 L 1131.40,356.88 L 1128.74,356.87 L 1123.78,356.86 L 1121.36,356.85 L 1116.85,356.83 L 1114.65,356.81 L 1110.58,356.79 L 1108.60,356.77 L 1104.93,356.74 L 1103.15,356.72 L 1099.87,356.68 L 1098.28,356.66 L 1095.37,356.61 L 1093.95,356.59 L 1091.38,356.53 L 1090.14,356.51 L 1087.88,356.44 L 1086.79,356.41 L 1084.84,356.34 L 1082.95,356.27 L 1079.97,356.09 L 1078.60,356.00 L 1076.50,355.79 L 1075.55,355.67 L 1074.16,355.41 L 1072.47,355.04 L 1069.25,354.07 L 1067.67,353.54 L 1064.67,352.27 L 1063.20,351.59 L 1060.42,350.02 L 1059.07,349.19 L 1056.54,347.33 L 1055.30,346.36 L 1053.02,344.21 L 1051.91,343.11 L 1049.88,340.69 L 1048.90,339.44 L 1047.14,336.75 L 1044.82,332.43 L 1044.20,331.10 L 1043.28,328.79 L 1042.87,327.66 L 1042.28,325.37 L 1042.02,324.18 L 1041.67,321.43 L 1041.59,320.69 L 1041.46,319.04 L 1041.28,316.25 L 1041.11,313.16 L 1041.17,307.46 L 1041.27,304.68 L 1041.86,299.59 L 1042.23,297.11 L 1043.37,292.60 L 1044.00,290.42 L 1045.69,286.48 L 1046.61,284.58 L 1048.86,281.19 L 1050.05,279.56 L 1052.87,276.71 L 1054.35,275.35 L 1057.75,273.01 L 1063.51,270.06 L 1065.26,269.33 L 1068.41,268.11 L 1069.95,267.54 L 1072.94,266.59 L 1074.44,266.15 L 1077.61,265.44 L 1079.25,265.11 L 1082.94,264.60 L 1084.88,264.36 L 1089.43,264.00 L 1090.64,263.92 L 1093.27,263.78 L 1094.63,263.71 L 1097.59,263.59 L 1099.12,263.53 L 1102.47,263.43 L 1104.19,263.38 L 1107.95,263.29 L 1109.88,263.25 L 1114.10,263.17 L 1121.00,263.06 L 1156.50,262.50 L 1156.41,258.00 L 1156.37,256.46 L 1155.99,253.41 L 1155.75,251.90 L 1155.01,249.08 L 1154.60,247.72 L 1153.55,245.33 L 1151.72,242.47 L 1151.41,242.12 L 1150.30,241.27 L 1149.68,240.83 L 1148.09,239.89 L 1142.50,237.26 L 1135.50,234.59 L 1093.25,234.21 L 1051.00,233.83 L 1051.00,201.90 M 782.52,146.00 L 803.00,146.00 L 803.00,202.00 L 846.00,202.00 L 846.00,233.00 L 802.89,233.00 L 803.50,309.50 L 806.00,314.48 L 806.75,315.99 L 808.70,318.61 L 809.20,319.20 L 810.22,320.20 L 811.73,321.31 L 812.26,321.61 L 813.68,322.20 L 814.44,322.49 L 816.28,323.05 L 817.24,323.32 L 819.40,323.83 L 820.51,324.08 L 822.91,324.53 L 825.35,324.95 L 830.58,325.56 L 838.25,325.97 L 846.00,326.00 L 846.00,357.00 L 823.25,356.90 L 821.35,356.89 L 817.82,356.85 L 816.09,356.83 L 812.90,356.77 L 811.35,356.74 L 808.51,356.65 L 807.13,356.60 L 804.63,356.48 L 803.42,356.42 L 801.26,356.28 L 800.23,356.21 L 798.41,356.04 L 797.55,355.95 L 796.08,355.75 L 795.39,355.65 L 794.26,355.43 L 792.36,355.02 L 788.83,353.91 L 787.11,353.31 L 783.92,351.83 L 782.37,351.04 L 779.52,349.18 L 778.13,348.19 L 775.60,345.93 L 774.37,344.75 L 772.15,342.08 L 771.08,340.70 L 769.16,337.61 L 768.24,336.02 L 766.61,332.51 L 764.48,326.75 L 763.86,324.78 L 763.05,321.54 L 762.87,320.65 L 762.61,318.55 L 762.48,317.41 L 762.31,314.51 L 762.27,313.72 L 762.21,311.91 L 762.18,310.97 L 762.13,308.83 L 762.11,307.71 L 762.08,305.19 L 762.06,303.87 L 762.04,300.91 L 762.03,299.37 L 762.02,295.92 L 762.01,294.14 L 762.00,290.16 L 762.00,288.09 L 762.00,283.53 L 762.00,275.98 L 762.00,233.05 L 747.75,232.78 L 733.50,232.50 L 733.22,217.28 L 732.95,202.06 L 747.22,201.78 L 761.50,201.50 L 761.77,173.75 L 762.03,146.00 M 367.00,234.00 L 275.00,234.00 L 275.00,263.00 L 367.00,263.00 L 367.00,295.00 L 275.00,295.00 L 275.00,325.00 L 367.00,325.00 L 367.00,357.00 L 230.00,357.00 L 230.00,202.00 L 367.00,202.00 M 1126.78,294.18 L 1124.99,294.20 L 1121.73,294.24 L 1120.14,294.26 L 1117.25,294.29 L 1115.86,294.31 L 1113.32,294.35 L 1112.10,294.37 L 1109.89,294.41 L 1108.82,294.43 L 1106.90,294.48 L 1105.98,294.51 L 1104.33,294.56 L 1102.74,294.62 L 1100.24,294.77 L 1099.09,294.85 L 1097.29,295.06 L 1096.46,295.17 L 1095.13,295.46 L 1091.82,296.66 L 1090.98,297.05 L 1089.45,298.06 L 1088.72,298.60 L 1087.43,299.88 L 1086.82,300.55 L 1085.79,302.05 L 1085.30,302.82 L 1084.54,304.51 L 1084.20,305.38 L 1083.72,307.22 L 1083.52,308.15 L 1083.34,310.09 L 1083.30,311.08 L 1083.44,313.09 L 1084.03,316.14 L 1084.33,317.23 L 1085.10,319.06 L 1085.53,319.92 L 1086.74,321.34 L 1087.43,322.00 L 1089.31,323.04 L 1090.35,323.53 L 1093.13,324.26 L 1093.89,324.42 L 1095.63,324.70 L 1096.53,324.83 L 1098.57,325.05 L 1099.63,325.15 L 1102.00,325.32 L 1103.23,325.39 L 1105.96,325.50 L 1107.37,325.55 L 1110.50,325.62 L 1112.11,325.65 L 1115.65,325.68 L 1117.48,325.70 L 1121.47,325.70 L 1128.00,325.67 L 1156.50,325.50 L 1156.78,309.68 L 1157.05,293.87 M 1938.09,235.55 L 1929.00,236.26 L 1929.00,282.43 L 1929.01,288.15 L 1929.02,290.97 L 1929.05,296.29 L 1929.07,298.89 L 1929.11,303.69 L 1929.14,306.01 L 1929.20,310.17 L 1929.23,312.16 L 1929.29,315.56 L 1929.33,317.15 L 1929.41,319.67 L 1929.45,320.80 L 1929.53,322.32 L 1929.55,322.63 L 1929.60,323.04 L 1929.67,323.33 L 1929.74,323.41 L 1930.11,323.54 L 1930.33,323.60 L 1930.97,323.71 L 1931.67,323.81 L 1933.76,323.93 L 1934.90,323.98 L 1937.70,324.00 L 1939.16,324.01 L 1942.45,323.94 L 1945.82,323.86 L 1953.10,323.44 L 1954.89,323.32 L 1958.34,323.02 L 1960.01,322.86 L 1963.06,322.49 L 1965.63,322.16 L 1970.15,321.42 L 1972.32,321.04 L 1976.12,320.18 L 1977.94,319.73 L 1981.10,318.71 L 1982.60,318.17 L 1985.21,316.93 L 1986.45,316.28 L 1988.59,314.79 L 1989.61,314.00 L 1991.37,312.21 L 1992.21,311.27 L 1993.67,309.12 L 1995.63,305.47 L 1996.39,303.82 L 1997.61,299.86 L 1998.17,297.79 L 1998.99,293.17 L 1999.35,290.80 L 1999.78,285.77 L 1999.94,283.22 L 1999.98,278.02 L 1999.95,275.43 L 1999.60,270.31 L 1999.38,267.78 L 1998.64,262.98 L 1998.22,260.65 L 1997.10,256.42 L 1995.00,251.00 L 1994.44,249.90 L 1993.36,248.00 L 1992.82,247.09 L 1991.70,245.55 L 1991.12,244.82 L 1989.87,243.58 L 1989.21,242.99 L 1987.72,241.99 L 1986.93,241.52 L 1985.10,240.69 L 1984.13,240.30 L 1981.87,239.60 L 1980.68,239.26 L 1977.89,238.63 L 1973.00,237.68 L 1969.93,237.13 L 1963.83,236.30 L 1960.79,235.94 L 1954.84,235.48 L 1951.90,235.30 L 1946.21,235.23 M 60.00,320.12 L 95.25,319.76 L 97.13,319.75 L 100.61,319.71 L 102.31,319.69 L 105.44,319.65 L 106.97,319.63 L 109.77,319.59 L 111.14,319.57 L 113.64,319.52 L 114.85,319.50 L 117.07,319.45 L 118.14,319.42 L 120.10,319.36 L 121.99,319.30 L 125.09,319.16 L 126.54,319.09 L 128.88,318.91 L 129.97,318.82 L 131.73,318.59 L 132.56,318.47 L 133.92,318.18 L 134.56,318.03 L 135.69,317.68 L 137.08,317.22 L 139.73,315.94 L 141.04,315.24 L 143.53,313.49 L 144.76,312.56 L 147.07,310.36 L 148.21,309.21 L 150.34,306.58 L 151.38,305.21 L 153.31,302.18 L 154.24,300.61 L 155.95,297.18 L 156.78,295.41 L 158.26,291.61 L 160.20,285.50 L 160.70,283.67 L 161.39,280.43 L 161.54,279.59 L 161.78,277.77 L 161.88,276.82 L 162.05,274.61 L 162.12,273.45 L 162.22,270.66 L 162.26,269.18 L 162.31,265.61 L 162.33,264.66 L 162.34,262.58 L 162.35,261.51 L 162.35,259.16 L 162.35,257.95 L 162.35,255.31 L 162.35,251.00 L 162.35,249.51 L 162.34,246.76 L 162.33,245.42 L 162.32,242.96 L 162.31,240.57 L 162.26,236.56 L 162.23,234.67 L 162.14,231.51 L 162.10,230.02 L 161.96,227.52 L 161.88,226.34 L 161.69,224.33 L 161.58,223.36 L 161.31,221.63 L 160.16,216.63 L 159.78,215.23 L 159.02,212.69 L 158.64,211.47 L 157.85,209.24 L 157.06,207.08 L 155.23,203.41 L 154.26,201.64 L 151.87,198.37 L 147.33,193.33 L 146.14,192.13 L 144.10,190.25 L 143.12,189.39 L 141.34,188.08 L 140.46,187.49 L 138.70,186.58 L 135.83,185.51 L 134.88,185.22 L 132.53,184.70 L 131.28,184.44 L 128.32,183.99 L 126.77,183.78 L 123.21,183.40 L 121.35,183.22 L 117.18,182.91 L 115.02,182.77 L 110.23,182.53 L 107.75,182.42 L 102.34,182.25 L 99.56,182.18 L 93.52,182.09 L 83.75,182.02 L 60.00,182.00 M 1842.81,221.31 L 1842.32,221.49 L 1842.08,221.70 L 1841.59,222.21 L 1841.31,222.59 L 1840.49,224.26 L 1840.29,225.32 L 1840.42,225.66 L 1840.50,226.61 L 1840.26,227.10 L 1840.02,227.19 L 1839.31,227.85 L 1838.91,228.59 L 1838.82,229.00 L 1838.38,230.22 L 1837.97,230.90 L 1837.77,231.05 L 1837.58,231.40 L 1837.42,231.86 L 1837.32,232.19 L 1836.91,233.77 L 1836.66,234.89 L 1836.14,237.31 L 1835.86,238.74 L 1835.30,241.73 L 1835.03,243.35 L 1834.17,248.06 L 1833.58,250.97 L 1833.31,252.20 L 1832.78,254.50 L 1832.56,255.33 L 1832.34,256.09 L 1832.25,256.37 L 1832.08,256.85 L 1832.01,256.98 L 1831.30,258.53 L 1831.00,259.39 L 1831.00,259.59 L 1831.21,259.78 L 1831.54,259.61 L 1832.34,259.10 L 1832.85,258.64 L 1834.46,256.47 L 1835.38,254.43 L 1835.78,253.10 L 1836.52,250.24 L 1836.82,248.49 L 1837.39,244.78 L 1837.61,242.58 L 1838.47,236.50 L 1838.83,234.55 L 1839.01,233.71 L 1839.37,232.14 L 1839.54,231.58 L 1840.25,229.53 L 1840.71,228.60 L 1840.97,228.32 L 1841.52,227.88 L 1841.86,227.80 L 1842.59,227.71 L 1843.06,227.77 L 1844.45,227.73 L 1845.23,227.51 L 1845.55,227.32 L 1846.13,226.90 L 1846.34,226.63 L 1846.71,226.06 L 1846.81,225.74 L 1846.96,224.38 L 1846.64,223.70 L 1846.25,223.04 L 1845.95,222.73 L 1845.28,222.15 L 1844.83,221.91 L 1843.68,221.39 L 1843.07,221.26 M 1905.46,152.27 L 1905.45,152.28 L 1904.96,152.96 L 1904.64,153.39 L 1903.60,154.84 L 1903.01,155.66 L 1901.46,157.80 L 1900.63,158.94 L 1898.65,161.68 L 1897.61,163.12 L 1895.25,166.38 L 1894.03,168.06 L 1891.37,171.75 L 1890.00,173.64 L 1887.09,177.67 L 1882.51,184.00 L 1880.95,186.17 L 1877.92,190.35 L 1876.42,192.42 L 1873.59,196.33 L 1872.20,198.24 L 1869.63,201.79 L 1868.38,203.52 L 1866.14,206.61 L 1865.06,208.10 L 1863.20,210.65 L 1862.33,211.86 L 1860.93,213.78 L 1860.29,214.65 L 1859.41,215.86 L 1858.75,216.75 L 1858.56,216.99 L 1858.37,217.36 L 1858.31,217.53 L 1858.38,217.76 L 1858.46,217.85 L 1858.82,217.94 L 1859.03,217.96 L 1859.69,217.90 L 1860.06,217.85 L 1861.03,217.64 L 1861.56,217.51 L 1862.86,217.15 L 1863.55,216.95 L 1865.20,216.44 L 1866.07,216.16 L 1868.07,215.49 L 1869.92,214.86 L 1873.18,213.71 L 1874.74,213.15 L 1877.45,212.12 L 1878.74,211.62 L 1880.94,210.68 L 1881.98,210.23 L 1883.70,209.37 L 1884.51,208.95 L 1885.81,208.15 L 1886.40,207.76 L 1887.30,206.99 L 1887.70,206.61 L 1888.25,205.87 L 1888.70,204.75 L 1888.82,204.13 L 1889.12,203.28 L 1889.29,202.91 L 1889.84,202.45 L 1890.16,202.26 L 1891.16,202.08 L 1893.39,202.00 L 1894.61,202.00 L 1896.85,201.56 L 1897.43,201.39 L 1898.71,200.84 L 1899.38,200.52 L 1900.91,199.62 L 1901.73,199.11 L 1903.65,197.78 L 1904.68,197.05 L 1907.12,195.22 L 1908.42,194.23 L 1911.50,191.80 L 1912.32,191.15 L 1914.10,189.74 L 1917.00,187.41 L 1918.90,185.89 L 1922.58,182.86 L 1924.39,181.35 L 1927.82,178.42 L 1929.50,176.98 L 1932.59,174.25 L 1934.08,172.91 L 1936.73,170.46 L 1937.99,169.28 L 1940.11,167.20 L 1941.10,166.21 L 1942.59,164.59 L 1943.25,163.85 L 1944.03,162.77 L 1944.17,162.54 L 1944.31,162.20 L 1944.28,161.88 L 1944.20,161.80 L 1943.64,161.55 L 1943.29,161.41 L 1942.27,161.06 L 1941.70,160.88 L 1940.27,160.44 L 1939.51,160.22 L 1937.76,159.72 L 1935.93,159.21 L 1931.59,158.06 L 1929.35,157.47 L 1924.62,156.28 L 1922.25,155.70 L 1917.67,154.61 L 1915.45,154.09 L 1911.60,153.24 L 1910.71,153.05 L 1909.16,152.74 L 1908.43,152.60 L 1907.25,152.39 L 1906.71,152.30 L 1905.98,152.23 M 1947.24,162.92 L 1946.15,163.58 L 1945.39,164.18 L 1943.74,165.55 L 1942.73,166.48 L 1940.59,168.50 L 1939.37,169.74 L 1935.63,173.31 L 1932.65,176.02 L 1930.97,177.49 L 1927.50,180.49 L 1925.65,182.05 L 1921.89,185.19 L 1919.97,186.75 L 1916.10,189.87 L 1914.20,191.37 L 1910.43,194.32 L 1908.64,195.68 L 1905.15,198.30 L 1903.57,199.43 L 1900.55,201.57 L 1899.28,202.41 L 1896.85,204.10 L 1895.43,205.20 L 1894.87,205.69 L 1893.84,206.63 L 1893.52,207.00 L 1893.02,207.66 L 1893.02,207.85 L 1893.08,208.08 L 1893.21,208.13 L 1893.52,208.18 L 1893.76,208.14 L 1894.94,207.81 L 1895.82,207.42 L 1897.74,206.50 L 1898.91,205.87 L 1901.38,204.48 L 1902.75,203.65 L 1905.58,201.90 L 1907.07,200.93 L 1910.07,198.94 L 1911.57,197.89 L 1914.55,195.77 L 1915.97,194.70 L 1918.75,192.56 L 1920.00,191.53 L 1924.06,187.99 L 1927.07,185.24 L 1928.66,183.73 L 1935.13,177.47 L 1938.10,174.45 L 1940.99,171.47 L 1942.24,170.13 L 1944.62,167.56 L 1945.54,166.51 L 1946.40,165.50 L 1946.75,165.07 L 1947.40,164.26 L 1947.63,163.94 L 1948.02,163.35 L 1948.11,163.16 L 1948.23,162.83 L 1948.17,162.77 M 1831.66,187.74 L 1831.62,188.83 L 1831.80,190.14 L 1831.98,191.02 L 1832.40,192.90 L 1832.69,193.98 L 1833.30,196.22 L 1833.67,197.40 L 1834.41,199.71 L 1834.77,200.74 L 1835.48,202.70 L 1835.80,203.47 L 1836.40,204.88 L 1836.63,205.32 L 1837.05,206.00 L 1837.17,206.00 L 1837.76,205.99 L 1837.85,205.87 L 1837.85,205.74 L 1837.84,205.42 L 1837.78,205.14 L 1837.63,204.49 L 1837.50,204.02 L 1837.21,202.96 L 1836.99,202.24 L 1836.52,200.67 L 1836.22,199.65 L 1835.56,197.45 L 1835.15,196.09 L 1834.00,192.52 L 1833.27,190.51 L 1832.95,189.75 L 1832.36,188.42 L 1832.14,188.07 L 1831.75,187.59 M 1887.01,12.11 L 1882.85,12.39 L 1880.89,12.61 L 1877.08,13.09 L 1875.38,13.40 L 1872.12,14.08 L 1870.76,14.48 L 1868.23,15.34 L 1867.31,15.84 L 1866.38,16.53 L 1865.63,17.24 L 1865.20,17.72 L 1864.31,18.74 L 1863.81,19.36 L 1862.79,20.66 L 1862.24,21.41 L 1859.93,24.63 L 1858.65,26.53 L 1856.03,30.52 L 1854.67,32.72 L 1851.90,37.23 L 1850.52,39.60 L 1847.76,44.39 L 1846.43,46.80 L 1843.83,51.62 L 1842.65,53.95 L 1840.36,58.55 L 1839.39,60.68 L 1836.12,67.85 L 1840.36,71.76 L 1844.12,74.89 L 1846.96,76.93 L 1848.54,77.93 L 1851.82,79.91 L 1853.64,80.88 L 1857.40,82.82 L 1859.46,83.78 L 1863.70,85.68 L 1866.02,86.62 L 1870.78,88.50 L 1873.36,89.44 L 1878.65,91.30 L 1881.51,92.23 L 1887.36,94.08 L 1890.50,95.01 L 1895.36,96.46 L 1898.35,97.35 L 1899.74,97.76 L 1902.44,98.58 L 1903.70,98.96 L 1906.14,99.70 L 1907.28,100.05 L 1911.61,101.40 L 1913.51,102.01 L 1917.17,103.21 L 1918.84,103.79 L 1925.19,106.06 L 1928.38,107.32 L 1931.63,108.62 L 1933.39,109.35 L 1937.02,110.87 L 1939.08,111.75 L 1947.92,115.79 L 1950.90,117.26 L 1952.32,117.99 L 1955.13,119.45 L 1956.41,120.14 L 1958.88,121.49 L 1959.93,122.10 L 1961.90,123.27 L 1962.65,123.75 L 1963.97,124.64 L 1964.33,124.96 L 1964.84,125.49 L 1964.73,125.60 L 1964.36,125.54 L 1963.82,125.37 L 1963.43,125.21 L 1962.57,124.87 L 1962.03,124.64 L 1960.88,124.15 L 1960.20,123.85 L 1957.28,122.54 L 1955.53,121.73 L 1951.89,120.02 L 1949.91,119.06 L 1942.51,115.71 L 1936.97,113.38 L 1934.00,112.21 L 1927.94,109.89 L 1924.83,108.76 L 1918.59,106.56 L 1915.50,105.55 L 1907.26,102.84 L 1901.97,101.09 L 1899.61,100.31 L 1897.32,99.54 L 1896.28,99.20 L 1894.27,98.53 L 1893.41,98.24 L 1891.77,97.69 L 1891.11,97.47 L 1889.91,97.06 L 1889.50,96.92 L 1886.52,95.92 L 1884.12,95.15 L 1882.83,94.74 L 1880.20,93.92 L 1878.90,93.52 L 1876.35,92.75 L 1875.20,92.41 L 1864.32,88.50 L 1857.27,85.26 L 1854.02,83.42 L 1850.82,81.56 L 1849.31,80.58 L 1846.38,78.62 L 1845.03,77.61 L 1842.41,75.58 L 1841.25,74.55 L 1839.02,72.49 L 1838.07,71.46 L 1833.95,66.99 L 1830.22,68.86 L 1829.23,69.34 L 1828.35,69.73 L 1827.82,69.96 L 1825.46,70.96 L 1824.02,71.54 L 1821.00,72.77 L 1819.36,73.41 L 1816.01,74.72 L 1814.34,75.35 L 1809.30,77.32 L 1805.64,78.80 L 1803.73,79.59 L 1796.00,82.85 L 1792.41,84.43 L 1788.91,85.99 L 1787.34,86.70 L 1784.34,88.08 L 1783.11,88.67 L 1780.86,89.77 L 1780.08,90.19 L 1779.37,90.57 L 1779.12,90.73 L 1778.69,91.00 L 1778.59,91.10 L 1778.36,91.61 L 1778.38,92.09 L 1778.47,92.39 L 1779.03,93.77 L 1779.58,94.66 L 1780.86,96.56 L 1781.72,97.66 L 1783.58,99.94 L 1784.67,101.16 L 1786.97,103.65 L 1788.23,104.93 L 1790.83,107.48 L 1792.19,108.72 L 1794.95,111.18 L 1796.33,112.32 L 1799.11,114.52 L 1800.45,115.48 L 1807.30,119.91 L 1812.30,122.77 L 1815.01,124.14 L 1820.57,126.85 L 1823.54,128.14 L 1829.61,130.68 L 1832.83,131.89 L 1839.38,134.25 L 1842.82,135.36 L 1849.82,137.54 L 1853.47,138.55 L 1860.87,140.52 L 1864.71,141.43 L 1872.49,143.18 L 1876.50,143.97 L 1881.56,144.97 L 1885.30,145.71 L 1887.21,146.09 L 1891.00,146.84 L 1892.75,147.19 L 1896.12,147.86 L 1897.50,148.14 L 1917.28,152.47 L 1923.75,154.04 L 1926.88,154.85 L 1933.08,156.47 L 1936.03,157.29 L 1941.84,158.94 L 1944.55,159.76 L 1949.84,161.40 L 1952.25,162.20 L 1956.90,163.78 L 1958.95,164.55 L 1962.84,166.05 L 1964.45,166.76 L 1968.15,168.50 L 1970.94,169.91 L 1972.44,170.72 L 1978.73,174.15 L 1981.93,176.03 L 1985.13,177.92 L 1986.66,178.86 L 1989.68,180.73 L 1991.07,181.63 L 1993.76,183.38 L 1994.93,184.19 L 1997.13,185.74 L 1998.00,186.41 L 1999.22,187.33 L 1999.77,187.70 L 2000.83,188.39 L 2001.26,188.63 L 2002.06,189.04 L 2002.32,189.12 L 2002.75,189.19 L 2002.79,189.07 L 2002.73,188.04 L 2002.45,186.90 L 2002.21,186.14 L 2001.66,184.52 L 2001.31,183.57 L 2000.55,181.58 L 2000.11,180.50 L 1998.19,175.97 L 1997.11,173.65 L 1994.89,169.07 L 1993.81,167.11 L 1991.62,163.23 L 1989.96,160.40 L 1989.05,158.91 L 1985.26,152.76 L 1983.27,149.66 L 1979.27,143.55 L 1977.41,140.83 L 1975.58,138.20 L 1974.74,137.03 L 1973.12,134.80 L 1972.41,133.88 L 1971.07,132.12 L 1970.35,131.13 L 1970.06,130.71 L 1969.11,129.19 L 1968.88,128.59 L 1968.59,127.45 L 1968.64,126.86 L 1968.84,125.65 L 1969.07,124.87 L 1970.90,118.23 L 1972.05,113.56 L 1972.58,111.15 L 1974.59,101.31 L 1975.38,96.37 L 1976.13,91.44 L 1976.45,89.03 L 1977.03,84.25 L 1977.25,81.95 L 1977.65,77.43 L 1977.77,75.31 L 1977.96,71.17 L 1977.97,69.29 L 1977.47,63.45 L 1976.61,59.61 L 1975.93,57.73 L 1974.41,54.00 L 1973.40,52.21 L 1971.23,48.68 L 1969.91,47.01 L 1965.03,41.66 L 1961.14,38.09 L 1958.94,36.33 L 1954.38,32.85 L 1951.91,31.18 L 1946.86,27.90 L 1944.22,26.36 L 1938.85,23.37 L 1936.11,22.03 L 1930.61,19.44 L 1927.86,18.33 L 1922.40,16.24 L 1919.74,15.42 L 1914.49,13.93 L 1912.00,13.45 L 1906.24,12.59 L 1902.12,12.20 L 1899.97,12.09 L 1891.24,11.89 M 1873.50,20.06 L 1875.37,20.12 L 1876.45,20.19 L 1878.71,20.35 L 1879.98,20.47 L 1882.60,20.72 L 1884.04,20.89 L 1887.00,21.24 L 1888.60,21.45 L 1901.62,23.44 L 1909.77,24.98 L 1913.61,25.87 L 1921.12,27.72 L 1924.67,28.77 L 1931.62,30.96 L 1934.91,32.19 L 1941.38,34.74 L 1944.45,36.17 L 1950.49,39.11 L 1953.38,40.74 L 1959.08,44.10 L 1961.83,45.95 L 1967.25,49.75 L 1969.89,51.83 L 1971.07,52.91 L 1971.31,53.36 L 1971.49,53.78 L 1971.48,53.95 L 1971.40,54.25 L 1971.25,54.35 L 1970.14,54.32 L 1969.27,53.82 L 1968.90,53.38 L 1967.37,51.80 L 1966.07,50.69 L 1965.31,50.10 L 1963.69,48.92 L 1962.77,48.31 L 1960.87,47.08 L 1959.82,46.45 L 1955.39,43.90 L 1952.88,42.62 L 1947.69,40.04 L 1944.90,38.79 L 1939.22,36.31 L 1936.30,35.16 L 1930.42,32.91 L 1927.50,31.91 L 1921.70,30.02 L 1918.93,29.24 L 1913.49,27.83 L 1911.00,27.34 L 1900.14,25.40 L 1892.60,24.20 L 1889.06,23.70 L 1885.58,23.22 L 1883.98,23.02 L 1880.87,22.64 L 1879.50,22.49 L 1876.91,22.23 L 1875.85,22.15 L 1873.92,22.02 L 1873.25,22.02 L 1871.21,21.93 L 1870.02,21.81 L 1869.54,21.71 L 1868.68,21.51 L 1868.41,21.39 L 1868.00,21.14 L 1868.00,21.00 L 1868.36,20.54 L 1868.95,20.32 L 1869.42,20.24 L 1870.46,20.11 L 1871.14,20.08 L 1872.61,20.04 Z" fill="rgba(10,69,111,1)"/>
<path d="M 1893.76,208.14 L 1893.52,208.18 L 1893.31,208.14 L 1893.44,208.15 L 1893.95,208.08 M 1893.14,208.10 L 1893.08,208.08 L 1893.02,207.85 L 1893.02,207.84 M 1894.94,207.81 L 1894.55,207.92 L 1894.66,207.88 L 1895.65,207.50 M 1897.74,206.50 L 1897.08,206.82 L 1898.05,206.34 M 1948.23,162.83 L 1948.11,163.16 L 1948.02,163.35 L 1947.63,163.94 L 1947.40,164.26 L 1946.75,165.07 L 1946.40,165.50 L 1945.54,166.51 L 1944.62,167.56 L 1942.24,170.13 L 1940.99,171.47 L 1938.10,174.45 L 1935.13,177.47 L 1928.66,183.73 L 1927.07,185.24 L 1924.06,187.99 L 1920.00,191.53 L 1918.75,192.56 L 1915.97,194.70 L 1914.55,195.77 L 1911.57,197.89 L 1910.07,198.94 L 1907.07,200.93 L 1905.58,201.90 L 1902.75,203.65 L 1901.38,204.48 L 1901.02,204.68 L 1902.05,204.06 L 1904.23,202.73 L 1905.40,201.98 L 1910.23,198.78 L 1912.77,196.96 L 1916.23,194.35 L 1917.98,192.90 L 1918.58,192.30 L 1919.61,191.19 L 1919.88,190.75 L 1920.24,189.93 L 1920.19,189.63 L 1920.35,187.91 L 1920.83,186.70 L 1921.19,186.26 L 1921.27,186.09 L 1921.14,186.13 L 1920.99,186.22 L 1920.63,186.44 L 1920.38,186.61 L 1919.82,187.00 L 1919.48,187.26 L 1917.91,188.43 L 1917.55,188.70 L 1919.97,186.75 L 1921.89,185.19 L 1925.65,182.05 L 1927.50,180.49 L 1930.97,177.49 L 1932.65,176.02 L 1935.63,173.31 L 1939.37,169.74 L 1940.59,168.50 L 1942.73,166.48 L 1943.74,165.55 L 1945.39,164.18 L 1946.15,163.58 L 1947.24,162.92 L 1948.17,162.77 M 1902.86,199.97 L 1901.72,200.78 L 1899.57,202.28 L 1898.77,202.79 L 1896.66,204.25 L 1896.85,204.10 L 1899.28,202.41 L 1900.55,201.57 L 1903.57,199.43 L 1905.13,198.31 M 1905.48,198.06 L 1905.16,198.29 L 1905.77,197.83 M 1872.36,143.13 L 1873.34,143.33 L 1875.38,143.73 L 1876.50,143.95 L 1881.56,144.96 L 1885.30,145.71 L 1887.21,146.09 L 1891.00,146.84 L 1892.75,147.19 L 1896.12,147.86 L 1892.75,147.19 L 1891.00,146.84 L 1887.21,146.09 L 1885.30,145.71 L 1881.56,144.97 L 1876.50,143.97 L 1872.49,143.18 L 1871.50,142.96 M 1838.07,71.46 L 1839.02,72.49 L 1841.25,74.55 L 1842.41,75.58 L 1845.03,77.61 L 1846.38,78.62 L 1849.31,80.58 L 1850.82,81.56 L 1854.02,83.42 L 1857.27,85.26 L 1864.32,88.50 L 1875.20,92.41 L 1876.35,92.75 L 1878.43,93.38 L 1878.14,93.32 L 1877.90,93.31 L 1877.47,93.31 L 1877.34,93.36 L 1877.00,93.68 L 1877.00,94.00 L 1876.81,94.69 L 1876.50,95.35 L 1876.28,95.75 L 1875.21,97.48 L 1874.53,98.37 L 1872.38,101.72 L 1870.84,104.59 L 1870.06,106.26 L 1868.48,109.74 L 1867.73,111.61 L 1866.25,115.43 L 1865.59,117.38 L 1864.84,119.90 L 1864.54,121.30 L 1864.50,121.91 L 1864.58,124.21 L 1864.99,125.46 L 1865.34,128.64 L 1865.08,131.09 L 1864.74,132.34 L 1863.94,134.83 L 1863.37,135.93 L 1862.13,138.01 L 1861.39,138.76 L 1860.74,139.39 L 1860.44,139.73 L 1860.40,139.88 L 1860.41,140.17 L 1860.57,140.31 L 1860.95,140.54 L 1860.87,140.52 L 1853.47,138.55 L 1849.82,137.54 L 1842.82,135.36 L 1839.38,134.25 L 1832.83,131.89 L 1829.61,130.68 L 1823.54,128.14 L 1820.57,126.85 L 1815.01,124.14 L 1812.30,122.77 L 1807.30,119.91 L 1800.45,115.48 L 1799.11,114.52 L 1796.33,112.32 L 1794.95,111.18 L 1792.19,108.72 L 1790.83,107.48 L 1788.23,104.93 L 1786.97,103.65 L 1784.67,101.16 L 1783.58,99.94 L 1781.72,97.66 L 1780.86,96.56 L 1779.58,94.66 L 1779.03,93.77 L 1778.47,92.39 L 1778.38,92.09 L 1778.36,91.61 L 1778.59,91.10 L 1778.69,91.00 L 1779.12,90.73 L 1779.37,90.57 L 1780.08,90.19 L 1780.86,89.77 L 1783.11,88.67 L 1784.34,88.08 L 1787.34,86.70 L 1788.91,85.99 L 1792.41,84.43 L 1796.00,82.85 L 1803.73,79.59 L 1805.64,78.80 L 1809.30,77.32 L 1814.34,75.35 L 1816.01,74.72 L 1819.36,73.41 L 1821.00,72.77 L 1824.02,71.54 L 1825.46,70.96 L 1827.82,69.96 L 1828.35,69.73 L 1829.23,69.34 L 1830.22,68.86 L 1833.95,66.99 M 1960.20,123.85 L 1960.88,124.15 L 1962.03,124.64 L 1962.57,124.87 L 1963.43,125.21 L 1963.82,125.37 L 1964.36,125.54 L 1964.73,125.60 L 1964.73,125.60 L 1964.35,125.54 L 1963.82,125.37 L 1963.43,125.22 L 1962.57,124.87 L 1962.03,124.64 L 1960.87,124.15 L 1960.20,123.85 L 1958.92,123.28 M 1956.41,120.14 L 1956.53,120.20 L 1956.41,120.14 M 1918.97,103.83 L 1925.30,106.09 L 1928.45,107.34 L 1931.64,108.62 L 1933.39,109.35 L 1937.00,110.87 L 1939.08,111.75 L 1947.92,115.80 L 1950.90,117.27 L 1952.33,118.00 L 1955.13,119.45 L 1956.26,120.06 L 1955.13,119.45 L 1952.32,117.99 L 1950.90,117.26 L 1947.92,115.79 L 1939.08,111.75 L 1937.02,110.87 L 1933.39,109.35 L 1931.63,108.62 L 1928.38,107.32 L 1925.19,106.06 L 1918.84,103.79 L 1918.07,103.52 M 1886.52,95.92 L 1889.50,96.92 L 1889.91,97.06 L 1891.11,97.47 L 1891.77,97.69 L 1893.41,98.24 L 1894.27,98.53 L 1896.28,99.20 L 1897.32,99.54 L 1899.61,100.31 L 1901.97,101.09 L 1907.26,102.84 L 1915.50,105.55 L 1918.59,106.56 L 1924.17,108.53 L 1918.28,106.47 L 1915.00,105.40 L 1906.53,102.63 L 1901.06,100.83 L 1898.61,100.01 L 1896.23,99.22 L 1895.14,98.86 L 1893.05,98.16 L 1892.14,97.85 L 1890.42,97.27 L 1889.72,97.03 L 1888.45,96.60 L 1888.00,96.44 L 1886.42,95.89 M 1884.70,93.24 L 1887.15,93.98 L 1888.63,94.42 L 1893.99,96.03 L 1897.28,97.01 L 1898.79,97.47 L 1901.73,98.36 L 1903.09,98.77 L 1903.87,99.01 L 1903.70,98.96 L 1902.44,98.58 L 1899.74,97.76 L 1898.35,97.35 L 1895.36,96.46 L 1890.50,95.01 L 1887.36,94.08 L 1884.36,93.13 M 1899.97,12.09 L 1902.12,12.20 L 1902.62,12.25 L 1902.44,12.38 L 1902.42,12.52 L 1902.56,13.21 L 1902.84,13.75 L 1903.25,15.57 L 1903.17,16.95 L 1902.94,17.50 L 1902.29,19.27 L 1902.01,20.26 L 1901.96,20.67 L 1901.94,21.45 L 1902.03,21.78 L 1902.31,22.39 L 1902.57,22.65 L 1903.19,23.15 L 1903.64,23.37 L 1904.65,23.79 L 1905.31,23.99 L 1906.76,24.39 L 1907.48,24.55 L 1901.62,23.44 L 1888.60,21.45 L 1887.00,21.24 L 1884.04,20.89 L 1882.60,20.72 L 1879.98,20.47 L 1878.71,20.35 L 1876.45,20.19 L 1875.37,20.12 L 1873.50,20.06 L 1872.61,20.04 L 1871.14,20.08 L 1870.46,20.11 L 1869.42,20.24 L 1868.95,20.32 L 1868.36,20.54 L 1868.00,21.00 L 1868.00,21.14 L 1868.41,21.39 L 1868.68,21.51 L 1869.54,21.71 L 1870.02,21.81 L 1871.21,21.93 L 1873.25,22.02 L 1873.92,22.02 L 1875.85,22.15 L 1876.91,22.23 L 1879.50,22.49 L 1880.87,22.64 L 1883.98,23.02 L 1885.58,23.22 L 1889.06,23.70 L 1892.60,24.20 L 1900.14,25.40 L 1902.22,25.77 L 1901.72,25.72 L 1900.56,25.66 L 1899.01,25.79 L 1898.05,26.14 L 1897.59,26.47 L 1896.68,27.23 L 1896.22,27.80 L 1895.30,29.07 L 1894.82,29.93 L 1893.85,31.79 L 1893.33,32.97 L 1892.27,35.51 L 1891.68,37.06 L 1890.47,40.35 L 1889.79,42.31 L 1888.38,46.45 L 1887.59,48.87 L 1886.26,52.95 L 1885.44,55.48 L 1885.07,56.66 L 1883.65,61.14 L 1883.06,63.06 L 1881.97,66.71 L 1881.53,68.27 L 1880.73,71.23 L 1880.42,72.48 L 1879.88,74.86 L 1879.70,75.88 L 1879.39,77.82 L 1879.31,78.67 L 1879.18,81.78 L 1879.34,83.17 L 1879.55,85.61 L 1879.52,86.80 L 1879.41,87.23 L 1879.12,88.01 L 1878.86,88.33 L 1878.26,88.91 L 1877.82,89.20 L 1877.05,90.05 L 1877.13,90.33 L 1877.30,90.48 L 1877.73,90.79 L 1878.09,90.96 L 1878.93,91.33 L 1879.53,91.55 L 1880.58,91.93 L 1878.65,91.30 L 1873.36,89.44 L 1870.78,88.50 L 1866.02,86.62 L 1863.70,85.68 L 1859.46,83.78 L 1857.40,82.82 L 1853.64,80.88 L 1851.82,79.91 L 1848.54,77.93 L 1846.96,76.93 L 1844.12,74.89 L 1840.36,71.76 L 1836.12,67.85 L 1839.39,60.68 L 1840.36,58.55 L 1842.65,53.95 L 1843.83,51.62 L 1846.43,46.80 L 1847.76,44.39 L 1850.52,39.60 L 1851.90,37.23 L 1854.67,32.72 L 1856.03,30.52 L 1858.65,26.53 L 1859.93,24.63 L 1862.24,21.41 L 1862.79,20.66 L 1863.81,19.36 L 1864.31,18.74 L 1865.20,17.72 L 1865.63,17.24 L 1866.38,16.53 L 1867.31,15.84 L 1868.23,15.34 L 1870.76,14.48 L 1872.12,14.08 L 1875.38,13.40 L 1877.08,13.09 L 1880.89,12.61 L 1882.85,12.39 L 1887.01,12.11 L 1891.24,11.89 M 1971.04,54.34 L 1970.93,54.39 L 1970.65,54.33 M 1952.88,42.62 L 1955.39,43.90 L 1959.82,46.45 L 1960.87,47.08 L 1962.77,48.31 L 1963.69,48.92 L 1965.31,50.10 L 1966.07,50.69 L 1967.37,51.80 L 1968.90,53.38 L 1968.96,53.46 L 1968.87,53.40 L 1968.14,52.73 L 1965.53,50.54 L 1963.54,49.06 L 1962.43,48.31 L 1957.68,45.29 L 1954.95,43.79 L 1949.95,41.16 M 1935.25,32.25 L 1938.15,33.39 L 1943.82,35.72 L 1946.34,36.92 L 1950.16,38.90 L 1952.93,40.47 L 1953.23,40.65 L 1950.49,39.11 L 1944.45,36.17 L 1941.38,34.74 L 1934.91,32.19 L 1933.00,31.48 M 1944.90,38.79 L 1947.69,40.04 L 1948.58,40.48 L 1946.21,39.38 L 1944.78,38.73 M 1926.00,29.12 L 1929.10,30.14 L 1930.19,30.51 L 1924.67,28.77 L 1922.27,28.06 M 1919.77,27.35 L 1920.71,27.62 L 1916.79,26.65 Z" fill="rgba(218,63,38,1)"/>
<path d="M 1831.81,257.58 L 1831.39,258.82 L 1831.26,259.24 L 1831.12,259.70 L 1831.00,259.59 L 1831.00,259.39 L 1831.30,258.53 L 1832.00,257.00 M 1832.85,258.64 L 1832.34,259.10 L 1832.24,259.16 L 1832.55,258.89 L 1832.96,258.48 M 1843.68,221.39 L 1844.83,221.91 L 1845.28,222.15 L 1845.95,222.73 L 1846.25,223.04 L 1846.64,223.70 L 1846.96,224.38 L 1846.81,225.74 L 1846.71,226.06 L 1846.34,226.63 L 1846.13,226.90 L 1845.55,227.32 L 1845.23,227.51 L 1844.45,227.73 L 1843.06,227.77 L 1842.59,227.71 L 1841.86,227.80 L 1841.52,227.88 L 1840.97,228.32 L 1840.71,228.60 L 1840.25,229.53 L 1839.54,231.58 L 1839.37,232.14 L 1839.01,233.71 L 1838.83,234.55 L 1838.47,236.50 L 1837.61,242.58 L 1837.39,244.78 L 1836.82,248.49 L 1836.52,250.24 L 1835.78,253.10 L 1835.38,254.43 L 1834.46,256.47 L 1834.35,256.61 L 1834.66,256.02 L 1834.86,255.41 L 1835.23,254.13 L 1835.36,253.38 L 1835.59,251.77 L 1835.65,250.83 L 1836.03,245.50 L 1833.56,252.50 L 1832.60,255.26 L 1832.48,255.60 L 1832.56,255.33 L 1832.78,254.50 L 1833.31,252.20 L 1833.58,250.97 L 1834.17,248.06 L 1835.03,243.35 L 1835.30,241.73 L 1835.86,238.74 L 1836.14,237.31 L 1836.66,234.89 L 1836.91,233.77 L 1837.32,232.19 L 1837.42,231.86 L 1837.58,231.40 L 1837.77,231.05 L 1837.97,230.90 L 1838.38,230.22 L 1838.82,229.00 L 1838.91,228.59 L 1839.31,227.85 L 1840.02,227.19 L 1840.26,227.10 L 1840.50,226.61 L 1840.42,225.66 L 1840.29,225.32 L 1840.49,224.26 L 1840.59,224.06 L 1840.55,224.25 L 1840.63,224.68 L 1840.93,225.53 L 1841.28,225.88 L 1842.12,226.63 L 1842.46,226.80 L 1843.08,226.99 L 1843.31,226.87 L 1843.71,226.50 L 1843.83,226.10 L 1844.00,225.17 L 1844.00,224.50 L 1843.61,222.70 L 1843.02,222.00 L 1842.61,222.00 L 1841.45,222.40 L 1841.59,222.21 L 1842.08,221.70 L 1842.32,221.49 L 1842.81,221.31 L 1843.07,221.26 M 1921.19,186.26 L 1920.83,186.70 L 1920.35,187.91 L 1920.19,189.63 L 1920.24,189.93 L 1919.88,190.75 L 1919.61,191.19 L 1918.58,192.30 L 1917.98,192.90 L 1916.23,194.35 L 1912.77,196.96 L 1910.23,198.78 L 1905.40,201.98 L 1904.23,202.73 L 1902.05,204.06 L 1900.99,204.70 L 1899.08,205.78 L 1898.16,206.28 L 1896.58,207.07 L 1895.84,207.42 L 1894.66,207.88 L 1894.13,208.06 L 1893.44,208.15 L 1893.16,208.14 L 1893.01,207.82 L 1893.01,207.64 L 1893.47,207.01 L 1893.76,206.67 L 1894.71,205.80 L 1895.23,205.34 L 1896.54,204.34 L 1898.77,202.79 L 1899.57,202.28 L 1901.72,200.78 L 1902.86,199.97 L 1905.48,198.06 L 1913.52,191.88 L 1914.75,190.89 L 1916.90,189.21 L 1917.91,188.43 L 1919.48,187.26 L 1919.82,187.00 L 1920.38,186.61 L 1920.63,186.44 L 1920.99,186.22 L 1921.14,186.13 L 1921.27,186.09 M 1832.14,188.07 L 1832.36,188.42 L 1832.95,189.75 L 1833.27,190.51 L 1834.00,192.52 L 1835.15,196.09 L 1835.56,197.45 L 1836.22,199.65 L 1836.52,200.67 L 1836.99,202.24 L 1837.21,202.96 L 1837.50,204.02 L 1837.63,204.49 L 1837.78,205.14 L 1837.84,205.42 L 1837.85,205.74 L 1837.85,205.87 L 1837.76,205.99 L 1837.17,206.00 L 1837.05,206.00 L 1836.63,205.32 L 1836.40,204.88 L 1835.80,203.47 L 1835.48,202.70 L 1834.77,200.74 L 1834.41,199.71 L 1833.67,197.40 L 1833.30,196.22 L 1832.69,193.98 L 1832.40,192.90 L 1831.98,191.02 L 1831.80,190.14 L 1831.62,188.83 L 1831.66,187.74 L 1831.75,187.59 M 1947.45,160.65 L 1948.81,161.07 L 1951.43,161.89 L 1952.62,162.29 L 1957.07,163.80 L 1958.99,164.53 L 1962.68,165.99 L 1962.84,166.05 L 1958.95,164.55 L 1956.90,163.78 L 1952.25,162.20 L 1949.84,161.40 L 1946.12,160.25 M 1926.82,154.82 L 1929.43,155.49 L 1930.56,155.78 L 1932.67,156.35 L 1933.50,156.58 L 1934.35,156.83 L 1933.08,156.47 L 1926.88,154.85 L 1925.65,154.53 M 1878.14,93.32 L 1878.83,93.46 L 1879.21,93.54 L 1880.22,93.82 L 1880.76,93.98 L 1882.15,94.43 L 1882.89,94.67 L 1884.72,95.30 L 1888.00,96.44 L 1888.45,96.60 L 1889.72,97.03 L 1890.42,97.27 L 1891.52,97.64 L 1890.90,97.47 L 1888.76,96.89 L 1887.86,96.68 L 1886.17,96.29 L 1885.52,96.17 L 1884.34,96.00 L 1883.97,96.00 L 1882.37,96.35 L 1881.21,96.92 L 1880.61,97.35 L 1879.38,98.32 L 1878.76,98.94 L 1877.50,100.26 L 1876.87,101.03 L 1874.36,104.42 L 1873.21,106.45 L 1871.00,110.70 L 1870.11,113.02 L 1868.93,116.38 L 1868.29,118.49 L 1868.06,119.40 L 1867.66,121.13 L 1867.57,121.77 L 1867.46,122.89 L 1867.55,123.14 L 1868.84,125.14 L 1870.39,126.64 L 1871.50,127.46 L 1873.92,129.14 L 1875.44,130.04 L 1878.67,131.86 L 1880.56,132.81 L 1885.15,135.34 L 1886.35,136.10 L 1886.79,136.41 L 1887.53,136.99 L 1887.67,137.17 L 1888.39,138.59 L 1888.65,139.67 L 1888.67,140.17 L 1888.63,141.14 L 1888.49,141.47 L 1888.13,142.00 L 1887.83,142.00 L 1887.24,142.54 L 1887.00,143.34 L 1887.00,143.84 L 1887.41,144.86 L 1888.19,145.46 L 1888.94,145.76 L 1889.76,146.06 L 1890.28,146.21 L 1891.39,146.54 L 1892.07,146.71 L 1893.51,147.07 L 1894.37,147.27 L 1896.19,147.68 L 1897.25,147.91 L 1907.33,150.16 L 1914.32,151.78 L 1916.33,152.26 L 1897.50,148.14 L 1896.12,147.86 L 1892.75,147.19 L 1891.00,146.84 L 1887.21,146.09 L 1885.30,145.71 L 1881.56,144.96 L 1876.50,143.95 L 1875.38,143.73 L 1873.34,143.33 L 1872.36,143.13 L 1870.61,142.78 L 1868.91,142.45 L 1866.28,141.90 L 1865.07,141.65 L 1863.30,141.25 L 1862.51,141.06 L 1861.47,140.74 L 1861.03,140.59 L 1860.57,140.31 L 1860.41,140.17 L 1860.40,139.88 L 1860.44,139.73 L 1860.74,139.39 L 1861.39,138.76 L 1862.13,138.01 L 1863.37,135.93 L 1863.94,134.83 L 1864.74,132.34 L 1865.08,131.09 L 1865.34,128.64 L 1864.99,125.46 L 1864.58,124.21 L 1864.50,121.91 L 1864.54,121.30 L 1864.84,119.90 L 1865.59,117.38 L 1866.25,115.43 L 1867.73,111.61 L 1868.48,109.74 L 1870.06,106.26 L 1870.84,104.59 L 1872.38,101.72 L 1874.53,98.37 L 1875.21,97.48 L 1876.28,95.75 L 1876.50,95.35 L 1876.81,94.69 L 1877.00,94.00 L 1877.00,93.68 L 1877.34,93.36 L 1877.47,93.31 L 1877.90,93.31 M 1958.88,121.49 L 1959.93,122.10 L 1961.90,123.27 L 1962.65,123.75 L 1963.97,124.64 L 1964.33,124.96 L 1964.84,125.49 L 1964.73,125.60 L 1964.84,125.50 L 1964.33,124.96 L 1963.97,124.64 L 1962.65,123.75 L 1961.90,123.27 L 1959.93,122.10 L 1958.88,121.49 L 1956.53,120.20 M 1924.69,108.71 L 1927.86,109.84 L 1933.91,112.16 L 1936.88,113.32 L 1942.41,115.64 L 1949.90,119.05 L 1951.89,120.01 L 1955.53,121.73 L 1957.27,122.54 L 1960.20,123.85 L 1960.87,124.15 L 1962.03,124.64 L 1962.57,124.87 L 1963.02,125.05 L 1962.57,124.87 L 1962.03,124.65 L 1960.88,124.16 L 1960.20,123.86 L 1957.28,122.56 L 1955.53,121.75 L 1951.89,120.04 L 1949.91,119.09 L 1946.60,117.56 L 1944.10,116.47 L 1942.72,115.89 L 1939.90,114.71 L 1938.39,114.10 L 1935.31,112.87 L 1933.69,112.24 L 1927.05,109.68 L 1923.59,108.40 L 1918.37,106.50 M 1956.41,120.14 L 1956.41,120.14 L 1956.26,120.06 M 1901.72,25.72 L 1904.26,26.00 L 1905.55,26.16 L 1908.31,26.63 L 1911.12,27.15 L 1917.24,28.69 L 1920.36,29.53 L 1926.15,31.40 L 1920.86,29.77 L 1918.22,29.08 L 1913.02,27.83 L 1910.58,27.40 L 1906.55,26.78 L 1904.30,26.59 L 1903.34,26.65 L 1901.54,26.89 L 1900.77,27.22 L 1899.29,28.01 L 1898.62,28.66 L 1897.34,30.14 L 1896.72,31.18 L 1895.49,33.47 L 1894.85,34.97 L 1894.21,36.52 L 1893.87,37.40 L 1893.19,39.21 L 1892.83,40.21 L 1892.09,42.29 L 1891.69,43.44 L 1890.89,45.81 L 1890.45,47.11 L 1887.66,55.59 L 1886.10,60.56 L 1885.47,62.74 L 1884.29,66.88 L 1883.85,68.67 L 1883.04,72.07 L 1882.77,73.52 L 1882.32,76.26 L 1882.23,77.42 L 1882.11,79.59 L 1882.18,80.49 L 1882.39,82.18 L 1882.61,82.87 L 1883.12,84.16 L 1883.49,84.68 L 1884.68,85.76 L 1885.98,86.64 L 1886.81,87.13 L 1888.59,88.11 L 1889.60,88.61 L 1891.65,89.58 L 1892.72,90.03 L 1895.44,91.22 L 1897.04,91.97 L 1897.72,92.33 L 1899.03,93.04 L 1899.56,93.38 L 1900.56,94.03 L 1900.95,94.33 L 1901.64,94.92 L 1901.87,95.19 L 1902.25,95.72 L 1902.32,95.96 L 1902.38,96.41 L 1902.28,96.61 L 1902.02,96.99 L 1901.76,97.15 L 1901.96,97.61 L 1902.70,98.07 L 1903.32,98.36 L 1904.72,98.98 L 1905.61,99.31 L 1907.50,100.00 L 1908.59,100.35 L 1912.85,101.74 L 1915.46,102.60 L 1916.68,103.02 L 1921.40,104.66 L 1923.39,105.41 L 1918.97,103.83 L 1917.28,103.25 L 1913.50,102.02 L 1911.52,101.38 L 1906.93,99.95 L 1905.72,99.57 L 1903.09,98.77 L 1901.73,98.36 L 1898.79,97.47 L 1897.28,97.01 L 1893.99,96.03 L 1888.63,94.42 L 1887.15,93.98 L 1884.70,93.24 L 1883.55,92.89 L 1881.70,92.30 L 1880.84,92.02 L 1879.53,91.55 L 1878.93,91.33 L 1878.09,90.96 L 1877.73,90.79 L 1877.30,90.48 L 1877.13,90.33 L 1877.05,90.05 L 1877.82,89.20 L 1878.26,88.91 L 1878.86,88.33 L 1879.12,88.01 L 1879.41,87.23 L 1879.52,86.80 L 1879.55,85.61 L 1879.34,83.17 L 1879.18,81.78 L 1879.31,78.67 L 1879.39,77.82 L 1879.70,75.88 L 1879.88,74.86 L 1880.42,72.48 L 1880.73,71.23 L 1881.53,68.27 L 1881.97,66.71 L 1883.06,63.06 L 1883.65,61.14 L 1885.07,56.66 L 1885.44,55.48 L 1886.26,52.95 L 1887.59,48.87 L 1888.38,46.45 L 1889.79,42.31 L 1890.47,40.35 L 1891.68,37.06 L 1892.27,35.51 L 1893.33,32.97 L 1893.85,31.79 L 1894.82,29.93 L 1895.30,29.07 L 1896.22,27.80 L 1896.68,27.23 L 1897.59,26.47 L 1898.05,26.14 L 1899.01,25.79 L 1900.56,25.66 M 1976.61,59.61 L 1976.66,59.84 L 1976.50,59.29 M 1969.91,47.01 L 1971.23,48.68 L 1973.40,52.21 L 1974.41,54.00 L 1974.76,54.87 L 1974.22,53.68 L 1973.44,52.33 L 1971.77,49.63 L 1970.77,48.28 L 1968.91,45.91 M 1970.47,54.30 L 1970.93,54.39 L 1971.37,54.21 L 1971.40,54.17 L 1971.36,54.22 L 1970.93,54.40 L 1970.47,54.31 L 1970.18,54.17 L 1968.87,53.40 L 1970.18,54.17 M 1971.45,54.09 L 1971.43,54.12 L 1971.39,54.01 M 1962.43,48.31 L 1962.57,48.41 L 1962.41,48.30 M 1947.01,37.23 L 1948.13,37.78 L 1950.24,38.83 L 1951.00,39.24 L 1954.25,41.12 L 1956.56,42.55 L 1957.73,43.31 L 1962.43,46.47 L 1963.87,47.54 L 1962.72,46.73 L 1960.13,44.94 L 1954.35,41.33 L 1952.93,40.47 L 1950.16,38.90 L 1946.34,36.92 L 1946.03,36.78 M 1957.68,45.29 L 1957.70,45.30 L 1957.67,45.28 M 1965.03,41.66 L 1965.85,42.56 L 1964.89,41.54 L 1964.43,41.11 M 1904.51,12.14 L 1905.00,12.20 L 1906.29,12.40 L 1906.99,12.51 L 1908.76,12.83 L 1912.00,13.45 L 1914.49,13.93 L 1919.74,15.42 L 1922.40,16.24 L 1925.17,17.30 L 1923.31,16.69 L 1922.00,16.37 L 1921.49,16.32 L 1920.57,16.27 L 1920.25,16.35 L 1919.71,16.58 L 1919.59,16.79 L 1919.44,17.28 L 1919.52,17.63 L 1919.76,18.38 L 1920.03,18.85 L 1920.67,19.86 L 1921.14,20.46 L 1922.17,21.72 L 1922.84,22.44 L 1924.45,24.26 L 1925.40,25.40 L 1925.78,25.89 L 1926.46,26.80 L 1926.67,27.14 L 1927.00,27.71 L 1927.00,27.84 L 1927.73,28.47 L 1928.88,29.14 L 1929.72,29.56 L 1931.55,30.45 L 1932.66,30.95 L 1934.98,31.96 L 1936.25,32.48 L 1941.82,34.90 L 1938.15,33.39 L 1935.25,32.25 L 1929.10,30.14 L 1926.00,29.12 L 1919.77,27.35 L 1910.75,25.24 L 1909.59,25.01 L 1907.66,24.59 L 1906.76,24.39 L 1905.31,23.99 L 1904.65,23.79 L 1903.64,23.37 L 1903.19,23.15 L 1902.57,22.65 L 1902.31,22.39 L 1902.03,21.78 L 1901.94,21.45 L 1901.96,20.67 L 1902.01,20.26 L 1902.29,19.27 L 1902.94,17.50 L 1903.17,16.95 L 1903.25,15.57 L 1902.84,13.75 L 1902.56,13.21 L 1902.42,12.52 L 1902.44,12.38 L 1902.67,12.20 L 1902.82,12.13 L 1903.34,12.08 L 1903.64,12.07 M 1930.61,19.44 L 1936.11,22.03 L 1938.85,23.37 L 1944.22,26.36 L 1946.86,27.90 L 1950.94,30.55 L 1946.31,27.66 L 1943.23,25.93 L 1936.98,22.53 L 1933.98,21.08 L 1931.02,19.67 L 1929.63,19.07 L 1928.09,18.42 M 1963.54,49.06 L 1965.53,50.54 L 1968.14,52.73 L 1963.46,49.00 Z" fill="rgba(208,102,45,1)"/>
<path d="M 1835.65,250.83 L 1835.59,251.77 L 1835.36,253.38 L 1835.23,254.13 L 1834.86,255.41 L 1834.66,256.02 L 1834.13,257.03 L 1833.14,258.31 L 1832.55,258.89 L 1831.64,259.68 L 1831.45,259.83 L 1831.20,259.99 L 1831.09,260.04 L 1831.05,259.97 L 1831.05,259.91 L 1831.26,259.24 L 1831.39,258.82 L 1831.81,257.58 L 1832.03,256.91 L 1832.60,255.26 L 1833.56,252.50 L 1836.03,245.50 M 1843.61,222.70 L 1844.00,224.50 L 1844.00,225.17 L 1843.83,226.10 L 1843.71,226.50 L 1843.31,226.87 L 1843.08,226.99 L 1842.46,226.80 L 1842.12,226.63 L 1841.28,225.88 L 1840.93,225.53 L 1840.63,224.68 L 1840.55,224.25 L 1840.72,223.42 L 1840.85,223.02 L 1841.41,222.41 L 1842.61,222.00 L 1843.02,222.00 M 1885.52,96.17 L 1886.17,96.29 L 1887.86,96.68 L 1888.76,96.89 L 1890.90,97.47 L 1892.02,97.78 L 1894.54,98.53 L 1895.84,98.92 L 1898.69,99.81 L 1900.14,100.27 L 1903.24,101.28 L 1906.39,102.31 L 1909.87,103.52 L 1909.63,103.46 L 1908.76,103.27 L 1908.46,103.23 L 1907.93,103.19 L 1907.81,103.23 L 1907.99,103.45 L 1908.45,103.74 L 1908.84,103.96 L 1909.71,104.44 L 1910.29,104.74 L 1911.53,105.37 L 1912.28,105.74 L 1913.84,106.51 L 1914.73,106.94 L 1916.57,107.83 L 1917.58,108.30 L 1921.85,110.30 L 1924.22,111.38 L 1932.50,115.21 L 1937.52,117.62 L 1939.81,118.75 L 1944.22,120.97 L 1946.21,122.03 L 1950.07,124.11 L 1951.80,125.10 L 1955.14,127.05 L 1956.64,127.99 L 1959.53,129.86 L 1960.81,130.77 L 1963.29,132.57 L 1964.39,133.45 L 1966.51,135.22 L 1967.45,136.10 L 1970.71,139.49 L 1973.08,142.24 L 1974.33,143.84 L 1976.88,147.16 L 1978.20,149.01 L 1980.88,152.80 L 1982.24,154.83 L 1984.96,158.99 L 1986.32,161.17 L 1989.03,165.60 L 1990.36,167.88 L 1995.57,177.12 L 1997.89,181.75 L 1998.76,183.43 L 1999.19,184.18 L 2000.02,185.60 L 2000.39,186.16 L 2001.10,187.19 L 2001.38,187.51 L 2001.87,188.00 L 2002.01,188.00 L 2002.26,187.47 L 2002.16,186.62 L 2002.00,185.99 L 2001.61,184.61 L 2001.32,183.75 L 2000.67,181.93 L 2000.27,180.91 L 1999.93,180.07 L 2000.11,180.50 L 2000.55,181.58 L 2001.31,183.57 L 2001.66,184.52 L 2002.21,186.14 L 2002.45,186.90 L 2002.73,188.04 L 2002.79,189.07 L 2002.75,189.19 L 2002.32,189.12 L 2002.06,189.04 L 2001.26,188.63 L 2000.83,188.39 L 1999.77,187.70 L 1999.22,187.33 L 1998.00,186.41 L 1997.13,185.74 L 1994.93,184.19 L 1993.76,183.38 L 1991.07,181.63 L 1989.68,180.73 L 1986.66,178.86 L 1985.13,177.92 L 1981.93,176.03 L 1978.73,174.15 L 1972.44,170.72 L 1970.94,169.91 L 1968.15,168.50 L 1964.45,166.76 L 1962.68,165.99 L 1958.99,164.53 L 1957.07,163.80 L 1952.62,162.29 L 1951.43,161.89 L 1948.81,161.07 L 1947.45,160.65 L 1944.43,159.74 L 1942.86,159.27 L 1939.36,158.25 L 1933.50,156.58 L 1932.67,156.35 L 1930.56,155.78 L 1929.43,155.49 L 1926.82,154.82 L 1925.46,154.48 L 1922.46,153.74 L 1920.92,153.36 L 1917.64,152.57 L 1914.32,151.78 L 1907.33,150.16 L 1897.25,147.91 L 1896.19,147.68 L 1894.37,147.27 L 1893.51,147.07 L 1892.07,146.71 L 1891.39,146.54 L 1890.28,146.21 L 1889.76,146.06 L 1888.94,145.76 L 1888.19,145.46 L 1887.41,144.86 L 1887.00,143.84 L 1887.00,143.34 L 1887.24,142.54 L 1887.83,142.00 L 1888.13,142.00 L 1888.49,141.47 L 1888.63,141.14 L 1888.67,140.17 L 1888.65,139.67 L 1888.39,138.59 L 1887.67,137.17 L 1887.53,136.99 L 1886.79,136.41 L 1886.35,136.10 L 1885.15,135.34 L 1880.56,132.81 L 1878.67,131.86 L 1875.44,130.04 L 1873.92,129.14 L 1871.50,127.46 L 1870.39,126.64 L 1868.84,125.14 L 1867.55,123.14 L 1867.46,122.89 L 1867.57,121.77 L 1867.66,121.13 L 1868.06,119.40 L 1868.29,118.49 L 1868.93,116.38 L 1870.11,113.02 L 1871.00,110.70 L 1873.21,106.45 L 1874.36,104.42 L 1876.87,101.03 L 1877.50,100.26 L 1878.76,98.94 L 1879.38,98.32 L 1880.61,97.35 L 1881.21,96.92 L 1882.37,96.35 L 1883.97,96.00 L 1884.34,96.00 M 1825.44,131.31 L 1825.79,131.82 L 1825.95,132.14 L 1826.22,133.12 L 1826.35,133.67 L 1826.53,135.07 L 1826.70,137.58 L 1826.76,139.25 L 1826.98,143.12 L 1827.11,145.11 L 1827.44,149.43 L 1827.80,153.82 L 1828.73,162.88 L 1828.97,165.08 L 1829.48,169.24 L 1829.73,171.26 L 1830.24,174.84 L 1830.49,176.54 L 1830.96,179.31 L 1831.08,179.94 L 1831.30,180.99 L 1831.62,182.25 L 1831.76,182.73 L 1831.67,183.49 L 1831.07,184.00 L 1830.77,184.00 L 1830.31,183.88 L 1830.12,183.81 L 1830.00,183.61 L 1830.00,183.55 L 1829.84,182.68 L 1829.74,182.13 L 1829.42,180.44 L 1829.24,179.51 L 1828.80,177.22 L 1828.03,173.36 L 1827.07,168.53 L 1825.60,158.51 L 1825.27,156.05 L 1824.76,151.32 L 1824.53,149.00 L 1824.20,144.73 L 1824.07,142.68 L 1823.95,139.09 L 1823.92,137.41 L 1824.03,134.74 L 1824.07,134.14 L 1824.20,133.15 L 1824.27,132.70 L 1824.45,132.01 L 1824.55,131.71 L 1824.80,131.36 L 1825.25,131.25 M 1946.60,117.56 L 1949.91,119.09 L 1951.89,120.04 L 1955.53,121.75 L 1957.28,122.56 L 1960.20,123.86 L 1960.88,124.16 L 1962.03,124.65 L 1962.57,124.87 L 1963.43,125.22 L 1963.82,125.37 L 1964.36,125.54 L 1964.73,125.60 L 1964.80,125.54 L 1964.84,125.74 L 1964.77,125.78 L 1964.55,125.81 L 1964.31,125.75 L 1963.72,125.56 L 1963.25,125.37 L 1962.18,124.91 L 1961.43,124.57 L 1959.79,123.82 L 1958.71,123.31 L 1956.37,122.20 L 1954.91,121.50 L 1951.78,120.01 L 1949.89,119.10 L 1945.41,117.04 M 1906.55,26.78 L 1910.58,27.40 L 1913.02,27.83 L 1918.22,29.08 L 1920.86,29.77 L 1926.31,31.45 L 1929.05,32.34 L 1934.57,34.36 L 1937.32,35.41 L 1942.70,37.70 L 1945.36,38.87 L 1950.41,41.34 L 1952.88,42.58 L 1957.42,45.14 L 1959.61,46.42 L 1963.43,48.98 L 1968.14,52.73 L 1968.87,53.40 L 1970.18,54.17 L 1970.47,54.31 L 1970.93,54.40 L 1971.14,54.31 L 1970.88,54.66 L 1970.52,54.54 L 1969.66,54.10 L 1969.03,53.53 L 1968.01,52.75 L 1967.03,52.09 L 1966.43,51.72 L 1963.82,50.16 L 1962.45,49.44 L 1959.72,47.99 L 1957.32,46.71 L 1955.94,45.97 L 1950.07,42.84 L 1947.25,41.33 L 1943.27,39.24 L 1940.94,38.05 L 1940.01,37.59 L 1938.33,36.78 L 1937.81,36.56 L 1937.35,36.37 L 1937.21,36.33 L 1937.00,36.28 L 1937.00,36.31 L 1937.57,36.83 L 1938.47,37.46 L 1939.13,37.89 L 1940.57,38.82 L 1941.43,39.35 L 1943.25,40.46 L 1944.25,41.05 L 1947.66,43.31 L 1950.26,45.23 L 1951.60,46.30 L 1954.30,48.51 L 1955.58,49.64 L 1958.05,51.87 L 1959.10,52.92 L 1962.34,56.30 L 1964.16,58.38 L 1964.92,59.38 L 1966.34,61.35 L 1966.91,62.33 L 1967.96,64.31 L 1968.36,65.34 L 1969.10,67.44 L 1969.37,68.58 L 1969.84,70.93 L 1969.99,72.24 L 1970.24,74.95 L 1970.30,76.48 L 1970.38,79.68 L 1970.37,81.50 L 1970.22,86.05 L 1970.01,89.38 L 1969.86,91.06 L 1969.54,94.39 L 1969.35,95.91 L 1968.94,98.83 L 1968.73,100.00 L 1968.06,103.87 L 1967.61,106.71 L 1967.41,108.13 L 1967.02,110.97 L 1966.86,112.27 L 1966.56,114.76 L 1966.47,115.75 L 1966.14,118.62 L 1965.87,120.33 L 1965.73,121.04 L 1965.43,122.35 L 1965.29,122.78 L 1965.01,123.50 L 1964.88,123.57 L 1964.40,124.25 L 1964.38,124.81 L 1964.54,125.07 L 1964.69,125.34 L 1964.33,124.96 L 1963.97,124.64 L 1962.65,123.75 L 1961.90,123.27 L 1959.93,122.10 L 1958.88,121.49 L 1956.41,120.14 L 1955.13,119.45 L 1952.32,117.99 L 1950.90,117.26 L 1947.92,115.79 L 1939.08,111.75 L 1937.52,111.08 L 1934.68,109.90 L 1933.30,109.32 L 1930.75,108.28 L 1928.25,107.26 L 1923.67,105.51 L 1921.40,104.66 L 1916.68,103.02 L 1915.46,102.60 L 1912.85,101.74 L 1908.59,100.35 L 1907.50,100.00 L 1905.61,99.31 L 1904.72,98.98 L 1903.32,98.36 L 1902.70,98.07 L 1901.96,97.61 L 1901.76,97.15 L 1902.02,96.99 L 1902.28,96.61 L 1902.38,96.41 L 1902.32,95.96 L 1902.25,95.72 L 1901.87,95.19 L 1901.64,94.92 L 1900.95,94.33 L 1900.56,94.03 L 1899.56,93.38 L 1899.03,93.04 L 1897.72,92.33 L 1897.04,91.97 L 1895.44,91.22 L 1892.72,90.03 L 1891.65,89.58 L 1889.60,88.61 L 1888.59,88.11 L 1886.81,87.13 L 1885.98,86.64 L 1884.68,85.76 L 1883.49,84.68 L 1883.12,84.16 L 1882.61,82.87 L 1882.39,82.18 L 1882.18,80.49 L 1882.11,79.59 L 1882.23,77.42 L 1882.32,76.26 L 1882.77,73.52 L 1883.04,72.07 L 1883.85,68.67 L 1884.29,66.88 L 1885.47,62.74 L 1886.10,60.56 L 1887.66,55.59 L 1890.45,47.11 L 1890.89,45.81 L 1891.69,43.44 L 1892.09,42.29 L 1892.83,40.21 L 1893.19,39.21 L 1893.87,37.40 L 1894.21,36.52 L 1894.85,34.97 L 1895.49,33.47 L 1896.72,31.18 L 1897.34,30.14 L 1898.62,28.66 L 1899.29,28.01 L 1900.77,27.22 L 1901.54,26.89 L 1903.34,26.65 L 1904.30,26.59 M 1977.77,75.31 L 1977.65,77.43 L 1977.25,81.95 L 1977.03,84.25 L 1976.45,89.03 L 1976.13,91.44 L 1975.38,96.37 L 1974.59,101.31 L 1972.58,111.15 L 1972.05,113.56 L 1970.90,118.23 L 1969.07,124.87 L 1971.05,117.60 L 1972.29,112.40 L 1972.86,109.69 L 1975.00,98.65 L 1975.81,93.21 L 1976.57,87.81 L 1976.87,85.23 L 1977.40,80.17 L 1977.58,77.83 L 1977.85,73.55 M 1977.97,69.29 L 1977.96,71.17 L 1977.87,73.15 L 1977.90,71.32 L 1977.91,68.24 M 1974.22,53.68 L 1975.47,56.41 L 1976.04,57.78 L 1976.89,60.57 L 1977.26,61.98 L 1977.71,64.85 L 1977.77,65.87 L 1976.97,61.46 L 1975.95,58.05 L 1975.28,56.34 L 1973.97,53.24 M 1921.49,16.32 L 1922.00,16.37 L 1923.31,16.69 L 1925.70,17.47 L 1926.92,17.92 L 1929.63,19.07 L 1931.02,19.67 L 1933.98,21.08 L 1936.98,22.53 L 1943.23,25.93 L 1946.31,27.66 L 1951.98,31.20 L 1953.31,32.06 L 1955.70,33.72 L 1958.74,36.04 L 1960.42,37.44 L 1963.44,40.18 L 1964.89,41.54 L 1967.44,44.25 L 1968.66,45.60 L 1969.05,46.09 L 1968.92,46.02 L 1968.82,46.03 L 1968.67,46.11 L 1968.64,46.23 L 1968.66,46.95 L 1968.88,47.62 L 1969.47,49.15 L 1969.97,50.20 L 1971.02,52.76 L 1971.24,53.79 L 1971.01,53.45 L 1970.71,53.08 L 1969.61,52.05 L 1968.99,51.50 L 1967.37,50.18 L 1966.51,49.50 L 1964.50,48.00 L 1962.43,46.47 L 1957.73,43.31 L 1956.56,42.55 L 1954.25,41.12 L 1951.00,39.24 L 1950.24,38.83 L 1948.13,37.78 L 1947.01,37.23 L 1944.40,36.02 L 1936.25,32.48 L 1934.98,31.96 L 1932.66,30.95 L 1931.55,30.45 L 1929.72,29.56 L 1928.88,29.14 L 1927.73,28.47 L 1927.00,27.84 L 1927.00,27.71 L 1926.67,27.14 L 1926.46,26.80 L 1925.78,25.89 L 1925.40,25.40 L 1924.45,24.26 L 1922.84,22.44 L 1922.17,21.72 L 1921.14,20.46 L 1920.67,19.86 L 1920.03,18.85 L 1919.76,18.38 L 1919.52,17.63 L 1919.44,17.28 L 1919.59,16.79 L 1919.71,16.58 L 1920.25,16.35 L 1920.57,16.27 Z" fill="rgba(237,132,34,1)"/>
<path d="M 1997.89,181.75 L 1995.57,177.12 L 1990.36,167.88 L 1989.03,165.60 L 1986.32,161.17 L 1984.96,158.99 L 1982.24,154.83 L 1980.88,152.80 L 1978.20,149.01 L 1976.88,147.16 L 1974.33,143.84 L 1973.08,142.24 L 1970.71,139.49 L 1967.45,136.10 L 1966.51,135.22 L 1964.39,133.45 L 1963.29,132.57 L 1960.81,130.77 L 1959.53,129.86 L 1956.64,127.99 L 1955.14,127.05 L 1951.80,125.10 L 1950.07,124.11 L 1946.21,122.03 L 1944.22,120.97 L 1939.81,118.75 L 1937.52,117.62 L 1932.50,115.21 L 1924.22,111.38 L 1921.85,110.30 L 1917.58,108.30 L 1916.57,107.83 L 1914.73,106.94 L 1913.84,106.51 L 1912.28,105.74 L 1911.53,105.37 L 1910.29,104.74 L 1909.71,104.44 L 1908.84,103.96 L 1908.45,103.74 L 1907.99,103.45 L 1907.81,103.23 L 1907.93,103.19 L 1908.46,103.23 L 1908.76,103.27 L 1909.63,103.46 L 1910.10,103.57 L 1911.27,103.90 L 1911.88,104.08 L 1913.32,104.53 L 1914.81,105.00 L 1918.44,106.26 L 1920.33,106.94 L 1924.54,108.50 L 1928.84,110.12 L 1937.92,113.81 L 1940.13,114.73 L 1944.30,116.54 L 1949.89,119.10 L 1951.78,120.01 L 1954.91,121.50 L 1956.37,122.20 L 1958.71,123.31 L 1959.79,123.82 L 1961.43,124.57 L 1962.18,124.91 L 1963.25,125.37 L 1963.72,125.56 L 1964.31,125.75 L 1964.55,125.81 L 1964.77,125.78 L 1964.84,125.74 L 1964.80,125.53 L 1964.54,125.07 L 1964.38,124.81 L 1964.40,124.25 L 1964.88,123.57 L 1965.01,123.50 L 1965.29,122.78 L 1965.43,122.35 L 1965.73,121.04 L 1965.87,120.33 L 1966.14,118.62 L 1966.47,115.75 L 1966.56,114.76 L 1966.86,112.27 L 1967.02,110.97 L 1967.41,108.13 L 1967.61,106.71 L 1968.06,103.87 L 1968.73,100.00 L 1968.94,98.83 L 1969.35,95.91 L 1969.54,94.39 L 1969.86,91.06 L 1970.01,89.38 L 1970.22,86.05 L 1970.37,81.50 L 1970.38,79.68 L 1970.30,76.48 L 1970.24,74.95 L 1969.99,72.24 L 1969.84,70.93 L 1969.37,68.58 L 1969.10,67.44 L 1968.36,65.34 L 1967.96,64.31 L 1966.91,62.33 L 1966.34,61.35 L 1964.92,59.38 L 1964.16,58.38 L 1962.34,56.30 L 1959.10,52.92 L 1958.05,51.87 L 1955.58,49.64 L 1954.30,48.51 L 1951.60,46.30 L 1950.26,45.23 L 1947.66,43.31 L 1944.25,41.05 L 1943.25,40.46 L 1941.43,39.35 L 1940.57,38.82 L 1939.13,37.89 L 1938.47,37.46 L 1937.57,36.83 L 1937.00,36.31 L 1937.00,36.28 L 1937.21,36.33 L 1937.35,36.37 L 1937.81,36.56 L 1938.33,36.78 L 1940.01,37.59 L 1940.94,38.05 L 1943.27,39.24 L 1947.25,41.33 L 1950.07,42.84 L 1955.94,45.97 L 1957.32,46.71 L 1959.72,47.99 L 1962.45,49.44 L 1963.82,50.16 L 1966.43,51.72 L 1967.03,52.09 L 1968.01,52.75 L 1969.03,53.53 L 1969.66,54.10 L 1970.52,54.54 L 1970.88,54.66 L 1971.19,54.25 L 1971.28,53.95 L 1971.02,52.76 L 1969.97,50.20 L 1969.47,49.15 L 1968.88,47.62 L 1968.66,46.95 L 1968.64,46.23 L 1968.67,46.11 L 1968.82,46.03 L 1968.92,46.02 L 1969.21,46.18 L 1969.37,46.28 L 1969.79,46.68 L 1970.57,47.57 L 1971.40,48.60 L 1973.04,51.44 L 1973.84,52.95 L 1975.28,56.34 L 1975.95,58.05 L 1976.97,61.46 L 1977.79,66.00 L 1977.91,67.54 L 1977.90,71.32 L 1977.86,73.31 L 1977.58,77.83 L 1977.40,80.17 L 1976.87,85.23 L 1976.57,87.81 L 1975.81,93.21 L 1975.00,98.65 L 1972.86,109.69 L 1972.29,112.40 L 1971.05,117.60 L 1969.07,124.87 L 1968.84,125.65 L 1968.64,126.86 L 1968.59,127.45 L 1968.88,128.59 L 1969.11,129.19 L 1970.06,130.71 L 1970.35,131.13 L 1971.07,132.12 L 1972.41,133.88 L 1973.12,134.80 L 1974.74,137.03 L 1975.58,138.20 L 1977.41,140.83 L 1979.27,143.55 L 1983.27,149.66 L 1985.26,152.76 L 1989.05,158.91 L 1989.96,160.40 L 1991.62,163.23 L 1993.81,167.11 L 1995.04,169.34 L 1997.36,174.15 L 1998.46,176.52 L 2000.27,180.91 L 2000.67,181.93 L 2001.32,183.75 L 2001.61,184.61 L 2002.00,185.99 L 2002.16,186.62 L 2002.26,187.47 L 2002.01,188.00 L 2001.87,188.00 L 2001.38,187.51 L 2001.10,187.19 L 2000.39,186.16 L 2000.02,185.60 L 1999.19,184.18 L 1998.76,183.43 Z" fill="rgba(251,251,247,1)"/>
</g>
</svg>